<svg width="1204" height="480" viewBox="0 0 1204 480" fill="none" xmlns="http://www.w3.org/2000/svg">
<g clip-path="url(#clip0_403_8729)">
<rect width="1204" height="480" fill="#6099F7"/>
<path fill-rule="evenodd" clip-rule="evenodd" d="M-310.328 491.431L-310.328 668.287H-308.328L-308.328 491.431H-195.973V668.287H-193.973V491.431H-81.6175V668.287H-79.6175V491.431H32.7376V668.287H34.7376V491.431H145.361V668.287H147.361V491.431H259.716V668.287H261.716V491.431H374.071V668.287H376.071V491.431H488.427V668.287H490.427V491.431H601.05V668.287H603.05V491.431H715.405V668.287H717.405V491.431H829.761V668.287H831.761V491.431H942.383V668.287H944.383V491.431H1056.74V668.287H1058.74V491.431H1171.09V668.287H1173.09V491.431H1285.45V668.287H1287.45V491.431H1398.07V668.287H1400.07V491.431H1512.43V668.287H1514.43V491.431H1671.83V489.431H1514.43V376.61H1671.83V374.61H1514.43V261.79H1671.83V259.79H1514.43V146.97H1671.83V144.97H1514.43V32.1498H1671.83V30.1498H1514.43V-82.6704H1671.83V-84.6704H1514.43V-197.491H1671.83V-199.491H1514.43V-312.312H1671.83V-314.312H1514.43V-477H1512.43V-314.312H1400.07V-477H1398.07V-314.312H1287.45V-477H1285.45V-314.312H1173.09V-477H1171.09V-314.312H1058.74V-477H1056.74V-314.312H944.383V-477H942.383V-314.312H831.761V-477H829.761V-314.312H717.405V-477H715.405V-314.312H603.05V-477H601.05V-314.312H490.427V-477H488.427V-314.312H376.071V-477H374.071V-314.312H261.716V-477H259.716V-314.312H147.361V-477H145.361V-314.312H34.7377V-477H32.7377V-314.312H-79.6174V-477H-81.6174V-314.312H-193.973V-477H-195.973V-314.312H-308.328L-308.328 -477H-310.328L-310.328 -314.312H-468V-312.312H-310.328V-199.491H-468V-197.491H-310.328V-84.6704H-468V-82.6704H-310.328L-310.328 30.1498H-468V32.1498H-310.328V144.97H-468V146.97H-310.328L-310.328 259.79H-468V261.79H-310.328V374.61H-468V376.61H-310.328V489.431H-468V491.431H-310.328ZM1512.43 -312.312H1400.07V-199.491H1512.43V-312.312ZM1512.43 -197.491H1400.07V-84.6704H1512.43V-197.491ZM1512.43 -82.6704H1400.07V30.1498H1512.43V-82.6704ZM1512.43 32.1498H1400.07V144.97H1512.43V32.1498ZM1512.43 146.97H1400.07V259.79H1512.43V146.97ZM1512.43 261.79H1400.07V374.61H1512.43V261.79ZM1512.43 376.61H1400.07V489.431H1512.43V376.61ZM1398.07 376.61V489.431H1287.45V376.61H1398.07ZM1398.07 261.79V374.61H1287.45V261.79H1398.07ZM1398.07 146.97V259.79H1287.45V146.97H1398.07ZM1398.07 32.1498V144.97H1287.45V32.1498H1398.07ZM1398.07 -82.6704V30.1498H1287.45V-82.6704H1398.07ZM1398.07 -197.491V-84.6704H1287.45V-197.491H1398.07ZM1398.07 -312.312V-199.491H1287.45V-312.312H1398.07ZM1285.45 -312.312H1173.09V-199.491H1285.45V-312.312ZM1285.45 -197.491H1173.09V-84.6704H1285.45V-197.491ZM1285.45 -82.6704H1173.09V30.1498H1285.45V-82.6704ZM1285.45 32.1498H1173.09V144.97H1285.45V32.1498ZM1285.45 146.97H1173.09V259.79H1285.45V146.97ZM1285.45 261.79H1173.09V374.61H1285.45V261.79ZM1285.45 376.61H1173.09V489.431H1285.45V376.61ZM1171.09 376.61V489.431H1058.74V376.61H1171.09ZM1171.09 261.79V374.61H1058.74V261.79H1171.09ZM1171.09 146.97V259.79H1058.74V146.97H1171.09ZM1171.09 32.1498V144.97H1058.74V32.1498H1171.09ZM1171.09 -82.6704V30.1498H1058.74V-82.6704H1171.09ZM1171.09 -197.491V-84.6704H1058.74V-197.491H1171.09ZM1171.09 -312.312V-199.491H1058.74V-312.312H1171.09ZM1056.74 -312.312H944.383V-199.491H1056.74V-312.312ZM1056.74 -197.491H944.383V-84.6704H1056.74V-197.491ZM1056.74 -82.6704H944.383V30.1498H1056.74V-82.6704ZM1056.74 32.1498H944.383V144.97H1056.74V32.1498ZM1056.74 146.97H944.383V259.79H1056.74V146.97ZM1056.74 261.79H944.383V374.61H1056.74V261.79ZM1056.74 376.61H944.383V489.431H1056.74V376.61ZM942.383 376.61V489.431H831.761V376.61H942.383ZM942.383 261.79V374.61H831.761V261.79H942.383ZM942.383 146.97V259.79H831.761V146.97H942.383ZM942.383 32.1498V144.97H831.761V32.1498H942.383ZM942.383 -82.6704V30.1498H831.761V-82.6704H942.383ZM942.383 -197.491V-84.6704H831.761V-197.491H942.383ZM942.383 -312.312V-199.491H831.761V-312.312H942.383ZM829.761 -312.312H717.405V-199.491H829.761V-312.312ZM829.761 -197.491H717.405V-84.6704H829.761V-197.491ZM829.761 -82.6704H717.405V30.1498H829.761V-82.6704ZM829.761 32.1498H717.405V144.97H829.761V32.1498ZM829.761 146.97H717.405V259.79H829.761V146.97ZM829.761 261.79H717.405V374.61H829.761V261.79ZM829.761 376.61H717.405V489.431H829.761V376.61ZM715.405 376.61V489.431H603.05V376.61H715.405ZM715.405 261.79V374.61H603.05V261.79H715.405ZM715.405 146.97V259.79H603.05V146.97H715.405ZM715.405 32.1498V144.97H603.05V32.1498H715.405ZM715.405 -82.6704V30.1498H603.05V-82.6704H715.405ZM715.405 -197.491V-84.6704H603.05V-197.491H715.405ZM715.405 -312.312V-199.491H603.05V-312.312H715.405ZM601.05 -312.312H490.427V-199.491H601.05V-312.312ZM601.05 -197.491H490.427V-84.6704H601.05V-197.491ZM601.05 -82.6704H490.427V30.1498H601.05V-82.6704ZM601.05 32.1498H490.427L490.427 144.97H601.05V32.1498ZM601.05 146.97H490.427V259.79H601.05V146.97ZM601.05 261.79H490.427V374.61H601.05V261.79ZM601.05 376.61H490.427V489.431H601.05V376.61ZM488.427 376.61V489.431H376.071V376.61H488.427ZM488.427 261.79V374.61H376.071V261.79H488.427ZM488.427 146.97V259.79H376.071V146.97H488.427ZM488.427 32.1498L488.427 144.97H376.071L376.071 32.1498H488.427ZM488.427 -82.6704V30.1498H376.071V-82.6704H488.427ZM488.427 -197.491V-84.6704H376.071V-197.491H488.427ZM488.427 -312.312V-199.491H376.071V-312.312H488.427ZM374.071 -312.312H261.716V-199.491H374.071V-312.312ZM374.071 -197.491H261.716V-84.6704H374.071V-197.491ZM374.071 -82.6704H261.716V30.1498H374.071V-82.6704ZM374.071 32.1498H261.716L261.716 144.97H374.071L374.071 32.1498ZM374.071 146.97H261.716V259.79H374.071V146.97ZM374.071 261.79H261.716V374.61H374.071V261.79ZM374.071 376.61H261.716V489.431H374.071V376.61ZM259.716 376.61V489.431H147.361V376.61H259.716ZM259.716 261.79V374.61H147.361V261.79H259.716ZM259.716 146.97V259.79H147.361V146.97H259.716ZM259.716 32.1498L259.716 144.97H147.361L147.361 32.1498H259.716ZM259.716 -82.6704V30.1498H147.361V-82.6704H259.716ZM259.716 -197.491V-84.6704H147.361V-197.491H259.716ZM259.716 -312.312V-199.491H147.361V-312.312H259.716ZM145.361 -312.312H34.7377V-199.491H145.361V-312.312ZM145.361 -197.491H34.7377L34.7376 -84.6704H145.361V-197.491ZM145.361 -82.6704H34.7376V30.1498H145.361V-82.6704ZM145.361 32.1498H34.7376V144.97H145.361L145.361 32.1498ZM145.361 146.97H34.7376V259.79H145.361V146.97ZM145.361 261.79H34.7376V374.61H145.361V261.79ZM145.361 376.61H34.7376L34.7376 489.431H145.361V376.61ZM32.7376 376.61L32.7376 489.431H-79.6175L-79.6175 376.61H32.7376ZM32.7376 261.79V374.61H-79.6175V261.79H32.7376ZM32.7376 146.97V259.79H-79.6175V146.97H32.7376ZM32.7376 32.1498V144.97H-79.6175V32.1498H32.7376ZM32.7376 -82.6704V30.1498H-79.6175V-82.6704H32.7376ZM32.7377 -197.491L32.7376 -84.6704H-79.6175L-79.6174 -197.491H32.7377ZM32.7377 -312.312V-199.491H-79.6174V-312.312H32.7377ZM-81.6174 -312.312H-193.973V-199.491H-81.6174V-312.312ZM-81.6174 -197.491H-193.973L-193.973 -84.6704H-81.6175L-81.6174 -197.491ZM-81.6175 -82.6704H-193.973V30.1498H-81.6175V-82.6704ZM-81.6175 32.1498H-193.973V144.97H-81.6175V32.1498ZM-81.6175 146.97H-193.973V259.79H-81.6175V146.97ZM-81.6175 261.79H-193.973V374.61H-81.6175V261.79ZM-81.6175 376.61H-193.973L-193.973 489.431H-81.6175L-81.6175 376.61ZM-195.973 376.61L-195.973 489.431H-308.328V376.61H-195.973ZM-195.973 261.79V374.61H-308.328V261.79H-195.973ZM-195.973 146.97V259.79H-308.328L-308.328 146.97H-195.973ZM-195.973 32.1498V144.97H-308.328V32.1498H-195.973ZM-195.973 -82.6704V30.1498H-308.328L-308.328 -82.6704H-195.973ZM-195.973 -197.491L-195.973 -84.6704H-308.328V-197.491H-195.973ZM-195.973 -312.312V-199.491H-308.328V-312.312H-195.973Z" fill="url(#paint0_radial_403_8729)"/>
<g style="mix-blend-mode:screen" opacity="0.2">
<circle cx="560.759" cy="240.759" r="92.759" fill="white" fill-opacity="0.4"/>
</g>
<ellipse opacity="0.2" cx="559.28" cy="239" rx="67.5" ry="68" fill="white" fill-opacity="0.6"/>
<circle cx="559.103" cy="239.103" r="13.2513" fill="white" fill-opacity="0.6"/>
<g style="mix-blend-mode:screen" opacity="0.2">
<circle cx="666.5" cy="123.5" r="27.5" fill="white" fill-opacity="0.4"/>
</g>
<circle opacity="0.2" cx="665.875" cy="122.875" r="17.5" fill="white" fill-opacity="0.6"/>
<circle cx="665.875" cy="122.875" r="8.75" fill="white" fill-opacity="0.6"/>
<g style="mix-blend-mode:screen" opacity="0.2">
<circle cx="451.5" cy="398.5" r="64.5" fill="white" fill-opacity="0.4"/>
</g>
<circle opacity="0.2" cx="450.26" cy="397.26" r="34.7308" fill="white" fill-opacity="0.6"/>
<circle cx="450.26" cy="397.26" r="17.3654" fill="white" fill-opacity="0.6"/>
<g style="mix-blend-mode:screen" opacity="0.2">
<circle cx="52" cy="48" r="176" fill="white" fill-opacity="0.4"/>
</g>
<circle opacity="0.2" cx="48.6154" cy="44.6154" r="94.7692" fill="white" fill-opacity="0.6"/>
<g style="mix-blend-mode:screen" opacity="0.2">
<circle cx="1166" cy="480" r="236" fill="white" fill-opacity="0.4"/>
</g>
<circle opacity="0.2" cx="1161.46" cy="475.462" r="127.077" fill="white" fill-opacity="0.6"/>
<g style="mix-blend-mode:color-burn">
<rect width="1204" height="480" fill="#387FF5" fill-opacity="0.1"/>
</g>
</g>
<defs>
<radialGradient id="paint0_radial_403_8729" cx="0" cy="0" r="1" gradientUnits="userSpaceOnUse" gradientTransform="translate(596.548 1247.05) rotate(180) scale(1300.45 1234.17)">
<stop stop-color="#EDECF3"/>
<stop offset="1" stop-color="#E6E5F5" stop-opacity="0.01"/>
</radialGradient>
<clipPath id="clip0_403_8729">
<rect width="1204" height="480" fill="white"/>
</clipPath>
</defs>
</svg>
