<svg width="1204" height="480" viewBox="0 0 1204 480" fill="none" xmlns="http://www.w3.org/2000/svg">
<g clip-path="url(#clip0_403_7408)">
<rect width="1204" height="480" fill="#6099F7"/>
<path d="M-54.2002 -105H64.6146C69.3017 -105 73.1014 -101.292 73.1014 -96.7179V-63.5897C73.1014 -59.0157 69.3017 -55.3077 64.6146 -55.3077H-54.2002C-58.8874 -55.3077 -62.687 -59.0157 -62.687 -63.5897V-96.7179C-62.687 -101.292 -58.8874 -105 -54.2002 -105Z" fill="url(#paint0_radial_403_7408)"/>
<path d="M-54.2002 -38.7436H64.6146C69.3017 -38.7436 73.1014 -35.0356 73.1014 -30.4615V2.66666C73.1014 7.24071 69.3017 10.9487 64.6146 10.9487H-54.2002C-58.8874 10.9487 -62.687 7.24071 -62.687 2.66666V-30.4615C-62.687 -35.0356 -58.8874 -38.7436 -54.2002 -38.7436Z" fill="url(#paint1_radial_403_7408)"/>
<path d="M-54.2002 27.5128H64.6146C69.3017 27.5128 73.1014 31.2208 73.1014 35.7949V68.9231C73.1014 73.4971 69.3017 77.2051 64.6146 77.2051H-54.2002C-58.8874 77.2051 -62.687 73.4971 -62.687 68.9231V35.7949C-62.687 31.2208 -58.8874 27.5128 -54.2002 27.5128Z" fill="url(#paint2_radial_403_7408)"/>
<path d="M-54.2002 93.7692H64.6146C69.3017 93.7692 73.1014 97.4772 73.1014 102.051V135.179C73.1014 139.754 69.3017 143.462 64.6146 143.462H-54.2002C-58.8874 143.462 -62.687 139.754 -62.687 135.179V102.051C-62.687 97.4772 -58.8874 93.7692 -54.2002 93.7692Z" fill="url(#paint3_radial_403_7408)"/>
<path d="M-54.2002 160.026H64.6146C69.3017 160.026 73.1014 163.734 73.1014 168.308V201.436C73.1014 206.01 69.3017 209.718 64.6146 209.718H-54.2002C-58.8874 209.718 -62.687 206.01 -62.687 201.436V168.308C-62.687 163.734 -58.8874 160.026 -54.2002 160.026Z" fill="url(#paint4_radial_403_7408)"/>
<path d="M-54.2002 226.282H64.6146C69.3017 226.282 73.1014 229.99 73.1014 234.564V267.692C73.1014 272.266 69.3017 275.974 64.6146 275.974H-54.2002C-58.8874 275.974 -62.687 272.266 -62.687 267.692V234.564C-62.687 229.99 -58.8874 226.282 -54.2002 226.282Z" fill="url(#paint5_radial_403_7408)"/>
<path d="M-54.2002 292.538H64.6146C69.3017 292.538 73.1014 296.246 73.1014 300.82V333.949C73.1014 338.523 69.3017 342.231 64.6146 342.231H-54.2002C-58.8874 342.231 -62.687 338.523 -62.687 333.949V300.82C-62.687 296.246 -58.8874 292.538 -54.2002 292.538Z" fill="url(#paint6_radial_403_7408)"/>
<path d="M-54.2002 358.795H64.6146C69.3017 358.795 73.1014 362.503 73.1014 367.077V400.205C73.1014 404.779 69.3017 408.487 64.6146 408.487H-54.2002C-58.8874 408.487 -62.687 404.779 -62.687 400.205V367.077C-62.687 362.503 -58.8874 358.795 -54.2002 358.795Z" fill="url(#paint7_radial_403_7408)"/>
<path d="M-54.2002 425.051H64.6146C69.3017 425.051 73.1014 428.759 73.1014 433.333V466.462C73.1014 471.036 69.3017 474.744 64.6146 474.744H-54.2002C-58.8874 474.744 -62.687 471.036 -62.687 466.462V433.333C-62.687 428.759 -58.8874 425.051 -54.2002 425.051Z" fill="url(#paint8_radial_403_7408)"/>
<path d="M64.6146 491.308H-54.2002C-58.8874 491.308 -62.687 495.016 -62.687 499.59V532.718C-62.687 537.292 -58.8874 541 -54.2002 541H64.6146C69.3017 541 73.1014 537.292 73.1014 532.718V499.59C73.1014 495.016 69.3017 491.308 64.6146 491.308Z" fill="url(#paint9_radial_403_7408)"/>
<path d="M217.377 491.308H98.5617C93.8746 491.308 90.075 495.016 90.075 499.59V532.718C90.075 537.292 93.8746 541 98.5617 541H217.377C222.064 541 225.863 537.292 225.863 532.718V499.59C225.863 495.016 222.064 491.308 217.377 491.308Z" fill="url(#paint10_radial_403_7408)"/>
<path d="M251.324 491.308H370.139C374.826 491.308 378.625 495.016 378.625 499.59V532.718C378.625 537.292 374.826 541 370.139 541H251.324C246.637 541 242.837 537.292 242.837 532.718V499.59C242.837 495.016 246.637 491.308 251.324 491.308Z" fill="url(#paint11_radial_403_7408)"/>
<path d="M522.901 491.308H404.086C399.399 491.308 395.599 495.016 395.599 499.59V532.718C395.599 537.292 399.399 541 404.086 541H522.901C527.588 541 531.387 537.292 531.387 532.718V499.59C531.387 495.016 527.588 491.308 522.901 491.308Z" fill="url(#paint12_radial_403_7408)"/>
<path d="M556.848 491.308H675.662C680.35 491.308 684.149 495.016 684.149 499.59V532.718C684.149 537.292 680.35 541 675.662 541H556.848C552.161 541 548.361 537.292 548.361 532.718V499.59C548.361 495.016 552.161 491.308 556.848 491.308Z" fill="url(#paint13_radial_403_7408)"/>
<path d="M828.424 491.308H709.61C704.922 491.308 701.123 495.016 701.123 499.59V532.718C701.123 537.292 704.922 541 709.61 541H828.424C833.112 541 836.911 537.292 836.911 532.718V499.59C836.911 495.016 833.112 491.308 828.424 491.308Z" fill="url(#paint14_radial_403_7408)"/>
<path d="M862.372 491.308H981.186C985.874 491.308 989.673 495.016 989.673 499.59V532.718C989.673 537.292 985.874 541 981.186 541H862.372C857.685 541 853.885 537.292 853.885 532.718V499.59C853.885 495.016 857.685 491.308 862.372 491.308Z" fill="url(#paint15_radial_403_7408)"/>
<path d="M1133.95 491.308H1015.13C1010.45 491.308 1006.65 495.016 1006.65 499.59V532.718C1006.65 537.292 1010.45 541 1015.13 541H1133.95C1138.64 541 1142.44 537.292 1142.44 532.718V499.59C1142.44 495.016 1138.64 491.308 1133.95 491.308Z" fill="url(#paint16_radial_403_7408)"/>
<path d="M1167.9 491.308H1286.71C1291.4 491.308 1295.2 495.016 1295.2 499.59V532.718C1295.2 537.292 1291.4 541 1286.71 541H1167.9C1163.21 541 1159.41 537.292 1159.41 532.718V499.59C1159.41 495.016 1163.21 491.308 1167.9 491.308Z" fill="url(#paint17_radial_403_7408)"/>
<path d="M1439.47 491.308H1320.66C1315.97 491.308 1312.17 495.016 1312.17 499.59V532.718C1312.17 537.292 1315.97 541 1320.66 541H1439.47C1444.16 541 1447.96 537.292 1447.96 532.718V499.59C1447.96 495.016 1444.16 491.308 1439.47 491.308Z" fill="url(#paint18_radial_403_7408)"/>
<path d="M217.377 425.051H98.5617C93.8746 425.051 90.075 428.759 90.075 433.333V466.462C90.075 471.036 93.8746 474.744 98.5617 474.744H217.377C222.064 474.744 225.863 471.036 225.863 466.462V433.333C225.863 428.759 222.064 425.051 217.377 425.051Z" fill="url(#paint19_radial_403_7408)"/>
<path d="M251.324 425.051H370.139C374.826 425.051 378.625 428.759 378.625 433.333V466.462C378.625 471.036 374.826 474.744 370.139 474.744H251.324C246.637 474.744 242.837 471.036 242.837 466.462V433.333C242.837 428.759 246.637 425.051 251.324 425.051Z" fill="url(#paint20_radial_403_7408)"/>
<path d="M522.901 425.051H404.086C399.399 425.051 395.599 428.759 395.599 433.333V466.462C395.599 471.036 399.399 474.744 404.086 474.744H522.901C527.588 474.744 531.387 471.036 531.387 466.462V433.333C531.387 428.759 527.588 425.051 522.901 425.051Z" fill="url(#paint21_radial_403_7408)"/>
<path d="M556.848 425.051H675.662C680.35 425.051 684.149 428.759 684.149 433.333V466.462C684.149 471.036 680.35 474.744 675.662 474.744H556.848C552.161 474.744 548.361 471.036 548.361 466.462V433.333C548.361 428.759 552.161 425.051 556.848 425.051Z" fill="url(#paint22_radial_403_7408)"/>
<path d="M828.424 425.051H709.61C704.922 425.051 701.123 428.759 701.123 433.333V466.462C701.123 471.036 704.922 474.744 709.61 474.744H828.424C833.112 474.744 836.911 471.036 836.911 466.462V433.333C836.911 428.759 833.112 425.051 828.424 425.051Z" fill="url(#paint23_radial_403_7408)"/>
<path d="M862.372 425.051H981.186C985.874 425.051 989.673 428.759 989.673 433.333V466.462C989.673 471.036 985.874 474.744 981.186 474.744H862.372C857.685 474.744 853.885 471.036 853.885 466.462V433.333C853.885 428.759 857.685 425.051 862.372 425.051Z" fill="url(#paint24_radial_403_7408)"/>
<path d="M1133.95 425.051H1015.13C1010.45 425.051 1006.65 428.759 1006.65 433.333V466.462C1006.65 471.036 1010.45 474.744 1015.13 474.744H1133.95C1138.64 474.744 1142.44 471.036 1142.44 466.462V433.333C1142.44 428.759 1138.64 425.051 1133.95 425.051Z" fill="url(#paint25_radial_403_7408)"/>
<path d="M1167.9 425.051H1286.71C1291.4 425.051 1295.2 428.759 1295.2 433.333V466.462C1295.2 471.036 1291.4 474.744 1286.71 474.744H1167.9C1163.21 474.744 1159.41 471.036 1159.41 466.462V433.333C1159.41 428.759 1163.21 425.051 1167.9 425.051Z" fill="url(#paint26_radial_403_7408)"/>
<path d="M1439.47 425.051H1320.66C1315.97 425.051 1312.17 428.759 1312.17 433.333V466.462C1312.17 471.036 1315.97 474.744 1320.66 474.744H1439.47C1444.16 474.744 1447.96 471.036 1447.96 466.462V433.333C1447.96 428.759 1444.16 425.051 1439.47 425.051Z" fill="url(#paint27_radial_403_7408)"/>
<path d="M217.377 358.795H98.5617C93.8746 358.795 90.075 362.503 90.075 367.077V400.205C90.075 404.779 93.8746 408.487 98.5617 408.487H217.377C222.064 408.487 225.863 404.779 225.863 400.205V367.077C225.863 362.503 222.064 358.795 217.377 358.795Z" fill="url(#paint28_radial_403_7408)"/>
<path d="M251.324 358.795H370.139C374.826 358.795 378.625 362.503 378.625 367.077V400.205C378.625 404.779 374.826 408.487 370.139 408.487H251.324C246.637 408.487 242.837 404.779 242.837 400.205V367.077C242.837 362.503 246.637 358.795 251.324 358.795Z" fill="url(#paint29_radial_403_7408)"/>
<path d="M522.901 358.795H404.086C399.399 358.795 395.599 362.503 395.599 367.077V400.205C395.599 404.779 399.399 408.487 404.086 408.487H522.901C527.588 408.487 531.387 404.779 531.387 400.205V367.077C531.387 362.503 527.588 358.795 522.901 358.795Z" fill="url(#paint30_radial_403_7408)"/>
<path d="M556.848 358.795H675.662C680.35 358.795 684.149 362.503 684.149 367.077V400.205C684.149 404.779 680.35 408.487 675.662 408.487H556.848C552.161 408.487 548.361 404.779 548.361 400.205V367.077C548.361 362.503 552.161 358.795 556.848 358.795Z" fill="url(#paint31_radial_403_7408)"/>
<path d="M828.424 358.795H709.61C704.922 358.795 701.123 362.503 701.123 367.077V400.205C701.123 404.779 704.922 408.487 709.61 408.487H828.424C833.112 408.487 836.911 404.779 836.911 400.205V367.077C836.911 362.503 833.112 358.795 828.424 358.795Z" fill="url(#paint32_radial_403_7408)"/>
<path d="M862.372 358.795H981.186C985.874 358.795 989.673 362.503 989.673 367.077V400.205C989.673 404.779 985.874 408.487 981.186 408.487H862.372C857.685 408.487 853.885 404.779 853.885 400.205V367.077C853.885 362.503 857.685 358.795 862.372 358.795Z" fill="url(#paint33_radial_403_7408)"/>
<path d="M1133.95 358.795H1015.13C1010.45 358.795 1006.65 362.503 1006.65 367.077V400.205C1006.65 404.779 1010.45 408.487 1015.13 408.487H1133.95C1138.64 408.487 1142.44 404.779 1142.44 400.205V367.077C1142.44 362.503 1138.64 358.795 1133.95 358.795Z" fill="url(#paint34_radial_403_7408)"/>
<path d="M1167.9 358.795H1286.71C1291.4 358.795 1295.2 362.503 1295.2 367.077V400.205C1295.2 404.779 1291.4 408.487 1286.71 408.487H1167.9C1163.21 408.487 1159.41 404.779 1159.41 400.205V367.077C1159.41 362.503 1163.21 358.795 1167.9 358.795Z" fill="url(#paint35_radial_403_7408)"/>
<path d="M1439.47 358.795H1320.66C1315.97 358.795 1312.17 362.503 1312.17 367.077V400.205C1312.17 404.779 1315.97 408.487 1320.66 408.487H1439.47C1444.16 408.487 1447.96 404.779 1447.96 400.205V367.077C1447.96 362.503 1444.16 358.795 1439.47 358.795Z" fill="url(#paint36_radial_403_7408)"/>
<path d="M217.377 292.538H98.5617C93.8746 292.538 90.075 296.246 90.075 300.82V333.949C90.075 338.523 93.8746 342.231 98.5617 342.231H217.377C222.064 342.231 225.863 338.523 225.863 333.949V300.82C225.863 296.246 222.064 292.538 217.377 292.538Z" fill="url(#paint37_radial_403_7408)"/>
<path d="M251.324 292.538H370.139C374.826 292.538 378.625 296.246 378.625 300.82V333.949C378.625 338.523 374.826 342.231 370.139 342.231H251.324C246.637 342.231 242.837 338.523 242.837 333.949V300.82C242.837 296.246 246.637 292.538 251.324 292.538Z" fill="url(#paint38_radial_403_7408)"/>
<path d="M522.901 292.538H404.086C399.399 292.538 395.599 296.246 395.599 300.82V333.949C395.599 338.523 399.399 342.231 404.086 342.231H522.901C527.588 342.231 531.387 338.523 531.387 333.949V300.82C531.387 296.246 527.588 292.538 522.901 292.538Z" fill="url(#paint39_radial_403_7408)"/>
<path d="M556.848 292.538H675.662C680.35 292.538 684.149 296.246 684.149 300.82V333.949C684.149 338.523 680.35 342.231 675.662 342.231H556.848C552.161 342.231 548.361 338.523 548.361 333.949V300.82C548.361 296.246 552.161 292.538 556.848 292.538Z" fill="url(#paint40_radial_403_7408)"/>
<path d="M828.424 292.538H709.61C704.922 292.538 701.123 296.246 701.123 300.82V333.949C701.123 338.523 704.922 342.231 709.61 342.231H828.424C833.112 342.231 836.911 338.523 836.911 333.949V300.82C836.911 296.246 833.112 292.538 828.424 292.538Z" fill="url(#paint41_radial_403_7408)"/>
<path d="M862.372 292.538H981.186C985.874 292.538 989.673 296.246 989.673 300.82V333.949C989.673 338.523 985.874 342.231 981.186 342.231H862.372C857.685 342.231 853.885 338.523 853.885 333.949V300.82C853.885 296.246 857.685 292.538 862.372 292.538Z" fill="url(#paint42_radial_403_7408)"/>
<path d="M1133.95 292.538H1015.13C1010.45 292.538 1006.65 296.246 1006.65 300.82V333.949C1006.65 338.523 1010.45 342.231 1015.13 342.231H1133.95C1138.64 342.231 1142.44 338.523 1142.44 333.949V300.82C1142.44 296.246 1138.64 292.538 1133.95 292.538Z" fill="url(#paint43_radial_403_7408)"/>
<path d="M1167.9 292.538H1286.71C1291.4 292.538 1295.2 296.246 1295.2 300.82V333.949C1295.2 338.523 1291.4 342.231 1286.71 342.231H1167.9C1163.21 342.231 1159.41 338.523 1159.41 333.949V300.82C1159.41 296.246 1163.21 292.538 1167.9 292.538Z" fill="url(#paint44_radial_403_7408)"/>
<path d="M1439.47 292.538H1320.66C1315.97 292.538 1312.17 296.246 1312.17 300.82V333.949C1312.17 338.523 1315.97 342.231 1320.66 342.231H1439.47C1444.16 342.231 1447.96 338.523 1447.96 333.949V300.82C1447.96 296.246 1444.16 292.538 1439.47 292.538Z" fill="url(#paint45_radial_403_7408)"/>
<path d="M217.377 226.282H98.5617C93.8746 226.282 90.075 229.99 90.075 234.564V267.692C90.075 272.266 93.8746 275.974 98.5617 275.974H217.377C222.064 275.974 225.863 272.266 225.863 267.692V234.564C225.863 229.99 222.064 226.282 217.377 226.282Z" fill="url(#paint46_radial_403_7408)"/>
<path d="M251.324 226.282H370.139C374.826 226.282 378.625 229.99 378.625 234.564V267.692C378.625 272.266 374.826 275.974 370.139 275.974H251.324C246.637 275.974 242.837 272.266 242.837 267.692V234.564C242.837 229.99 246.637 226.282 251.324 226.282Z" fill="url(#paint47_radial_403_7408)"/>
<path d="M522.901 226.282H404.086C399.399 226.282 395.599 229.99 395.599 234.564V267.692C395.599 272.266 399.399 275.974 404.086 275.974H522.901C527.588 275.974 531.387 272.266 531.387 267.692V234.564C531.387 229.99 527.588 226.282 522.901 226.282Z" fill="url(#paint48_radial_403_7408)"/>
<path d="M556.848 226.282H675.662C680.35 226.282 684.149 229.99 684.149 234.564V267.692C684.149 272.266 680.35 275.974 675.662 275.974H556.848C552.161 275.974 548.361 272.266 548.361 267.692V234.564C548.361 229.99 552.161 226.282 556.848 226.282Z" fill="url(#paint49_radial_403_7408)"/>
<path d="M828.424 226.282H709.61C704.922 226.282 701.123 229.99 701.123 234.564V267.692C701.123 272.266 704.922 275.974 709.61 275.974H828.424C833.112 275.974 836.911 272.266 836.911 267.692V234.564C836.911 229.99 833.112 226.282 828.424 226.282Z" fill="url(#paint50_radial_403_7408)"/>
<path d="M862.372 226.282H981.186C985.874 226.282 989.673 229.99 989.673 234.564V267.692C989.673 272.266 985.874 275.974 981.186 275.974H862.372C857.685 275.974 853.885 272.266 853.885 267.692V234.564C853.885 229.99 857.685 226.282 862.372 226.282Z" fill="url(#paint51_radial_403_7408)"/>
<path d="M1133.95 226.282H1015.13C1010.45 226.282 1006.65 229.99 1006.65 234.564V267.692C1006.65 272.266 1010.45 275.974 1015.13 275.974H1133.95C1138.64 275.974 1142.44 272.266 1142.44 267.692V234.564C1142.44 229.99 1138.64 226.282 1133.95 226.282Z" fill="url(#paint52_radial_403_7408)"/>
<path d="M1167.9 226.282H1286.71C1291.4 226.282 1295.2 229.99 1295.2 234.564V267.692C1295.2 272.266 1291.4 275.974 1286.71 275.974H1167.9C1163.21 275.974 1159.41 272.266 1159.41 267.692V234.564C1159.41 229.99 1163.21 226.282 1167.9 226.282Z" fill="url(#paint53_radial_403_7408)"/>
<path d="M1439.47 226.282H1320.66C1315.97 226.282 1312.17 229.99 1312.17 234.564V267.692C1312.17 272.266 1315.97 275.974 1320.66 275.974H1439.47C1444.16 275.974 1447.96 272.266 1447.96 267.692V234.564C1447.96 229.99 1444.16 226.282 1439.47 226.282Z" fill="url(#paint54_radial_403_7408)"/>
<path d="M217.377 160.026H98.5617C93.8746 160.026 90.075 163.734 90.075 168.308V201.436C90.075 206.01 93.8746 209.718 98.5617 209.718H217.377C222.064 209.718 225.863 206.01 225.863 201.436V168.308C225.863 163.734 222.064 160.026 217.377 160.026Z" fill="url(#paint55_radial_403_7408)"/>
<path d="M251.324 160.026H370.139C374.826 160.026 378.625 163.734 378.625 168.308V201.436C378.625 206.01 374.826 209.718 370.139 209.718H251.324C246.637 209.718 242.837 206.01 242.837 201.436V168.308C242.837 163.734 246.637 160.026 251.324 160.026Z" fill="url(#paint56_radial_403_7408)"/>
<path d="M522.901 160.026H404.086C399.399 160.026 395.599 163.734 395.599 168.308V201.436C395.599 206.01 399.399 209.718 404.086 209.718H522.901C527.588 209.718 531.387 206.01 531.387 201.436V168.308C531.387 163.734 527.588 160.026 522.901 160.026Z" fill="url(#paint57_radial_403_7408)"/>
<path d="M556.848 160.026H675.662C680.35 160.026 684.149 163.734 684.149 168.308V201.436C684.149 206.01 680.35 209.718 675.662 209.718H556.848C552.161 209.718 548.361 206.01 548.361 201.436V168.308C548.361 163.734 552.161 160.026 556.848 160.026Z" fill="url(#paint58_radial_403_7408)"/>
<path d="M828.424 160.026H709.61C704.922 160.026 701.123 163.734 701.123 168.308V201.436C701.123 206.01 704.922 209.718 709.61 209.718H828.424C833.112 209.718 836.911 206.01 836.911 201.436V168.308C836.911 163.734 833.112 160.026 828.424 160.026Z" fill="url(#paint59_radial_403_7408)"/>
<path d="M862.372 160.026H981.186C985.874 160.026 989.673 163.734 989.673 168.308V201.436C989.673 206.01 985.874 209.718 981.186 209.718H862.372C857.685 209.718 853.885 206.01 853.885 201.436V168.308C853.885 163.734 857.685 160.026 862.372 160.026Z" fill="url(#paint60_radial_403_7408)"/>
<path d="M1133.95 160.026H1015.13C1010.45 160.026 1006.65 163.734 1006.65 168.308V201.436C1006.65 206.01 1010.45 209.718 1015.13 209.718H1133.95C1138.64 209.718 1142.44 206.01 1142.44 201.436V168.308C1142.44 163.734 1138.64 160.026 1133.95 160.026Z" fill="url(#paint61_radial_403_7408)"/>
<path d="M1167.9 160.026H1286.71C1291.4 160.026 1295.2 163.734 1295.2 168.308V201.436C1295.2 206.01 1291.4 209.718 1286.71 209.718H1167.9C1163.21 209.718 1159.41 206.01 1159.41 201.436V168.308C1159.41 163.734 1163.21 160.026 1167.9 160.026Z" fill="url(#paint62_radial_403_7408)"/>
<path d="M1439.47 160.026H1320.66C1315.97 160.026 1312.17 163.734 1312.17 168.308V201.436C1312.17 206.01 1315.97 209.718 1320.66 209.718H1439.47C1444.16 209.718 1447.96 206.01 1447.96 201.436V168.308C1447.96 163.734 1444.16 160.026 1439.47 160.026Z" fill="url(#paint63_radial_403_7408)"/>
<path d="M217.377 93.7692H98.5617C93.8746 93.7692 90.075 97.4772 90.075 102.051V135.179C90.075 139.754 93.8746 143.462 98.5617 143.462H217.377C222.064 143.462 225.863 139.754 225.863 135.179V102.051C225.863 97.4772 222.064 93.7692 217.377 93.7692Z" fill="url(#paint64_radial_403_7408)"/>
<path d="M251.324 93.7692H370.139C374.826 93.7692 378.625 97.4772 378.625 102.051V135.179C378.625 139.754 374.826 143.462 370.139 143.462H251.324C246.637 143.462 242.837 139.754 242.837 135.179V102.051C242.837 97.4772 246.637 93.7692 251.324 93.7692Z" fill="url(#paint65_radial_403_7408)"/>
<path d="M522.901 93.7692H404.086C399.399 93.7692 395.599 97.4772 395.599 102.051V135.179C395.599 139.754 399.399 143.462 404.086 143.462H522.901C527.588 143.462 531.387 139.754 531.387 135.179V102.051C531.387 97.4772 527.588 93.7692 522.901 93.7692Z" fill="url(#paint66_radial_403_7408)"/>
<path d="M556.848 93.7692H675.662C680.35 93.7692 684.149 97.4772 684.149 102.051V135.179C684.149 139.754 680.35 143.462 675.662 143.462H556.848C552.161 143.462 548.361 139.754 548.361 135.179V102.051C548.361 97.4772 552.161 93.7692 556.848 93.7692Z" fill="url(#paint67_radial_403_7408)"/>
<path d="M828.424 93.7692H709.61C704.922 93.7692 701.123 97.4772 701.123 102.051V135.179C701.123 139.754 704.922 143.462 709.61 143.462H828.424C833.112 143.462 836.911 139.754 836.911 135.179V102.051C836.911 97.4772 833.112 93.7692 828.424 93.7692Z" fill="url(#paint68_radial_403_7408)"/>
<path d="M862.372 93.7692H981.186C985.874 93.7692 989.673 97.4772 989.673 102.051V135.179C989.673 139.754 985.874 143.462 981.186 143.462H862.372C857.685 143.462 853.885 139.754 853.885 135.179V102.051C853.885 97.4772 857.685 93.7692 862.372 93.7692Z" fill="url(#paint69_radial_403_7408)"/>
<path d="M1133.95 93.7692H1015.13C1010.45 93.7692 1006.65 97.4772 1006.65 102.051V135.179C1006.65 139.754 1010.45 143.462 1015.13 143.462H1133.95C1138.64 143.462 1142.44 139.754 1142.44 135.179V102.051C1142.44 97.4772 1138.64 93.7692 1133.95 93.7692Z" fill="url(#paint70_radial_403_7408)"/>
<path d="M1167.9 93.7692H1286.71C1291.4 93.7692 1295.2 97.4772 1295.2 102.051V135.179C1295.2 139.754 1291.4 143.462 1286.71 143.462H1167.9C1163.21 143.462 1159.41 139.754 1159.41 135.179V102.051C1159.41 97.4772 1163.21 93.7692 1167.9 93.7692Z" fill="url(#paint71_radial_403_7408)"/>
<path d="M1439.47 93.7692H1320.66C1315.97 93.7692 1312.17 97.4772 1312.17 102.051V135.179C1312.17 139.754 1315.97 143.462 1320.66 143.462H1439.47C1444.16 143.462 1447.96 139.754 1447.96 135.179V102.051C1447.96 97.4772 1444.16 93.7692 1439.47 93.7692Z" fill="url(#paint72_radial_403_7408)"/>
<path d="M217.377 27.5128H98.5617C93.8746 27.5128 90.075 31.2208 90.075 35.7949V68.9231C90.075 73.4971 93.8746 77.2051 98.5617 77.2051H217.377C222.064 77.2051 225.863 73.4971 225.863 68.9231V35.7949C225.863 31.2208 222.064 27.5128 217.377 27.5128Z" fill="url(#paint73_radial_403_7408)"/>
<path d="M251.324 27.5128H370.139C374.826 27.5128 378.625 31.2208 378.625 35.7949V68.9231C378.625 73.4971 374.826 77.2051 370.139 77.2051H251.324C246.637 77.2051 242.837 73.4971 242.837 68.9231V35.7949C242.837 31.2208 246.637 27.5128 251.324 27.5128Z" fill="url(#paint74_radial_403_7408)"/>
<path d="M522.901 27.5128H404.086C399.399 27.5128 395.599 31.2208 395.599 35.7949V68.9231C395.599 73.4971 399.399 77.2051 404.086 77.2051H522.901C527.588 77.2051 531.387 73.4971 531.387 68.9231V35.7949C531.387 31.2208 527.588 27.5128 522.901 27.5128Z" fill="url(#paint75_radial_403_7408)"/>
<path d="M556.848 27.5128H675.662C680.35 27.5128 684.149 31.2208 684.149 35.7949V68.9231C684.149 73.4971 680.35 77.2051 675.662 77.2051H556.848C552.161 77.2051 548.361 73.4971 548.361 68.9231V35.7949C548.361 31.2208 552.161 27.5128 556.848 27.5128Z" fill="url(#paint76_radial_403_7408)"/>
<path d="M828.424 27.5128H709.61C704.922 27.5128 701.123 31.2208 701.123 35.7949V68.9231C701.123 73.4971 704.922 77.2051 709.61 77.2051H828.424C833.112 77.2051 836.911 73.4971 836.911 68.9231V35.7949C836.911 31.2208 833.112 27.5128 828.424 27.5128Z" fill="url(#paint77_radial_403_7408)"/>
<path d="M862.372 27.5128H981.186C985.874 27.5128 989.673 31.2208 989.673 35.7949V68.9231C989.673 73.4971 985.874 77.2051 981.186 77.2051H862.372C857.685 77.2051 853.885 73.4971 853.885 68.9231V35.7949C853.885 31.2208 857.685 27.5128 862.372 27.5128Z" fill="url(#paint78_radial_403_7408)"/>
<path d="M1133.95 27.5128H1015.13C1010.45 27.5128 1006.65 31.2208 1006.65 35.7949V68.9231C1006.65 73.4971 1010.45 77.2051 1015.13 77.2051H1133.95C1138.64 77.2051 1142.44 73.4971 1142.44 68.9231V35.7949C1142.44 31.2208 1138.64 27.5128 1133.95 27.5128Z" fill="url(#paint79_radial_403_7408)"/>
<path d="M1167.9 27.5128H1286.71C1291.4 27.5128 1295.2 31.2208 1295.2 35.7949V68.9231C1295.2 73.4971 1291.4 77.2051 1286.71 77.2051H1167.9C1163.21 77.2051 1159.41 73.4971 1159.41 68.9231V35.7949C1159.41 31.2208 1163.21 27.5128 1167.9 27.5128Z" fill="url(#paint80_radial_403_7408)"/>
<path d="M1439.47 27.5128H1320.66C1315.97 27.5128 1312.17 31.2208 1312.17 35.7949V68.9231C1312.17 73.4971 1315.97 77.2051 1320.66 77.2051H1439.47C1444.16 77.2051 1447.96 73.4971 1447.96 68.9231V35.7949C1447.96 31.2208 1444.16 27.5128 1439.47 27.5128Z" fill="url(#paint81_radial_403_7408)"/>
<path d="M217.377 -38.7436H98.5617C93.8746 -38.7436 90.075 -35.0356 90.075 -30.4615V2.66666C90.075 7.24071 93.8746 10.9487 98.5617 10.9487H217.377C222.064 10.9487 225.863 7.24071 225.863 2.66666V-30.4615C225.863 -35.0356 222.064 -38.7436 217.377 -38.7436Z" fill="url(#paint82_radial_403_7408)"/>
<path d="M251.324 -38.7436H370.139C374.826 -38.7436 378.625 -35.0356 378.625 -30.4615V2.66666C378.625 7.24071 374.826 10.9487 370.139 10.9487H251.324C246.637 10.9487 242.837 7.24071 242.837 2.66666V-30.4615C242.837 -35.0356 246.637 -38.7436 251.324 -38.7436Z" fill="url(#paint83_radial_403_7408)"/>
<path d="M522.901 -38.7436H404.086C399.399 -38.7436 395.599 -35.0356 395.599 -30.4615V2.66666C395.599 7.24071 399.399 10.9487 404.086 10.9487H522.901C527.588 10.9487 531.387 7.24071 531.387 2.66666V-30.4615C531.387 -35.0356 527.588 -38.7436 522.901 -38.7436Z" fill="url(#paint84_radial_403_7408)"/>
<path d="M556.848 -38.7436H675.662C680.35 -38.7436 684.149 -35.0356 684.149 -30.4615V2.66666C684.149 7.24071 680.35 10.9487 675.662 10.9487H556.848C552.161 10.9487 548.361 7.24071 548.361 2.66666V-30.4615C548.361 -35.0356 552.161 -38.7436 556.848 -38.7436Z" fill="url(#paint85_radial_403_7408)"/>
<path d="M828.424 -38.7436H709.61C704.922 -38.7436 701.123 -35.0356 701.123 -30.4615V2.66666C701.123 7.24071 704.922 10.9487 709.61 10.9487H828.424C833.112 10.9487 836.911 7.24071 836.911 2.66666V-30.4615C836.911 -35.0356 833.112 -38.7436 828.424 -38.7436Z" fill="url(#paint86_radial_403_7408)"/>
<path d="M862.372 -38.7436H981.186C985.874 -38.7436 989.673 -35.0356 989.673 -30.4615V2.66666C989.673 7.24071 985.874 10.9487 981.186 10.9487H862.372C857.685 10.9487 853.885 7.24071 853.885 2.66666V-30.4615C853.885 -35.0356 857.685 -38.7436 862.372 -38.7436Z" fill="url(#paint87_radial_403_7408)"/>
<path d="M1133.95 -38.7436H1015.13C1010.45 -38.7436 1006.65 -35.0356 1006.65 -30.4615V2.66666C1006.65 7.24071 1010.45 10.9487 1015.13 10.9487H1133.95C1138.64 10.9487 1142.44 7.24071 1142.44 2.66666V-30.4615C1142.44 -35.0356 1138.64 -38.7436 1133.95 -38.7436Z" fill="url(#paint88_radial_403_7408)"/>
<path d="M1167.9 -38.7436H1286.71C1291.4 -38.7436 1295.2 -35.0356 1295.2 -30.4615V2.66666C1295.2 7.24071 1291.4 10.9487 1286.71 10.9487H1167.9C1163.21 10.9487 1159.41 7.24071 1159.41 2.66666V-30.4615C1159.41 -35.0356 1163.21 -38.7436 1167.9 -38.7436Z" fill="url(#paint89_radial_403_7408)"/>
<path d="M1439.47 -38.7436H1320.66C1315.97 -38.7436 1312.17 -35.0356 1312.17 -30.4615V2.66666C1312.17 7.24071 1315.97 10.9487 1320.66 10.9487H1439.47C1444.16 10.9487 1447.96 7.24071 1447.96 2.66666V-30.4615C1447.96 -35.0356 1444.16 -38.7436 1439.47 -38.7436Z" fill="url(#paint90_radial_403_7408)"/>
<path d="M217.377 -105H98.5617C93.8746 -105 90.075 -101.292 90.075 -96.7179V-63.5897C90.075 -59.0157 93.8746 -55.3077 98.5617 -55.3077H217.377C222.064 -55.3077 225.863 -59.0157 225.863 -63.5897V-96.7179C225.863 -101.292 222.064 -105 217.377 -105Z" fill="url(#paint91_radial_403_7408)"/>
<path d="M251.324 -105H370.139C374.826 -105 378.625 -101.292 378.625 -96.7179V-63.5897C378.625 -59.0157 374.826 -55.3077 370.139 -55.3077H251.324C246.637 -55.3077 242.837 -59.0157 242.837 -63.5897V-96.7179C242.837 -101.292 246.637 -105 251.324 -105Z" fill="url(#paint92_radial_403_7408)"/>
<path d="M522.901 -105H404.086C399.399 -105 395.599 -101.292 395.599 -96.7179V-63.5897C395.599 -59.0157 399.399 -55.3077 404.086 -55.3077H522.901C527.588 -55.3077 531.387 -59.0157 531.387 -63.5897V-96.7179C531.387 -101.292 527.588 -105 522.901 -105Z" fill="url(#paint93_radial_403_7408)"/>
<path d="M556.848 -105H675.662C680.35 -105 684.149 -101.292 684.149 -96.7179V-63.5897C684.149 -59.0157 680.35 -55.3077 675.662 -55.3077H556.848C552.161 -55.3077 548.361 -59.0157 548.361 -63.5897V-96.7179C548.361 -101.292 552.161 -105 556.848 -105Z" fill="url(#paint94_radial_403_7408)"/>
<path d="M828.424 -105H709.61C704.922 -105 701.123 -101.292 701.123 -96.7179V-63.5897C701.123 -59.0157 704.922 -55.3077 709.61 -55.3077H828.424C833.112 -55.3077 836.911 -59.0157 836.911 -63.5897V-96.7179C836.911 -101.292 833.112 -105 828.424 -105Z" fill="url(#paint95_radial_403_7408)"/>
<path d="M862.372 -105H981.186C985.874 -105 989.673 -101.292 989.673 -96.7179V-63.5897C989.673 -59.0157 985.874 -55.3077 981.186 -55.3077H862.372C857.685 -55.3077 853.885 -59.0157 853.885 -63.5897V-96.7179C853.885 -101.292 857.685 -105 862.372 -105Z" fill="url(#paint96_radial_403_7408)"/>
<path d="M1133.95 -105H1015.13C1010.45 -105 1006.65 -101.292 1006.65 -96.7179V-63.5897C1006.65 -59.0157 1010.45 -55.3077 1015.13 -55.3077H1133.95C1138.64 -55.3077 1142.44 -59.0157 1142.44 -63.5897V-96.7179C1142.44 -101.292 1138.64 -105 1133.95 -105Z" fill="url(#paint97_radial_403_7408)"/>
<path d="M1167.9 -105H1286.71C1291.4 -105 1295.2 -101.292 1295.2 -96.7179V-63.5897C1295.2 -59.0157 1291.4 -55.3077 1286.71 -55.3077H1167.9C1163.21 -55.3077 1159.41 -59.0157 1159.41 -63.5897V-96.7179C1159.41 -101.292 1163.21 -105 1167.9 -105Z" fill="url(#paint98_radial_403_7408)"/>
<path d="M1439.47 -105H1320.66C1315.97 -105 1312.17 -101.292 1312.17 -96.7179V-63.5897C1312.17 -59.0157 1315.97 -55.3077 1320.66 -55.3077H1439.47C1444.16 -55.3077 1447.96 -59.0157 1447.96 -63.5897V-96.7179C1447.96 -101.292 1444.16 -105 1439.47 -105Z" fill="url(#paint99_radial_403_7408)"/>
<path opacity="0.7" d="M-61.0305 426.708L-5.94628 412.378C-3.09641 411.637 -0.401022 410.395 2.0141 408.71L66.6227 363.638C70.7924 360.73 75.7542 359.17 80.8383 359.17H121.252C127.353 359.17 133.24 356.925 137.793 352.864L191.562 304.893C199.765 297.574 211.803 296.517 221.157 302.293L329.821 369.399C339.079 375.117 350.981 374.145 359.189 367L401.383 330.274C407.263 325.155 415.205 323.094 422.832 324.705L470.306 334.736C476.706 336.088 483.381 334.862 488.882 331.324L550.96 291.4C559.522 285.893 570.577 286.167 578.856 292.09L616.205 318.81C625.565 325.506 638.298 324.898 646.977 317.341L665.712 301.029C671.813 295.717 680.118 293.708 687.973 295.644L729.716 305.931C737.223 307.781 745.163 306.031 751.197 301.197L799.839 262.226C803.915 258.96 808.916 257.062 814.132 256.801L869.491 254.03C872.464 253.881 875.439 254.267 878.275 255.171L924.581 269.921C934.039 272.934 944.383 270.028 950.888 262.531L996.349 210.142C1003.34 202.087 1014.69 199.391 1024.55 203.442L1052.36 214.861C1110.47 238.723 1177.07 227.662 1224.35 186.299L1255.48 159.067C1264.51 151.164 1277.9 150.847 1287.29 158.314L1323.93 187.428C1331.09 193.116 1340.79 194.413 1349.19 190.806L1398.06 169.823C1401.59 168.306 1404.73 165.99 1407.21 163.056L1464.52 95.4257" stroke="url(#paint100_linear_403_7408)" stroke-width="3.31282" stroke-linecap="round" stroke-linejoin="round"/>
<path opacity="0.4" d="M-56.0613 391.923L1.71249 368.369C7.65661 365.946 14.308 365.917 20.2728 368.289L68.9082 387.627C75.7541 390.35 83.4551 389.893 89.9316 386.382L132.009 363.566C137.655 360.505 144.268 359.749 150.459 361.457L195.09 373.768C203.527 376.095 212.567 373.812 218.886 367.757L259.129 329.198C267.385 321.288 279.973 320.033 289.628 326.158L324.066 348.005C333.98 354.295 346.944 352.786 355.149 344.388L398.116 300.406C405.603 292.743 417.158 290.741 426.785 295.44L456.95 310.16C464.116 313.657 472.526 313.502 479.558 309.743L523.515 286.25C533.107 281.123 544.919 282.831 552.666 290.465L607.442 344.44C618.228 355.068 635.931 353.659 644.9 341.459L731.726 223.356C734.305 219.847 737.762 217.078 741.749 215.326L921.254 136.45C927.876 133.54 935.438 133.661 941.965 136.781L1098.01 211.374L1153.72 233.125C1177.26 242.313 1203.81 239.238 1224.63 224.915L1323.73 156.713" stroke="url(#paint101_linear_403_7408)" stroke-width="3.31282" stroke-linecap="round" stroke-linejoin="round"/>
<path d="M-61.0305 393.577L-6.55239 406.514C-1.16775 407.793 4.48967 407.237 9.52261 404.935L74.8939 375.036C78.1372 373.552 81.6619 372.785 85.2284 372.785H136.94C142.789 372.785 148.452 370.72 152.929 366.956L204.076 323.952C210.225 318.782 218.492 316.904 226.27 318.91L263.33 328.467C269.695 330.108 276.45 329.161 282.117 325.832L329.927 297.754C336.954 293.628 345.557 293.209 352.951 296.633L393.476 315.401C403.654 320.115 415.729 317.424 422.943 308.835L459.865 264.874C465.207 258.513 473.375 255.243 481.632 256.159L569.722 265.937C575.013 266.525 580.353 265.397 584.956 262.72L671.68 212.272C674.17 210.824 676.893 209.82 679.727 209.304L861.447 176.251C866.303 175.368 871.311 175.951 875.834 177.925L932.495 202.66C942.581 207.063 954.361 204.306 961.447 195.885L1012.44 135.278C1018.13 128.521 1026.97 125.289 1035.67 126.788L1138.39 144.485C1146.54 145.89 1154.86 143.142 1160.58 137.155L1197.49 98.4833C1204.09 91.5744 1214.06 89.0577 1223.15 92.0094L1261.66 104.526C1267.71 106.489 1274.27 106.064 1280.01 103.337L1328.7 80.2014C1333.17 78.0769 1338.17 77.3363 1343.07 78.0746L1397.62 86.3033C1401.44 86.8801 1405.35 86.5563 1409.02 85.3578L1464.52 67.2667" stroke="url(#paint102_linear_403_7408)" stroke-width="6.62564" stroke-linecap="round" stroke-linejoin="round"/>
<g filter="url(#filter0_b_403_7408)">
<g clip-path="url(#clip1_403_7408)">
<path d="M627.159 -8.62045C627.159 -30.484 627.159 -41.4158 633.951 -48.2079C640.743 -55 651.675 -55 673.538 -55H815.99C837.853 -55 848.785 -55 855.577 -48.2079C862.369 -41.4158 862.369 -30.484 862.369 -8.62051V557.872H627.159V-8.62045Z" fill="url(#paint103_linear_403_7408)"/>
<path d="M584.92 292.018C682.649 292.018 703.354 168.932 784.518 149.055C834.415 136.835 895.497 186.065 953.472 168.932" stroke="url(#paint104_linear_403_7408)" stroke-width="3.31282" stroke-linecap="round" stroke-linejoin="round"/>
<path opacity="0.7" d="M589.062 250.129C589.062 250.129 669.807 184.793 743.108 200.656C809.364 214.995 802.738 229.523 877.277 200.656" stroke="url(#paint105_linear_403_7408)" stroke-width="3.31282" stroke-linecap="round" stroke-linejoin="round"/>
<g filter="url(#filter1_d_403_7408)">
<path d="M590.718 236.528L685.723 182.386C720.485 162.575 764.583 171.327 802.983 182.569C824.017 188.727 849.497 190.261 877.277 179.502" stroke="url(#paint106_linear_403_7408)" stroke-width="8.28205" stroke-linecap="round" stroke-linejoin="round"/>
</g>
<circle opacity="0.2" cx="738.138" cy="165.303" r="92.759" fill="url(#paint107_radial_403_7408)"/>
<circle opacity="0.2" cx="736.482" cy="163.646" r="39.1764" fill="white" fill-opacity="0.6"/>
<circle cx="736.482" cy="163.646" r="13.2513" fill="white" fill-opacity="0.6"/>
</g>
</g>
<g style="mix-blend-mode:color-burn">
<rect width="1204" height="480" fill="#387FF5" fill-opacity="0.1"/>
</g>
<rect x="488" y="124" width="288" height="83" rx="41.5" fill="white" fill-opacity="0.2"/>
<rect x="503" y="138" width="258" height="56" rx="28" fill="white"/>
<path fill-rule="evenodd" clip-rule="evenodd" d="M540 156C540.323 157.503 541.497 158.677 543 159C541.497 159.323 540.323 160.497 540 162C539.677 160.497 538.503 159.323 537 159C538.503 158.677 539.677 157.503 540 156ZM530.072 156.2C530.984 160.445 534.299 163.761 538.544 164.672C534.299 165.584 530.984 168.899 530.072 173.144C529.161 168.899 525.845 165.584 521.6 164.672C525.845 163.761 529.161 160.445 530.072 156.2ZM543 172C540.996 171.57 539.43 170.004 539 168C538.57 170.004 537.004 171.57 535 172C537.004 172.43 538.57 173.996 539 176C539.43 173.996 540.996 172.43 543 172Z" fill="#387FF5"/>
<path d="M555.827 173H553.497L558.732 158.455H561.267L566.501 173H564.172L560.06 161.097H559.946L555.827 173ZM556.217 167.304H563.774V169.151H556.217V167.304ZM570.797 158.455V173H568.602V158.455H570.797ZM580.25 164.804V166.651H573.801V164.804H580.25ZM587.959 173H583.25V158.455H588.108C589.533 158.455 590.757 158.746 591.78 159.328C592.803 159.906 593.587 160.737 594.131 161.821C594.68 162.901 594.955 164.196 594.955 165.706C594.955 167.221 594.678 168.523 594.124 169.612C593.575 170.701 592.779 171.539 591.738 172.126C590.696 172.709 589.436 173 587.959 173ZM585.445 171.082H587.838C588.946 171.082 589.867 170.874 590.601 170.457C591.335 170.036 591.884 169.428 592.249 168.632C592.614 167.832 592.796 166.857 592.796 165.706C592.796 164.565 592.614 163.597 592.249 162.801C591.889 162.006 591.352 161.402 590.637 160.99C589.922 160.578 589.034 160.372 587.973 160.372H585.445V171.082ZM597.513 173V162.091H599.566V163.824H599.68C599.879 163.237 600.229 162.775 600.731 162.439C601.237 162.098 601.81 161.928 602.45 161.928C602.582 161.928 602.738 161.932 602.918 161.942C603.103 161.951 603.247 161.963 603.352 161.977V164.009C603.266 163.985 603.115 163.959 602.897 163.93C602.679 163.897 602.461 163.881 602.244 163.881C601.742 163.881 601.294 163.987 600.901 164.2C600.513 164.409 600.205 164.7 599.978 165.074C599.751 165.443 599.637 165.865 599.637 166.338V173H597.513ZM605.189 173V162.091H607.313V173H605.189ZM606.262 160.408C605.892 160.408 605.575 160.285 605.31 160.038C605.05 159.787 604.919 159.489 604.919 159.143C604.919 158.793 605.05 158.495 605.31 158.249C605.575 157.998 605.892 157.872 606.262 157.872C606.631 157.872 606.946 157.998 607.206 158.249C607.471 158.495 607.604 158.793 607.604 159.143C607.604 159.489 607.471 159.787 607.206 160.038C606.946 160.285 606.631 160.408 606.262 160.408ZM619.502 162.091L615.546 173H613.273L609.31 162.091H611.59L614.353 170.486H614.467L617.222 162.091H619.502ZM625.828 173.22C624.754 173.22 623.828 172.991 623.051 172.531C622.28 172.067 621.683 171.416 621.262 170.578C620.845 169.735 620.637 168.748 620.637 167.616C620.637 166.499 620.845 165.514 621.262 164.662C621.683 163.81 622.27 163.144 623.023 162.666C623.781 162.188 624.666 161.949 625.679 161.949C626.295 161.949 626.891 162.051 627.469 162.254C628.047 162.458 628.565 162.777 629.025 163.213C629.484 163.649 629.846 164.214 630.111 164.911C630.376 165.602 630.509 166.442 630.509 167.432V168.185H621.837V166.594H628.428C628.428 166.035 628.314 165.54 628.087 165.109C627.86 164.674 627.54 164.33 627.128 164.08C626.721 163.829 626.243 163.703 625.694 163.703C625.097 163.703 624.576 163.85 624.131 164.143C623.691 164.432 623.35 164.811 623.108 165.28C622.872 165.744 622.753 166.248 622.753 166.793V168.036C622.753 168.765 622.881 169.385 623.137 169.896C623.397 170.408 623.759 170.798 624.223 171.068C624.687 171.333 625.23 171.466 625.85 171.466C626.252 171.466 626.619 171.409 626.951 171.295C627.282 171.177 627.569 171.002 627.81 170.77C628.051 170.538 628.236 170.251 628.364 169.911L630.374 170.273C630.213 170.865 629.924 171.383 629.507 171.828C629.096 172.268 628.577 172.612 627.952 172.858C627.332 173.099 626.624 173.22 625.828 173.22ZM634.989 166.523V173H632.865V162.091H634.903V163.866H635.038C635.289 163.289 635.682 162.825 636.217 162.474C636.757 162.124 637.437 161.949 638.256 161.949C638.999 161.949 639.65 162.105 640.209 162.418C640.768 162.725 641.201 163.185 641.509 163.795C641.816 164.406 641.97 165.161 641.97 166.061V173H639.847V166.317C639.847 165.526 639.641 164.908 639.229 164.463C638.817 164.013 638.251 163.788 637.531 163.788C637.039 163.788 636.601 163.895 636.217 164.108C635.839 164.321 635.538 164.634 635.315 165.045C635.098 165.453 634.989 165.945 634.989 166.523ZM650.282 173V158.455H659.301V160.344H652.476V164.776H658.655V166.658H652.476V173H650.282ZM665.624 173.22C664.602 173.22 663.709 172.986 662.947 172.517C662.184 172.048 661.593 171.393 661.171 170.55C660.75 169.707 660.539 168.722 660.539 167.595C660.539 166.464 660.75 165.474 661.171 164.626C661.593 163.779 662.184 163.121 662.947 162.652C663.709 162.183 664.602 161.949 665.624 161.949C666.647 161.949 667.54 162.183 668.302 162.652C669.064 163.121 669.656 163.779 670.077 164.626C670.499 165.474 670.71 166.464 670.71 167.595C670.71 168.722 670.499 169.707 670.077 170.55C669.656 171.393 669.064 172.048 668.302 172.517C667.54 172.986 666.647 173.22 665.624 173.22ZM665.631 171.438C666.294 171.438 666.844 171.262 667.279 170.912C667.715 170.562 668.037 170.095 668.245 169.513C668.458 168.93 668.565 168.289 668.565 167.588C668.565 166.892 668.458 166.253 668.245 165.67C668.037 165.083 667.715 164.612 667.279 164.257C666.844 163.902 666.294 163.724 665.631 163.724C664.964 163.724 664.41 163.902 663.969 164.257C663.534 164.612 663.21 165.083 662.996 165.67C662.788 166.253 662.684 166.892 662.684 167.588C662.684 168.289 662.788 168.93 662.996 169.513C663.21 170.095 663.534 170.562 663.969 170.912C664.41 171.262 664.964 171.438 665.631 171.438ZM673.08 173V162.091H675.132V163.824H675.246C675.445 163.237 675.795 162.775 676.297 162.439C676.804 162.098 677.377 161.928 678.016 161.928C678.149 161.928 678.305 161.932 678.485 161.942C678.669 161.951 678.814 161.963 678.918 161.977V164.009C678.833 163.985 678.681 163.959 678.463 163.93C678.246 163.897 678.028 163.881 677.81 163.881C677.308 163.881 676.861 163.987 676.468 164.2C676.079 164.409 675.772 164.7 675.544 165.074C675.317 165.443 675.203 165.865 675.203 166.338V173H673.08ZM685.067 173.22C683.992 173.22 683.066 172.991 682.29 172.531C681.518 172.067 680.921 171.416 680.5 170.578C680.083 169.735 679.875 168.748 679.875 167.616C679.875 166.499 680.083 165.514 680.5 164.662C680.921 163.81 681.509 163.144 682.261 162.666C683.019 162.188 683.904 161.949 684.918 161.949C685.533 161.949 686.13 162.051 686.707 162.254C687.285 162.458 687.804 162.777 688.263 163.213C688.722 163.649 689.084 164.214 689.349 164.911C689.615 165.602 689.747 166.442 689.747 167.432V168.185H681.075V166.594H687.666C687.666 166.035 687.553 165.54 687.325 165.109C687.098 164.674 686.778 164.33 686.366 164.08C685.959 163.829 685.481 163.703 684.932 163.703C684.335 163.703 683.814 163.85 683.369 164.143C682.929 164.432 682.588 164.811 682.347 165.28C682.11 165.744 681.991 166.248 681.991 166.793V168.036C681.991 168.765 682.119 169.385 682.375 169.896C682.635 170.408 682.998 170.798 683.462 171.068C683.926 171.333 684.468 171.466 685.088 171.466C685.491 171.466 685.857 171.409 686.189 171.295C686.52 171.177 686.807 171.002 687.048 170.77C687.29 170.538 687.474 170.251 687.602 169.911L689.612 170.273C689.451 170.865 689.162 171.383 688.746 171.828C688.334 172.268 687.815 172.612 687.19 172.858C686.57 173.099 685.862 173.22 685.067 173.22ZM696.699 173.22C695.643 173.22 694.734 172.981 693.971 172.503C693.214 172.02 692.631 171.355 692.224 170.507C691.817 169.66 691.613 168.689 691.613 167.595C691.613 166.487 691.822 165.509 692.238 164.662C692.655 163.81 693.242 163.144 694 162.666C694.757 162.188 695.65 161.949 696.677 161.949C697.506 161.949 698.244 162.103 698.893 162.411C699.542 162.714 700.065 163.14 700.463 163.689C700.865 164.238 701.104 164.88 701.18 165.614H699.113C699 165.102 698.739 164.662 698.332 164.293C697.93 163.923 697.39 163.739 696.713 163.739C696.121 163.739 695.602 163.895 695.157 164.207C694.717 164.515 694.374 164.955 694.127 165.528C693.881 166.097 693.758 166.769 693.758 167.545C693.758 168.341 693.879 169.027 694.12 169.605C694.362 170.183 694.703 170.63 695.143 170.947C695.588 171.265 696.111 171.423 696.713 171.423C697.115 171.423 697.48 171.35 697.806 171.203C698.138 171.052 698.415 170.836 698.637 170.557C698.865 170.277 699.023 169.941 699.113 169.548H701.18C701.104 170.254 700.875 170.884 700.491 171.438C700.108 171.991 699.594 172.427 698.95 172.744C698.311 173.062 697.56 173.22 696.699 173.22ZM706.626 173.241C705.934 173.241 705.309 173.114 704.751 172.858C704.192 172.598 703.749 172.221 703.423 171.729C703.101 171.236 702.94 170.633 702.94 169.918C702.94 169.302 703.058 168.795 703.295 168.398C703.531 168 703.851 167.685 704.254 167.453C704.656 167.221 705.106 167.046 705.603 166.928C706.1 166.809 706.607 166.719 707.123 166.658C707.776 166.582 708.307 166.52 708.714 166.473C709.121 166.421 709.417 166.338 709.602 166.224C709.786 166.111 709.879 165.926 709.879 165.67V165.621C709.879 165 709.703 164.52 709.353 164.179C709.007 163.838 708.491 163.668 707.805 163.668C707.09 163.668 706.526 163.826 706.114 164.143C705.707 164.456 705.425 164.804 705.269 165.188L703.273 164.733C703.51 164.07 703.856 163.535 704.31 163.128C704.77 162.716 705.298 162.418 705.894 162.233C706.491 162.044 707.118 161.949 707.776 161.949C708.212 161.949 708.674 162.001 709.161 162.105C709.654 162.205 710.113 162.389 710.539 162.659C710.97 162.929 711.323 163.315 711.597 163.817C711.872 164.314 712.009 164.96 712.009 165.756V173H709.935V171.509H709.85C709.713 171.783 709.507 172.053 709.232 172.318C708.958 172.583 708.605 172.804 708.174 172.979C707.743 173.154 707.227 173.241 706.626 173.241ZM707.087 171.537C707.674 171.537 708.176 171.421 708.593 171.189C709.014 170.957 709.334 170.654 709.552 170.28C709.774 169.901 709.886 169.496 709.886 169.065V167.659C709.81 167.735 709.663 167.806 709.445 167.872C709.232 167.934 708.988 167.988 708.714 168.036C708.439 168.078 708.172 168.118 707.911 168.156C707.651 168.189 707.433 168.218 707.258 168.241C706.846 168.294 706.469 168.381 706.129 168.504C705.792 168.627 705.522 168.805 705.319 169.037C705.12 169.264 705.021 169.567 705.021 169.946C705.021 170.472 705.215 170.869 705.603 171.139C705.991 171.404 706.486 171.537 707.087 171.537ZM723.012 164.754L721.088 165.095C721.007 164.849 720.879 164.615 720.704 164.392C720.534 164.17 720.302 163.987 720.008 163.845C719.715 163.703 719.348 163.632 718.907 163.632C718.306 163.632 717.804 163.767 717.402 164.037C716.999 164.302 716.798 164.645 716.798 165.067C716.798 165.431 716.933 165.725 717.203 165.947C717.473 166.17 717.908 166.352 718.51 166.494L720.243 166.892C721.246 167.124 721.994 167.482 722.487 167.964C722.979 168.447 723.225 169.075 723.225 169.847C723.225 170.5 723.036 171.082 722.657 171.594C722.283 172.1 721.76 172.498 721.088 172.787C720.42 173.076 719.646 173.22 718.765 173.22C717.544 173.22 716.547 172.96 715.775 172.439C715.003 171.913 714.53 171.168 714.355 170.202L716.407 169.889C716.535 170.424 716.798 170.829 717.196 171.104C717.593 171.374 718.112 171.509 718.751 171.509C719.447 171.509 720.003 171.364 720.42 171.075C720.837 170.782 721.045 170.424 721.045 170.003C721.045 169.662 720.917 169.375 720.662 169.143C720.411 168.911 720.025 168.736 719.504 168.618L717.657 168.213C716.639 167.981 715.886 167.612 715.399 167.105C714.916 166.598 714.674 165.957 714.674 165.18C714.674 164.536 714.854 163.973 715.214 163.49C715.574 163.007 716.071 162.631 716.706 162.361C717.34 162.086 718.067 161.949 718.886 161.949C720.065 161.949 720.993 162.205 721.67 162.716C722.347 163.223 722.795 163.902 723.012 164.754ZM730.653 162.091V163.795H724.694V162.091H730.653ZM726.292 159.477H728.415V169.797C728.415 170.209 728.477 170.519 728.6 170.727C728.723 170.931 728.882 171.071 729.076 171.146C729.275 171.217 729.49 171.253 729.722 171.253C729.893 171.253 730.042 171.241 730.17 171.217C730.298 171.194 730.397 171.175 730.468 171.161L730.852 172.915C730.728 172.962 730.553 173.009 730.326 173.057C730.099 173.109 729.815 173.137 729.474 173.142C728.915 173.152 728.394 173.052 727.911 172.844C727.428 172.635 727.038 172.313 726.739 171.878C726.441 171.442 726.292 170.895 726.292 170.237V159.477ZM741.001 164.754L739.076 165.095C738.996 164.849 738.868 164.615 738.692 164.392C738.522 164.17 738.29 163.987 737.996 163.845C737.703 163.703 737.336 163.632 736.896 163.632C736.294 163.632 735.792 163.767 735.39 164.037C734.987 164.302 734.786 164.645 734.786 165.067C734.786 165.431 734.921 165.725 735.191 165.947C735.461 166.17 735.897 166.352 736.498 166.494L738.231 166.892C739.235 167.124 739.983 167.482 740.475 167.964C740.968 168.447 741.214 169.075 741.214 169.847C741.214 170.5 741.024 171.082 740.646 171.594C740.272 172.1 739.748 172.498 739.076 172.787C738.408 173.076 737.634 173.22 736.754 173.22C735.532 173.22 734.535 172.96 733.763 172.439C732.992 171.913 732.518 171.168 732.343 170.202L734.396 169.889C734.523 170.424 734.786 170.829 735.184 171.104C735.582 171.374 736.1 171.509 736.739 171.509C737.435 171.509 737.992 171.364 738.408 171.075C738.825 170.782 739.033 170.424 739.033 170.003C739.033 169.662 738.906 169.375 738.65 169.143C738.399 168.911 738.013 168.736 737.492 168.618L735.646 168.213C734.628 167.981 733.875 167.612 733.387 167.105C732.904 166.598 732.663 165.957 732.663 165.18C732.663 164.536 732.843 163.973 733.202 163.49C733.562 163.007 734.059 162.631 734.694 162.361C735.328 162.086 736.055 161.949 736.874 161.949C738.053 161.949 738.981 162.205 739.658 162.716C740.335 163.223 740.783 163.902 741.001 164.754Z" fill="#1C1F25"/>
</g>
<defs>
<filter id="filter0_b_403_7408" x="603.969" y="-78.1897" width="281.59" height="659.251" filterUnits="userSpaceOnUse" color-interpolation-filters="sRGB">
<feFlood flood-opacity="0" result="BackgroundImageFix"/>
<feGaussianBlur in="BackgroundImageFix" stdDeviation="11.5949"/>
<feComposite in2="SourceAlpha" operator="in" result="effect1_backgroundBlur_403_7408"/>
<feBlend mode="normal" in="SourceGraphic" in2="effect1_backgroundBlur_403_7408" result="shape"/>
</filter>
<filter id="filter1_d_403_7408" x="561.73" y="154.866" width="344.535" height="123.901" filterUnits="userSpaceOnUse" color-interpolation-filters="sRGB">
<feFlood flood-opacity="0" result="BackgroundImageFix"/>
<feColorMatrix in="SourceAlpha" type="matrix" values="0 0 0 0 0 0 0 0 0 0 0 0 0 0 0 0 0 0 127 0" result="hardAlpha"/>
<feOffset dy="13.2513"/>
<feGaussianBlur stdDeviation="12.4231"/>
<feColorMatrix type="matrix" values="0 0 0 0 0.826769 0 0 0 0 0.822018 0 0 0 0 0.914668 0 0 0 0.18 0"/>
<feBlend mode="normal" in2="BackgroundImageFix" result="effect1_dropShadow_403_7408"/>
<feBlend mode="normal" in="SourceGraphic" in2="effect1_dropShadow_403_7408" result="shape"/>
</filter>
<radialGradient id="paint0_radial_403_7408" cx="0" cy="0" r="1" gradientUnits="userSpaceOnUse" gradientTransform="translate(536.851 416.736) rotate(180) scale(732.393 354.938)">
<stop stop-color="#EDECF3" stop-opacity="0.23"/>
<stop offset="1" stop-color="#E6E5F5" stop-opacity="0.01"/>
<stop offset="1" stop-color="#E6E5F5" stop-opacity="0.01"/>
</radialGradient>
<radialGradient id="paint1_radial_403_7408" cx="0" cy="0" r="1" gradientUnits="userSpaceOnUse" gradientTransform="translate(536.851 416.736) rotate(180) scale(732.393 354.938)">
<stop stop-color="#EDECF3" stop-opacity="0.23"/>
<stop offset="1" stop-color="#E6E5F5" stop-opacity="0.01"/>
<stop offset="1" stop-color="#E6E5F5" stop-opacity="0.01"/>
</radialGradient>
<radialGradient id="paint2_radial_403_7408" cx="0" cy="0" r="1" gradientUnits="userSpaceOnUse" gradientTransform="translate(536.851 416.736) rotate(180) scale(732.393 354.938)">
<stop stop-color="#EDECF3" stop-opacity="0.23"/>
<stop offset="1" stop-color="#E6E5F5" stop-opacity="0.01"/>
<stop offset="1" stop-color="#E6E5F5" stop-opacity="0.01"/>
</radialGradient>
<radialGradient id="paint3_radial_403_7408" cx="0" cy="0" r="1" gradientUnits="userSpaceOnUse" gradientTransform="translate(536.851 416.736) rotate(180) scale(732.393 354.938)">
<stop stop-color="#EDECF3" stop-opacity="0.23"/>
<stop offset="1" stop-color="#E6E5F5" stop-opacity="0.01"/>
<stop offset="1" stop-color="#E6E5F5" stop-opacity="0.01"/>
</radialGradient>
<radialGradient id="paint4_radial_403_7408" cx="0" cy="0" r="1" gradientUnits="userSpaceOnUse" gradientTransform="translate(536.851 416.736) rotate(180) scale(732.393 354.938)">
<stop stop-color="#EDECF3" stop-opacity="0.23"/>
<stop offset="1" stop-color="#E6E5F5" stop-opacity="0.01"/>
<stop offset="1" stop-color="#E6E5F5" stop-opacity="0.01"/>
</radialGradient>
<radialGradient id="paint5_radial_403_7408" cx="0" cy="0" r="1" gradientUnits="userSpaceOnUse" gradientTransform="translate(536.851 416.736) rotate(180) scale(732.393 354.938)">
<stop stop-color="#EDECF3" stop-opacity="0.23"/>
<stop offset="1" stop-color="#E6E5F5" stop-opacity="0.01"/>
<stop offset="1" stop-color="#E6E5F5" stop-opacity="0.01"/>
</radialGradient>
<radialGradient id="paint6_radial_403_7408" cx="0" cy="0" r="1" gradientUnits="userSpaceOnUse" gradientTransform="translate(536.851 416.736) rotate(180) scale(732.393 354.938)">
<stop stop-color="#EDECF3" stop-opacity="0.23"/>
<stop offset="1" stop-color="#E6E5F5" stop-opacity="0.01"/>
<stop offset="1" stop-color="#E6E5F5" stop-opacity="0.01"/>
</radialGradient>
<radialGradient id="paint7_radial_403_7408" cx="0" cy="0" r="1" gradientUnits="userSpaceOnUse" gradientTransform="translate(536.851 416.736) rotate(180) scale(732.393 354.938)">
<stop stop-color="#EDECF3" stop-opacity="0.23"/>
<stop offset="1" stop-color="#E6E5F5" stop-opacity="0.01"/>
<stop offset="1" stop-color="#E6E5F5" stop-opacity="0.01"/>
</radialGradient>
<radialGradient id="paint8_radial_403_7408" cx="0" cy="0" r="1" gradientUnits="userSpaceOnUse" gradientTransform="translate(536.851 416.736) rotate(180) scale(732.393 354.938)">
<stop stop-color="#EDECF3" stop-opacity="0.23"/>
<stop offset="1" stop-color="#E6E5F5" stop-opacity="0.01"/>
<stop offset="1" stop-color="#E6E5F5" stop-opacity="0.01"/>
</radialGradient>
<radialGradient id="paint9_radial_403_7408" cx="0" cy="0" r="1" gradientUnits="userSpaceOnUse" gradientTransform="translate(536.851 416.736) rotate(180) scale(732.393 354.938)">
<stop stop-color="#EDECF3" stop-opacity="0.23"/>
<stop offset="1" stop-color="#E6E5F5" stop-opacity="0.01"/>
<stop offset="1" stop-color="#E6E5F5" stop-opacity="0.01"/>
</radialGradient>
<radialGradient id="paint10_radial_403_7408" cx="0" cy="0" r="1" gradientUnits="userSpaceOnUse" gradientTransform="translate(536.851 416.736) rotate(180) scale(732.393 354.938)">
<stop stop-color="#EDECF3" stop-opacity="0.23"/>
<stop offset="1" stop-color="#E6E5F5" stop-opacity="0.01"/>
<stop offset="1" stop-color="#E6E5F5" stop-opacity="0.01"/>
</radialGradient>
<radialGradient id="paint11_radial_403_7408" cx="0" cy="0" r="1" gradientUnits="userSpaceOnUse" gradientTransform="translate(536.851 416.736) rotate(180) scale(732.393 354.938)">
<stop stop-color="#EDECF3" stop-opacity="0.23"/>
<stop offset="1" stop-color="#E6E5F5" stop-opacity="0.01"/>
<stop offset="1" stop-color="#E6E5F5" stop-opacity="0.01"/>
</radialGradient>
<radialGradient id="paint12_radial_403_7408" cx="0" cy="0" r="1" gradientUnits="userSpaceOnUse" gradientTransform="translate(536.851 416.736) rotate(180) scale(732.393 354.938)">
<stop stop-color="#EDECF3" stop-opacity="0.23"/>
<stop offset="1" stop-color="#E6E5F5" stop-opacity="0.01"/>
<stop offset="1" stop-color="#E6E5F5" stop-opacity="0.01"/>
</radialGradient>
<radialGradient id="paint13_radial_403_7408" cx="0" cy="0" r="1" gradientUnits="userSpaceOnUse" gradientTransform="translate(536.851 416.736) rotate(180) scale(732.393 354.938)">
<stop stop-color="#EDECF3" stop-opacity="0.23"/>
<stop offset="1" stop-color="#E6E5F5" stop-opacity="0.01"/>
<stop offset="1" stop-color="#E6E5F5" stop-opacity="0.01"/>
</radialGradient>
<radialGradient id="paint14_radial_403_7408" cx="0" cy="0" r="1" gradientUnits="userSpaceOnUse" gradientTransform="translate(536.851 416.736) rotate(180) scale(732.393 354.938)">
<stop stop-color="#EDECF3" stop-opacity="0.23"/>
<stop offset="1" stop-color="#E6E5F5" stop-opacity="0.01"/>
<stop offset="1" stop-color="#E6E5F5" stop-opacity="0.01"/>
</radialGradient>
<radialGradient id="paint15_radial_403_7408" cx="0" cy="0" r="1" gradientUnits="userSpaceOnUse" gradientTransform="translate(536.851 416.736) rotate(180) scale(732.393 354.938)">
<stop stop-color="#EDECF3" stop-opacity="0.23"/>
<stop offset="1" stop-color="#E6E5F5" stop-opacity="0.01"/>
<stop offset="1" stop-color="#E6E5F5" stop-opacity="0.01"/>
</radialGradient>
<radialGradient id="paint16_radial_403_7408" cx="0" cy="0" r="1" gradientUnits="userSpaceOnUse" gradientTransform="translate(536.851 416.736) rotate(180) scale(732.393 354.938)">
<stop stop-color="#EDECF3" stop-opacity="0.23"/>
<stop offset="1" stop-color="#E6E5F5" stop-opacity="0.01"/>
<stop offset="1" stop-color="#E6E5F5" stop-opacity="0.01"/>
</radialGradient>
<radialGradient id="paint17_radial_403_7408" cx="0" cy="0" r="1" gradientUnits="userSpaceOnUse" gradientTransform="translate(536.851 416.736) rotate(180) scale(732.393 354.938)">
<stop stop-color="#EDECF3" stop-opacity="0.23"/>
<stop offset="1" stop-color="#E6E5F5" stop-opacity="0.01"/>
<stop offset="1" stop-color="#E6E5F5" stop-opacity="0.01"/>
</radialGradient>
<radialGradient id="paint18_radial_403_7408" cx="0" cy="0" r="1" gradientUnits="userSpaceOnUse" gradientTransform="translate(536.851 416.736) rotate(180) scale(732.393 354.938)">
<stop stop-color="#EDECF3" stop-opacity="0.23"/>
<stop offset="1" stop-color="#E6E5F5" stop-opacity="0.01"/>
<stop offset="1" stop-color="#E6E5F5" stop-opacity="0.01"/>
</radialGradient>
<radialGradient id="paint19_radial_403_7408" cx="0" cy="0" r="1" gradientUnits="userSpaceOnUse" gradientTransform="translate(536.851 416.736) rotate(180) scale(732.393 354.938)">
<stop stop-color="#EDECF3" stop-opacity="0.23"/>
<stop offset="1" stop-color="#E6E5F5" stop-opacity="0.01"/>
<stop offset="1" stop-color="#E6E5F5" stop-opacity="0.01"/>
</radialGradient>
<radialGradient id="paint20_radial_403_7408" cx="0" cy="0" r="1" gradientUnits="userSpaceOnUse" gradientTransform="translate(536.851 416.736) rotate(180) scale(732.393 354.938)">
<stop stop-color="#EDECF3" stop-opacity="0.23"/>
<stop offset="1" stop-color="#E6E5F5" stop-opacity="0.01"/>
<stop offset="1" stop-color="#E6E5F5" stop-opacity="0.01"/>
</radialGradient>
<radialGradient id="paint21_radial_403_7408" cx="0" cy="0" r="1" gradientUnits="userSpaceOnUse" gradientTransform="translate(536.851 416.736) rotate(180) scale(732.393 354.938)">
<stop stop-color="#EDECF3" stop-opacity="0.23"/>
<stop offset="1" stop-color="#E6E5F5" stop-opacity="0.01"/>
<stop offset="1" stop-color="#E6E5F5" stop-opacity="0.01"/>
</radialGradient>
<radialGradient id="paint22_radial_403_7408" cx="0" cy="0" r="1" gradientUnits="userSpaceOnUse" gradientTransform="translate(536.851 416.736) rotate(180) scale(732.393 354.938)">
<stop stop-color="#EDECF3" stop-opacity="0.23"/>
<stop offset="1" stop-color="#E6E5F5" stop-opacity="0.01"/>
<stop offset="1" stop-color="#E6E5F5" stop-opacity="0.01"/>
</radialGradient>
<radialGradient id="paint23_radial_403_7408" cx="0" cy="0" r="1" gradientUnits="userSpaceOnUse" gradientTransform="translate(536.851 416.736) rotate(180) scale(732.393 354.938)">
<stop stop-color="#EDECF3" stop-opacity="0.23"/>
<stop offset="1" stop-color="#E6E5F5" stop-opacity="0.01"/>
<stop offset="1" stop-color="#E6E5F5" stop-opacity="0.01"/>
</radialGradient>
<radialGradient id="paint24_radial_403_7408" cx="0" cy="0" r="1" gradientUnits="userSpaceOnUse" gradientTransform="translate(536.851 416.736) rotate(180) scale(732.393 354.938)">
<stop stop-color="#EDECF3" stop-opacity="0.23"/>
<stop offset="1" stop-color="#E6E5F5" stop-opacity="0.01"/>
<stop offset="1" stop-color="#E6E5F5" stop-opacity="0.01"/>
</radialGradient>
<radialGradient id="paint25_radial_403_7408" cx="0" cy="0" r="1" gradientUnits="userSpaceOnUse" gradientTransform="translate(536.851 416.736) rotate(180) scale(732.393 354.938)">
<stop stop-color="#EDECF3" stop-opacity="0.23"/>
<stop offset="1" stop-color="#E6E5F5" stop-opacity="0.01"/>
<stop offset="1" stop-color="#E6E5F5" stop-opacity="0.01"/>
</radialGradient>
<radialGradient id="paint26_radial_403_7408" cx="0" cy="0" r="1" gradientUnits="userSpaceOnUse" gradientTransform="translate(536.851 416.736) rotate(180) scale(732.393 354.938)">
<stop stop-color="#EDECF3" stop-opacity="0.23"/>
<stop offset="1" stop-color="#E6E5F5" stop-opacity="0.01"/>
<stop offset="1" stop-color="#E6E5F5" stop-opacity="0.01"/>
</radialGradient>
<radialGradient id="paint27_radial_403_7408" cx="0" cy="0" r="1" gradientUnits="userSpaceOnUse" gradientTransform="translate(536.851 416.736) rotate(180) scale(732.393 354.938)">
<stop stop-color="#EDECF3" stop-opacity="0.23"/>
<stop offset="1" stop-color="#E6E5F5" stop-opacity="0.01"/>
<stop offset="1" stop-color="#E6E5F5" stop-opacity="0.01"/>
</radialGradient>
<radialGradient id="paint28_radial_403_7408" cx="0" cy="0" r="1" gradientUnits="userSpaceOnUse" gradientTransform="translate(536.851 416.736) rotate(180) scale(732.393 354.938)">
<stop stop-color="#EDECF3" stop-opacity="0.23"/>
<stop offset="1" stop-color="#E6E5F5" stop-opacity="0.01"/>
<stop offset="1" stop-color="#E6E5F5" stop-opacity="0.01"/>
</radialGradient>
<radialGradient id="paint29_radial_403_7408" cx="0" cy="0" r="1" gradientUnits="userSpaceOnUse" gradientTransform="translate(536.851 416.736) rotate(180) scale(732.393 354.938)">
<stop stop-color="#EDECF3" stop-opacity="0.23"/>
<stop offset="1" stop-color="#E6E5F5" stop-opacity="0.01"/>
<stop offset="1" stop-color="#E6E5F5" stop-opacity="0.01"/>
</radialGradient>
<radialGradient id="paint30_radial_403_7408" cx="0" cy="0" r="1" gradientUnits="userSpaceOnUse" gradientTransform="translate(536.851 416.736) rotate(180) scale(732.393 354.938)">
<stop stop-color="#EDECF3" stop-opacity="0.23"/>
<stop offset="1" stop-color="#E6E5F5" stop-opacity="0.01"/>
<stop offset="1" stop-color="#E6E5F5" stop-opacity="0.01"/>
</radialGradient>
<radialGradient id="paint31_radial_403_7408" cx="0" cy="0" r="1" gradientUnits="userSpaceOnUse" gradientTransform="translate(536.851 416.736) rotate(180) scale(732.393 354.938)">
<stop stop-color="#EDECF3" stop-opacity="0.23"/>
<stop offset="1" stop-color="#E6E5F5" stop-opacity="0.01"/>
<stop offset="1" stop-color="#E6E5F5" stop-opacity="0.01"/>
</radialGradient>
<radialGradient id="paint32_radial_403_7408" cx="0" cy="0" r="1" gradientUnits="userSpaceOnUse" gradientTransform="translate(536.851 416.736) rotate(180) scale(732.393 354.938)">
<stop stop-color="#EDECF3" stop-opacity="0.23"/>
<stop offset="1" stop-color="#E6E5F5" stop-opacity="0.01"/>
<stop offset="1" stop-color="#E6E5F5" stop-opacity="0.01"/>
</radialGradient>
<radialGradient id="paint33_radial_403_7408" cx="0" cy="0" r="1" gradientUnits="userSpaceOnUse" gradientTransform="translate(536.851 416.736) rotate(180) scale(732.393 354.938)">
<stop stop-color="#EDECF3" stop-opacity="0.23"/>
<stop offset="1" stop-color="#E6E5F5" stop-opacity="0.01"/>
<stop offset="1" stop-color="#E6E5F5" stop-opacity="0.01"/>
</radialGradient>
<radialGradient id="paint34_radial_403_7408" cx="0" cy="0" r="1" gradientUnits="userSpaceOnUse" gradientTransform="translate(536.851 416.736) rotate(180) scale(732.393 354.938)">
<stop stop-color="#EDECF3" stop-opacity="0.23"/>
<stop offset="1" stop-color="#E6E5F5" stop-opacity="0.01"/>
<stop offset="1" stop-color="#E6E5F5" stop-opacity="0.01"/>
</radialGradient>
<radialGradient id="paint35_radial_403_7408" cx="0" cy="0" r="1" gradientUnits="userSpaceOnUse" gradientTransform="translate(536.851 416.736) rotate(180) scale(732.393 354.938)">
<stop stop-color="#EDECF3" stop-opacity="0.23"/>
<stop offset="1" stop-color="#E6E5F5" stop-opacity="0.01"/>
<stop offset="1" stop-color="#E6E5F5" stop-opacity="0.01"/>
</radialGradient>
<radialGradient id="paint36_radial_403_7408" cx="0" cy="0" r="1" gradientUnits="userSpaceOnUse" gradientTransform="translate(536.851 416.736) rotate(180) scale(732.393 354.938)">
<stop stop-color="#EDECF3" stop-opacity="0.23"/>
<stop offset="1" stop-color="#E6E5F5" stop-opacity="0.01"/>
<stop offset="1" stop-color="#E6E5F5" stop-opacity="0.01"/>
</radialGradient>
<radialGradient id="paint37_radial_403_7408" cx="0" cy="0" r="1" gradientUnits="userSpaceOnUse" gradientTransform="translate(536.851 416.736) rotate(180) scale(732.393 354.938)">
<stop stop-color="#EDECF3" stop-opacity="0.23"/>
<stop offset="1" stop-color="#E6E5F5" stop-opacity="0.01"/>
<stop offset="1" stop-color="#E6E5F5" stop-opacity="0.01"/>
</radialGradient>
<radialGradient id="paint38_radial_403_7408" cx="0" cy="0" r="1" gradientUnits="userSpaceOnUse" gradientTransform="translate(536.851 416.736) rotate(180) scale(732.393 354.938)">
<stop stop-color="#EDECF3" stop-opacity="0.23"/>
<stop offset="1" stop-color="#E6E5F5" stop-opacity="0.01"/>
<stop offset="1" stop-color="#E6E5F5" stop-opacity="0.01"/>
</radialGradient>
<radialGradient id="paint39_radial_403_7408" cx="0" cy="0" r="1" gradientUnits="userSpaceOnUse" gradientTransform="translate(536.851 416.736) rotate(180) scale(732.393 354.938)">
<stop stop-color="#EDECF3" stop-opacity="0.23"/>
<stop offset="1" stop-color="#E6E5F5" stop-opacity="0.01"/>
<stop offset="1" stop-color="#E6E5F5" stop-opacity="0.01"/>
</radialGradient>
<radialGradient id="paint40_radial_403_7408" cx="0" cy="0" r="1" gradientUnits="userSpaceOnUse" gradientTransform="translate(536.851 416.736) rotate(180) scale(732.393 354.938)">
<stop stop-color="#EDECF3" stop-opacity="0.23"/>
<stop offset="1" stop-color="#E6E5F5" stop-opacity="0.01"/>
<stop offset="1" stop-color="#E6E5F5" stop-opacity="0.01"/>
</radialGradient>
<radialGradient id="paint41_radial_403_7408" cx="0" cy="0" r="1" gradientUnits="userSpaceOnUse" gradientTransform="translate(536.851 416.736) rotate(180) scale(732.393 354.938)">
<stop stop-color="#EDECF3" stop-opacity="0.23"/>
<stop offset="1" stop-color="#E6E5F5" stop-opacity="0.01"/>
<stop offset="1" stop-color="#E6E5F5" stop-opacity="0.01"/>
</radialGradient>
<radialGradient id="paint42_radial_403_7408" cx="0" cy="0" r="1" gradientUnits="userSpaceOnUse" gradientTransform="translate(536.851 416.736) rotate(180) scale(732.393 354.938)">
<stop stop-color="#EDECF3" stop-opacity="0.23"/>
<stop offset="1" stop-color="#E6E5F5" stop-opacity="0.01"/>
<stop offset="1" stop-color="#E6E5F5" stop-opacity="0.01"/>
</radialGradient>
<radialGradient id="paint43_radial_403_7408" cx="0" cy="0" r="1" gradientUnits="userSpaceOnUse" gradientTransform="translate(536.851 416.736) rotate(180) scale(732.393 354.938)">
<stop stop-color="#EDECF3" stop-opacity="0.23"/>
<stop offset="1" stop-color="#E6E5F5" stop-opacity="0.01"/>
<stop offset="1" stop-color="#E6E5F5" stop-opacity="0.01"/>
</radialGradient>
<radialGradient id="paint44_radial_403_7408" cx="0" cy="0" r="1" gradientUnits="userSpaceOnUse" gradientTransform="translate(536.851 416.736) rotate(180) scale(732.393 354.938)">
<stop stop-color="#EDECF3" stop-opacity="0.23"/>
<stop offset="1" stop-color="#E6E5F5" stop-opacity="0.01"/>
<stop offset="1" stop-color="#E6E5F5" stop-opacity="0.01"/>
</radialGradient>
<radialGradient id="paint45_radial_403_7408" cx="0" cy="0" r="1" gradientUnits="userSpaceOnUse" gradientTransform="translate(536.851 416.736) rotate(180) scale(732.393 354.938)">
<stop stop-color="#EDECF3" stop-opacity="0.23"/>
<stop offset="1" stop-color="#E6E5F5" stop-opacity="0.01"/>
<stop offset="1" stop-color="#E6E5F5" stop-opacity="0.01"/>
</radialGradient>
<radialGradient id="paint46_radial_403_7408" cx="0" cy="0" r="1" gradientUnits="userSpaceOnUse" gradientTransform="translate(536.851 416.736) rotate(180) scale(732.393 354.938)">
<stop stop-color="#EDECF3" stop-opacity="0.23"/>
<stop offset="1" stop-color="#E6E5F5" stop-opacity="0.01"/>
<stop offset="1" stop-color="#E6E5F5" stop-opacity="0.01"/>
</radialGradient>
<radialGradient id="paint47_radial_403_7408" cx="0" cy="0" r="1" gradientUnits="userSpaceOnUse" gradientTransform="translate(536.851 416.736) rotate(180) scale(732.393 354.938)">
<stop stop-color="#EDECF3" stop-opacity="0.23"/>
<stop offset="1" stop-color="#E6E5F5" stop-opacity="0.01"/>
<stop offset="1" stop-color="#E6E5F5" stop-opacity="0.01"/>
</radialGradient>
<radialGradient id="paint48_radial_403_7408" cx="0" cy="0" r="1" gradientUnits="userSpaceOnUse" gradientTransform="translate(536.851 416.736) rotate(180) scale(732.393 354.938)">
<stop stop-color="#EDECF3" stop-opacity="0.23"/>
<stop offset="1" stop-color="#E6E5F5" stop-opacity="0.01"/>
<stop offset="1" stop-color="#E6E5F5" stop-opacity="0.01"/>
</radialGradient>
<radialGradient id="paint49_radial_403_7408" cx="0" cy="0" r="1" gradientUnits="userSpaceOnUse" gradientTransform="translate(536.851 416.736) rotate(180) scale(732.393 354.938)">
<stop stop-color="#EDECF3" stop-opacity="0.23"/>
<stop offset="1" stop-color="#E6E5F5" stop-opacity="0.01"/>
<stop offset="1" stop-color="#E6E5F5" stop-opacity="0.01"/>
</radialGradient>
<radialGradient id="paint50_radial_403_7408" cx="0" cy="0" r="1" gradientUnits="userSpaceOnUse" gradientTransform="translate(536.851 416.736) rotate(180) scale(732.393 354.938)">
<stop stop-color="#EDECF3" stop-opacity="0.23"/>
<stop offset="1" stop-color="#E6E5F5" stop-opacity="0.01"/>
<stop offset="1" stop-color="#E6E5F5" stop-opacity="0.01"/>
</radialGradient>
<radialGradient id="paint51_radial_403_7408" cx="0" cy="0" r="1" gradientUnits="userSpaceOnUse" gradientTransform="translate(536.851 416.736) rotate(180) scale(732.393 354.938)">
<stop stop-color="#EDECF3" stop-opacity="0.23"/>
<stop offset="1" stop-color="#E6E5F5" stop-opacity="0.01"/>
<stop offset="1" stop-color="#E6E5F5" stop-opacity="0.01"/>
</radialGradient>
<radialGradient id="paint52_radial_403_7408" cx="0" cy="0" r="1" gradientUnits="userSpaceOnUse" gradientTransform="translate(536.851 416.736) rotate(180) scale(732.393 354.938)">
<stop stop-color="#EDECF3" stop-opacity="0.23"/>
<stop offset="1" stop-color="#E6E5F5" stop-opacity="0.01"/>
<stop offset="1" stop-color="#E6E5F5" stop-opacity="0.01"/>
</radialGradient>
<radialGradient id="paint53_radial_403_7408" cx="0" cy="0" r="1" gradientUnits="userSpaceOnUse" gradientTransform="translate(536.851 416.736) rotate(180) scale(732.393 354.938)">
<stop stop-color="#EDECF3" stop-opacity="0.23"/>
<stop offset="1" stop-color="#E6E5F5" stop-opacity="0.01"/>
<stop offset="1" stop-color="#E6E5F5" stop-opacity="0.01"/>
</radialGradient>
<radialGradient id="paint54_radial_403_7408" cx="0" cy="0" r="1" gradientUnits="userSpaceOnUse" gradientTransform="translate(536.851 416.736) rotate(180) scale(732.393 354.938)">
<stop stop-color="#EDECF3" stop-opacity="0.23"/>
<stop offset="1" stop-color="#E6E5F5" stop-opacity="0.01"/>
<stop offset="1" stop-color="#E6E5F5" stop-opacity="0.01"/>
</radialGradient>
<radialGradient id="paint55_radial_403_7408" cx="0" cy="0" r="1" gradientUnits="userSpaceOnUse" gradientTransform="translate(536.851 416.736) rotate(180) scale(732.393 354.938)">
<stop stop-color="#EDECF3" stop-opacity="0.23"/>
<stop offset="1" stop-color="#E6E5F5" stop-opacity="0.01"/>
<stop offset="1" stop-color="#E6E5F5" stop-opacity="0.01"/>
</radialGradient>
<radialGradient id="paint56_radial_403_7408" cx="0" cy="0" r="1" gradientUnits="userSpaceOnUse" gradientTransform="translate(536.851 416.736) rotate(180) scale(732.393 354.938)">
<stop stop-color="#EDECF3" stop-opacity="0.23"/>
<stop offset="1" stop-color="#E6E5F5" stop-opacity="0.01"/>
<stop offset="1" stop-color="#E6E5F5" stop-opacity="0.01"/>
</radialGradient>
<radialGradient id="paint57_radial_403_7408" cx="0" cy="0" r="1" gradientUnits="userSpaceOnUse" gradientTransform="translate(536.851 416.736) rotate(180) scale(732.393 354.938)">
<stop stop-color="#EDECF3" stop-opacity="0.23"/>
<stop offset="1" stop-color="#E6E5F5" stop-opacity="0.01"/>
<stop offset="1" stop-color="#E6E5F5" stop-opacity="0.01"/>
</radialGradient>
<radialGradient id="paint58_radial_403_7408" cx="0" cy="0" r="1" gradientUnits="userSpaceOnUse" gradientTransform="translate(536.851 416.736) rotate(180) scale(732.393 354.938)">
<stop stop-color="#EDECF3" stop-opacity="0.23"/>
<stop offset="1" stop-color="#E6E5F5" stop-opacity="0.01"/>
<stop offset="1" stop-color="#E6E5F5" stop-opacity="0.01"/>
</radialGradient>
<radialGradient id="paint59_radial_403_7408" cx="0" cy="0" r="1" gradientUnits="userSpaceOnUse" gradientTransform="translate(536.851 416.736) rotate(180) scale(732.393 354.938)">
<stop stop-color="#EDECF3" stop-opacity="0.23"/>
<stop offset="1" stop-color="#E6E5F5" stop-opacity="0.01"/>
<stop offset="1" stop-color="#E6E5F5" stop-opacity="0.01"/>
</radialGradient>
<radialGradient id="paint60_radial_403_7408" cx="0" cy="0" r="1" gradientUnits="userSpaceOnUse" gradientTransform="translate(536.851 416.736) rotate(180) scale(732.393 354.938)">
<stop stop-color="#EDECF3" stop-opacity="0.23"/>
<stop offset="1" stop-color="#E6E5F5" stop-opacity="0.01"/>
<stop offset="1" stop-color="#E6E5F5" stop-opacity="0.01"/>
</radialGradient>
<radialGradient id="paint61_radial_403_7408" cx="0" cy="0" r="1" gradientUnits="userSpaceOnUse" gradientTransform="translate(536.851 416.736) rotate(180) scale(732.393 354.938)">
<stop stop-color="#EDECF3" stop-opacity="0.23"/>
<stop offset="1" stop-color="#E6E5F5" stop-opacity="0.01"/>
<stop offset="1" stop-color="#E6E5F5" stop-opacity="0.01"/>
</radialGradient>
<radialGradient id="paint62_radial_403_7408" cx="0" cy="0" r="1" gradientUnits="userSpaceOnUse" gradientTransform="translate(536.851 416.736) rotate(180) scale(732.393 354.938)">
<stop stop-color="#EDECF3" stop-opacity="0.23"/>
<stop offset="1" stop-color="#E6E5F5" stop-opacity="0.01"/>
<stop offset="1" stop-color="#E6E5F5" stop-opacity="0.01"/>
</radialGradient>
<radialGradient id="paint63_radial_403_7408" cx="0" cy="0" r="1" gradientUnits="userSpaceOnUse" gradientTransform="translate(536.851 416.736) rotate(180) scale(732.393 354.938)">
<stop stop-color="#EDECF3" stop-opacity="0.23"/>
<stop offset="1" stop-color="#E6E5F5" stop-opacity="0.01"/>
<stop offset="1" stop-color="#E6E5F5" stop-opacity="0.01"/>
</radialGradient>
<radialGradient id="paint64_radial_403_7408" cx="0" cy="0" r="1" gradientUnits="userSpaceOnUse" gradientTransform="translate(536.851 416.736) rotate(180) scale(732.393 354.938)">
<stop stop-color="#EDECF3" stop-opacity="0.23"/>
<stop offset="1" stop-color="#E6E5F5" stop-opacity="0.01"/>
<stop offset="1" stop-color="#E6E5F5" stop-opacity="0.01"/>
</radialGradient>
<radialGradient id="paint65_radial_403_7408" cx="0" cy="0" r="1" gradientUnits="userSpaceOnUse" gradientTransform="translate(536.851 416.736) rotate(180) scale(732.393 354.938)">
<stop stop-color="#EDECF3" stop-opacity="0.23"/>
<stop offset="1" stop-color="#E6E5F5" stop-opacity="0.01"/>
<stop offset="1" stop-color="#E6E5F5" stop-opacity="0.01"/>
</radialGradient>
<radialGradient id="paint66_radial_403_7408" cx="0" cy="0" r="1" gradientUnits="userSpaceOnUse" gradientTransform="translate(536.851 416.736) rotate(180) scale(732.393 354.938)">
<stop stop-color="#EDECF3" stop-opacity="0.23"/>
<stop offset="1" stop-color="#E6E5F5" stop-opacity="0.01"/>
<stop offset="1" stop-color="#E6E5F5" stop-opacity="0.01"/>
</radialGradient>
<radialGradient id="paint67_radial_403_7408" cx="0" cy="0" r="1" gradientUnits="userSpaceOnUse" gradientTransform="translate(536.851 416.736) rotate(180) scale(732.393 354.938)">
<stop stop-color="#EDECF3" stop-opacity="0.23"/>
<stop offset="1" stop-color="#E6E5F5" stop-opacity="0.01"/>
<stop offset="1" stop-color="#E6E5F5" stop-opacity="0.01"/>
</radialGradient>
<radialGradient id="paint68_radial_403_7408" cx="0" cy="0" r="1" gradientUnits="userSpaceOnUse" gradientTransform="translate(536.851 416.736) rotate(180) scale(732.393 354.938)">
<stop stop-color="#EDECF3" stop-opacity="0.23"/>
<stop offset="1" stop-color="#E6E5F5" stop-opacity="0.01"/>
<stop offset="1" stop-color="#E6E5F5" stop-opacity="0.01"/>
</radialGradient>
<radialGradient id="paint69_radial_403_7408" cx="0" cy="0" r="1" gradientUnits="userSpaceOnUse" gradientTransform="translate(536.851 416.736) rotate(180) scale(732.393 354.938)">
<stop stop-color="#EDECF3" stop-opacity="0.23"/>
<stop offset="1" stop-color="#E6E5F5" stop-opacity="0.01"/>
<stop offset="1" stop-color="#E6E5F5" stop-opacity="0.01"/>
</radialGradient>
<radialGradient id="paint70_radial_403_7408" cx="0" cy="0" r="1" gradientUnits="userSpaceOnUse" gradientTransform="translate(536.851 416.736) rotate(180) scale(732.393 354.938)">
<stop stop-color="#EDECF3" stop-opacity="0.23"/>
<stop offset="1" stop-color="#E6E5F5" stop-opacity="0.01"/>
<stop offset="1" stop-color="#E6E5F5" stop-opacity="0.01"/>
</radialGradient>
<radialGradient id="paint71_radial_403_7408" cx="0" cy="0" r="1" gradientUnits="userSpaceOnUse" gradientTransform="translate(536.851 416.736) rotate(180) scale(732.393 354.938)">
<stop stop-color="#EDECF3" stop-opacity="0.23"/>
<stop offset="1" stop-color="#E6E5F5" stop-opacity="0.01"/>
<stop offset="1" stop-color="#E6E5F5" stop-opacity="0.01"/>
</radialGradient>
<radialGradient id="paint72_radial_403_7408" cx="0" cy="0" r="1" gradientUnits="userSpaceOnUse" gradientTransform="translate(536.851 416.736) rotate(180) scale(732.393 354.938)">
<stop stop-color="#EDECF3" stop-opacity="0.23"/>
<stop offset="1" stop-color="#E6E5F5" stop-opacity="0.01"/>
<stop offset="1" stop-color="#E6E5F5" stop-opacity="0.01"/>
</radialGradient>
<radialGradient id="paint73_radial_403_7408" cx="0" cy="0" r="1" gradientUnits="userSpaceOnUse" gradientTransform="translate(536.851 416.736) rotate(180) scale(732.393 354.938)">
<stop stop-color="#EDECF3" stop-opacity="0.23"/>
<stop offset="1" stop-color="#E6E5F5" stop-opacity="0.01"/>
<stop offset="1" stop-color="#E6E5F5" stop-opacity="0.01"/>
</radialGradient>
<radialGradient id="paint74_radial_403_7408" cx="0" cy="0" r="1" gradientUnits="userSpaceOnUse" gradientTransform="translate(536.851 416.736) rotate(180) scale(732.393 354.938)">
<stop stop-color="#EDECF3" stop-opacity="0.23"/>
<stop offset="1" stop-color="#E6E5F5" stop-opacity="0.01"/>
<stop offset="1" stop-color="#E6E5F5" stop-opacity="0.01"/>
</radialGradient>
<radialGradient id="paint75_radial_403_7408" cx="0" cy="0" r="1" gradientUnits="userSpaceOnUse" gradientTransform="translate(536.851 416.736) rotate(180) scale(732.393 354.938)">
<stop stop-color="#EDECF3" stop-opacity="0.23"/>
<stop offset="1" stop-color="#E6E5F5" stop-opacity="0.01"/>
<stop offset="1" stop-color="#E6E5F5" stop-opacity="0.01"/>
</radialGradient>
<radialGradient id="paint76_radial_403_7408" cx="0" cy="0" r="1" gradientUnits="userSpaceOnUse" gradientTransform="translate(536.851 416.736) rotate(180) scale(732.393 354.938)">
<stop stop-color="#EDECF3" stop-opacity="0.23"/>
<stop offset="1" stop-color="#E6E5F5" stop-opacity="0.01"/>
<stop offset="1" stop-color="#E6E5F5" stop-opacity="0.01"/>
</radialGradient>
<radialGradient id="paint77_radial_403_7408" cx="0" cy="0" r="1" gradientUnits="userSpaceOnUse" gradientTransform="translate(536.851 416.736) rotate(180) scale(732.393 354.938)">
<stop stop-color="#EDECF3" stop-opacity="0.23"/>
<stop offset="1" stop-color="#E6E5F5" stop-opacity="0.01"/>
<stop offset="1" stop-color="#E6E5F5" stop-opacity="0.01"/>
</radialGradient>
<radialGradient id="paint78_radial_403_7408" cx="0" cy="0" r="1" gradientUnits="userSpaceOnUse" gradientTransform="translate(536.851 416.736) rotate(180) scale(732.393 354.938)">
<stop stop-color="#EDECF3" stop-opacity="0.23"/>
<stop offset="1" stop-color="#E6E5F5" stop-opacity="0.01"/>
<stop offset="1" stop-color="#E6E5F5" stop-opacity="0.01"/>
</radialGradient>
<radialGradient id="paint79_radial_403_7408" cx="0" cy="0" r="1" gradientUnits="userSpaceOnUse" gradientTransform="translate(536.851 416.736) rotate(180) scale(732.393 354.938)">
<stop stop-color="#EDECF3" stop-opacity="0.23"/>
<stop offset="1" stop-color="#E6E5F5" stop-opacity="0.01"/>
<stop offset="1" stop-color="#E6E5F5" stop-opacity="0.01"/>
</radialGradient>
<radialGradient id="paint80_radial_403_7408" cx="0" cy="0" r="1" gradientUnits="userSpaceOnUse" gradientTransform="translate(536.851 416.736) rotate(180) scale(732.393 354.938)">
<stop stop-color="#EDECF3" stop-opacity="0.23"/>
<stop offset="1" stop-color="#E6E5F5" stop-opacity="0.01"/>
<stop offset="1" stop-color="#E6E5F5" stop-opacity="0.01"/>
</radialGradient>
<radialGradient id="paint81_radial_403_7408" cx="0" cy="0" r="1" gradientUnits="userSpaceOnUse" gradientTransform="translate(536.851 416.736) rotate(180) scale(732.393 354.938)">
<stop stop-color="#EDECF3" stop-opacity="0.23"/>
<stop offset="1" stop-color="#E6E5F5" stop-opacity="0.01"/>
<stop offset="1" stop-color="#E6E5F5" stop-opacity="0.01"/>
</radialGradient>
<radialGradient id="paint82_radial_403_7408" cx="0" cy="0" r="1" gradientUnits="userSpaceOnUse" gradientTransform="translate(536.851 416.736) rotate(180) scale(732.393 354.938)">
<stop stop-color="#EDECF3" stop-opacity="0.23"/>
<stop offset="1" stop-color="#E6E5F5" stop-opacity="0.01"/>
<stop offset="1" stop-color="#E6E5F5" stop-opacity="0.01"/>
</radialGradient>
<radialGradient id="paint83_radial_403_7408" cx="0" cy="0" r="1" gradientUnits="userSpaceOnUse" gradientTransform="translate(536.851 416.736) rotate(180) scale(732.393 354.938)">
<stop stop-color="#EDECF3" stop-opacity="0.23"/>
<stop offset="1" stop-color="#E6E5F5" stop-opacity="0.01"/>
<stop offset="1" stop-color="#E6E5F5" stop-opacity="0.01"/>
</radialGradient>
<radialGradient id="paint84_radial_403_7408" cx="0" cy="0" r="1" gradientUnits="userSpaceOnUse" gradientTransform="translate(536.851 416.736) rotate(180) scale(732.393 354.938)">
<stop stop-color="#EDECF3" stop-opacity="0.23"/>
<stop offset="1" stop-color="#E6E5F5" stop-opacity="0.01"/>
<stop offset="1" stop-color="#E6E5F5" stop-opacity="0.01"/>
</radialGradient>
<radialGradient id="paint85_radial_403_7408" cx="0" cy="0" r="1" gradientUnits="userSpaceOnUse" gradientTransform="translate(536.851 416.736) rotate(180) scale(732.393 354.938)">
<stop stop-color="#EDECF3" stop-opacity="0.23"/>
<stop offset="1" stop-color="#E6E5F5" stop-opacity="0.01"/>
<stop offset="1" stop-color="#E6E5F5" stop-opacity="0.01"/>
</radialGradient>
<radialGradient id="paint86_radial_403_7408" cx="0" cy="0" r="1" gradientUnits="userSpaceOnUse" gradientTransform="translate(536.851 416.736) rotate(180) scale(732.393 354.938)">
<stop stop-color="#EDECF3" stop-opacity="0.23"/>
<stop offset="1" stop-color="#E6E5F5" stop-opacity="0.01"/>
<stop offset="1" stop-color="#E6E5F5" stop-opacity="0.01"/>
</radialGradient>
<radialGradient id="paint87_radial_403_7408" cx="0" cy="0" r="1" gradientUnits="userSpaceOnUse" gradientTransform="translate(536.851 416.736) rotate(180) scale(732.393 354.938)">
<stop stop-color="#EDECF3" stop-opacity="0.23"/>
<stop offset="1" stop-color="#E6E5F5" stop-opacity="0.01"/>
<stop offset="1" stop-color="#E6E5F5" stop-opacity="0.01"/>
</radialGradient>
<radialGradient id="paint88_radial_403_7408" cx="0" cy="0" r="1" gradientUnits="userSpaceOnUse" gradientTransform="translate(536.851 416.736) rotate(180) scale(732.393 354.938)">
<stop stop-color="#EDECF3" stop-opacity="0.23"/>
<stop offset="1" stop-color="#E6E5F5" stop-opacity="0.01"/>
<stop offset="1" stop-color="#E6E5F5" stop-opacity="0.01"/>
</radialGradient>
<radialGradient id="paint89_radial_403_7408" cx="0" cy="0" r="1" gradientUnits="userSpaceOnUse" gradientTransform="translate(536.851 416.736) rotate(180) scale(732.393 354.938)">
<stop stop-color="#EDECF3" stop-opacity="0.23"/>
<stop offset="1" stop-color="#E6E5F5" stop-opacity="0.01"/>
<stop offset="1" stop-color="#E6E5F5" stop-opacity="0.01"/>
</radialGradient>
<radialGradient id="paint90_radial_403_7408" cx="0" cy="0" r="1" gradientUnits="userSpaceOnUse" gradientTransform="translate(536.851 416.736) rotate(180) scale(732.393 354.938)">
<stop stop-color="#EDECF3" stop-opacity="0.23"/>
<stop offset="1" stop-color="#E6E5F5" stop-opacity="0.01"/>
<stop offset="1" stop-color="#E6E5F5" stop-opacity="0.01"/>
</radialGradient>
<radialGradient id="paint91_radial_403_7408" cx="0" cy="0" r="1" gradientUnits="userSpaceOnUse" gradientTransform="translate(536.851 416.736) rotate(180) scale(732.393 354.938)">
<stop stop-color="#EDECF3" stop-opacity="0.23"/>
<stop offset="1" stop-color="#E6E5F5" stop-opacity="0.01"/>
<stop offset="1" stop-color="#E6E5F5" stop-opacity="0.01"/>
</radialGradient>
<radialGradient id="paint92_radial_403_7408" cx="0" cy="0" r="1" gradientUnits="userSpaceOnUse" gradientTransform="translate(536.851 416.736) rotate(180) scale(732.393 354.938)">
<stop stop-color="#EDECF3" stop-opacity="0.23"/>
<stop offset="1" stop-color="#E6E5F5" stop-opacity="0.01"/>
<stop offset="1" stop-color="#E6E5F5" stop-opacity="0.01"/>
</radialGradient>
<radialGradient id="paint93_radial_403_7408" cx="0" cy="0" r="1" gradientUnits="userSpaceOnUse" gradientTransform="translate(536.851 416.736) rotate(180) scale(732.393 354.938)">
<stop stop-color="#EDECF3" stop-opacity="0.23"/>
<stop offset="1" stop-color="#E6E5F5" stop-opacity="0.01"/>
<stop offset="1" stop-color="#E6E5F5" stop-opacity="0.01"/>
</radialGradient>
<radialGradient id="paint94_radial_403_7408" cx="0" cy="0" r="1" gradientUnits="userSpaceOnUse" gradientTransform="translate(536.851 416.736) rotate(180) scale(732.393 354.938)">
<stop stop-color="#EDECF3" stop-opacity="0.23"/>
<stop offset="1" stop-color="#E6E5F5" stop-opacity="0.01"/>
<stop offset="1" stop-color="#E6E5F5" stop-opacity="0.01"/>
</radialGradient>
<radialGradient id="paint95_radial_403_7408" cx="0" cy="0" r="1" gradientUnits="userSpaceOnUse" gradientTransform="translate(536.851 416.736) rotate(180) scale(732.393 354.938)">
<stop stop-color="#EDECF3" stop-opacity="0.23"/>
<stop offset="1" stop-color="#E6E5F5" stop-opacity="0.01"/>
<stop offset="1" stop-color="#E6E5F5" stop-opacity="0.01"/>
</radialGradient>
<radialGradient id="paint96_radial_403_7408" cx="0" cy="0" r="1" gradientUnits="userSpaceOnUse" gradientTransform="translate(536.851 416.736) rotate(180) scale(732.393 354.938)">
<stop stop-color="#EDECF3" stop-opacity="0.23"/>
<stop offset="1" stop-color="#E6E5F5" stop-opacity="0.01"/>
<stop offset="1" stop-color="#E6E5F5" stop-opacity="0.01"/>
</radialGradient>
<radialGradient id="paint97_radial_403_7408" cx="0" cy="0" r="1" gradientUnits="userSpaceOnUse" gradientTransform="translate(536.851 416.736) rotate(180) scale(732.393 354.938)">
<stop stop-color="#EDECF3" stop-opacity="0.23"/>
<stop offset="1" stop-color="#E6E5F5" stop-opacity="0.01"/>
<stop offset="1" stop-color="#E6E5F5" stop-opacity="0.01"/>
</radialGradient>
<radialGradient id="paint98_radial_403_7408" cx="0" cy="0" r="1" gradientUnits="userSpaceOnUse" gradientTransform="translate(536.851 416.736) rotate(180) scale(732.393 354.938)">
<stop stop-color="#EDECF3" stop-opacity="0.23"/>
<stop offset="1" stop-color="#E6E5F5" stop-opacity="0.01"/>
<stop offset="1" stop-color="#E6E5F5" stop-opacity="0.01"/>
</radialGradient>
<radialGradient id="paint99_radial_403_7408" cx="0" cy="0" r="1" gradientUnits="userSpaceOnUse" gradientTransform="translate(536.851 416.736) rotate(180) scale(732.393 354.938)">
<stop stop-color="#EDECF3" stop-opacity="0.23"/>
<stop offset="1" stop-color="#E6E5F5" stop-opacity="0.01"/>
<stop offset="1" stop-color="#E6E5F5" stop-opacity="0.01"/>
</radialGradient>
<linearGradient id="paint100_linear_403_7408" x1="630.006" y1="592.349" x2="780.926" y2="-37.2745" gradientUnits="userSpaceOnUse">
<stop stop-color="white" stop-opacity="0.01"/>
<stop offset="0.0375866" stop-color="white" stop-opacity="0.615533"/>
<stop offset="0.0805049" stop-color="white" stop-opacity="0.767526"/>
<stop offset="0.146149" stop-color="white"/>
<stop offset="0.747659" stop-color="white"/>
<stop offset="0.842081" stop-color="white" stop-opacity="0.852977"/>
<stop offset="0.896184" stop-color="white" stop-opacity="0.768733"/>
<stop offset="0.927591" stop-color="white" stop-opacity="0.144475"/>
<stop offset="1" stop-color="white" stop-opacity="0.01"/>
</linearGradient>
<linearGradient id="paint101_linear_403_7408" x1="226.372" y1="473.199" x2="272.503" y2="9.44354" gradientUnits="userSpaceOnUse">
<stop stop-color="white" stop-opacity="0.01"/>
<stop offset="0.177083" stop-color="white"/>
<stop offset="1" stop-color="white" stop-opacity="0.01"/>
</linearGradient>
<linearGradient id="paint102_linear_403_7408" x1="1529.01" y1="93.7192" x2="1294.93" y2="914.38" gradientUnits="userSpaceOnUse">
<stop stop-color="white" stop-opacity="0.01"/>
<stop offset="0.194726" stop-color="white"/>
<stop offset="0.391043" stop-color="white"/>
<stop offset="0.940665" stop-color="white"/>
<stop offset="1" stop-color="white" stop-opacity="0.594203"/>
</linearGradient>
<linearGradient id="paint103_linear_403_7408" x1="707.225" y1="-42.1281" x2="707.225" y2="547.237" gradientUnits="userSpaceOnUse">
<stop stop-color="#F1F0FF" stop-opacity="0.0549706"/>
<stop offset="0.575619" stop-color="white" stop-opacity="0.32"/>
<stop offset="1" stop-color="white" stop-opacity="0.0586787"/>
</linearGradient>
<linearGradient id="paint104_linear_403_7408" x1="660.36" y1="337.315" x2="712.298" y2="87.0748" gradientUnits="userSpaceOnUse">
<stop stop-color="white" stop-opacity="0.01"/>
<stop offset="0.177083" stop-color="white"/>
<stop offset="1" stop-color="white" stop-opacity="0.01"/>
</linearGradient>
<linearGradient id="paint105_linear_403_7408" x1="767.07" y1="183.638" x2="742.483" y2="286.722" gradientUnits="userSpaceOnUse">
<stop stop-color="white"/>
<stop offset="1" stop-color="white"/>
</linearGradient>
<linearGradient id="paint106_linear_403_7408" x1="764.546" y1="148.381" x2="722.216" y2="279.108" gradientUnits="userSpaceOnUse">
<stop stop-color="white"/>
<stop offset="1" stop-color="white"/>
</linearGradient>
<radialGradient id="paint107_radial_403_7408" cx="0" cy="0" r="1" gradientUnits="userSpaceOnUse" gradientTransform="translate(738.138 165.303) rotate(28.5925) scale(129.271)">
<stop stop-color="#1CA0FF"/>
<stop offset="1" stop-color="#6349FF" stop-opacity="0.01"/>
</radialGradient>
<clipPath id="clip0_403_7408">
<rect width="1204" height="480" fill="white"/>
</clipPath>
<clipPath id="clip1_403_7408">
<path d="M627.159 -8.62045C627.159 -30.484 627.159 -41.4158 633.951 -48.2079C640.743 -55 651.675 -55 673.538 -55H815.99C837.853 -55 848.785 -55 855.577 -48.2079C862.369 -41.4158 862.369 -30.484 862.369 -8.62051V557.872H627.159V-8.62045Z" fill="white"/>
</clipPath>
</defs>
</svg>
