<svg width="188" height="48" viewBox="0 0 188 48" fill="none" xmlns="http://www.w3.org/2000/svg">
<path d="M150.383 6.14885C150.383 4.96585 151.342 4.00585 152.525 4.00585H153.954C154.523 4.00585 155.068 4.23163 155.47 4.63352C155.872 5.03541 156.097 5.58049 156.097 6.14885C156.097 6.71721 155.872 7.26229 155.47 7.66418C155.068 8.06607 154.523 8.29185 153.954 8.29185H152.525C152.244 8.29185 151.965 8.23641 151.705 8.1287C151.445 8.02099 151.209 7.86313 151.01 7.66412C150.811 7.46511 150.654 7.22886 150.546 6.96886C150.438 6.70887 150.383 6.43022 150.383 6.14885ZM90.3923 18.2898C90.3923 26.1778 83.9983 32.5728 76.1093 32.5728C68.2213 32.5728 61.8263 26.1778 61.8263 18.2898C61.8263 10.3998 68.2213 4.00685 76.1093 4.00685C83.9983 4.00685 90.3923 10.3998 90.3923 18.2898ZM59.0403 18.2188C59.8303 18.2188 60.4763 18.8588 60.3973 19.6448C60.1273 22.3347 59.0995 24.8926 57.4334 27.0215C55.7673 29.1503 53.5312 30.7626 50.985 31.671C48.4389 32.5793 45.6872 32.7465 43.0498 32.1529C40.4124 31.5594 37.9977 30.2296 36.0861 28.3181C34.1746 26.4065 32.8447 23.9917 32.2512 21.3543C31.6577 18.717 31.8248 15.9653 32.7332 13.4191C33.6415 10.873 35.2538 8.6369 37.3827 6.97076C39.5115 5.30461 42.0695 4.27682 44.7593 4.00685C45.5443 3.92685 46.1853 4.57485 46.1853 5.36285V16.7898C46.1853 17.5798 46.8253 18.2188 47.6143 18.2188H59.0403ZM110.389 35.4298C111.526 35.4298 112.616 35.8813 113.419 36.6849C114.223 37.4885 114.674 38.5784 114.674 39.7148C114.674 40.8513 114.223 41.9412 113.419 42.7448C112.616 43.5484 111.526 43.9998 110.389 43.9998H103.248C102.112 43.9998 101.022 43.5484 100.218 42.7448C99.4148 41.9412 98.9633 40.8513 98.9633 39.7148C98.9633 38.5784 99.4148 37.4885 100.218 36.6849C101.022 35.8813 102.112 35.4298 103.248 35.4298H110.389ZM106.104 32.5728C113.993 32.5728 120.388 26.1778 120.388 18.2898C120.392 15.8668 119.776 13.4831 118.599 11.3648L120.959 9.00485C121.231 8.73288 121.447 8.41003 121.594 8.05474C121.741 7.69945 121.817 7.31867 121.816 6.93414C121.816 6.54961 121.741 6.16887 121.593 5.81365C121.446 5.45843 121.23 5.13568 120.958 4.86385C120.686 4.59201 120.363 4.3764 120.008 4.22934C119.653 4.08227 119.272 4.00662 118.888 4.00672C118.503 4.00681 118.122 4.08264 117.767 4.22988C117.412 4.37712 117.089 4.59288 116.817 4.86485L114.757 6.92485C112.272 5.02675 109.23 4.00082 106.103 4.00585C98.2163 4.00685 91.8223 10.3998 91.8223 18.2898C91.8223 26.1778 98.2163 32.5728 106.104 32.5728ZM150.383 18.2898C150.383 26.1778 143.988 32.5728 136.099 32.5728C128.211 32.5728 121.816 26.1778 121.816 18.2898C121.816 10.3998 128.211 4.00685 136.099 4.00685C143.988 4.00685 150.383 10.4008 150.383 18.2898Z" fill="#626981"/>
</svg>
