<svg width="188" height="48" viewBox="0 0 188 48" fill="none" xmlns="http://www.w3.org/2000/svg">
<path fill-rule="evenodd" clip-rule="evenodd" d="M33.3196 8C24.2069 8 16.8196 15.1634 16.8196 24C25.9323 24 33.3196 16.8366 33.3196 8ZM33.3196 40C24.2069 40 16.8196 32.8366 16.8196 24C25.9323 24 33.3196 31.1634 33.3196 40ZM49.8196 24C40.7069 24 33.3196 16.8366 33.3196 8C42.4323 8 49.8196 15.1634 49.8196 24ZM49.8196 24C40.7069 24 33.3196 31.1634 33.3196 40C42.4323 40 49.8196 32.8366 49.8196 24ZM111.07 18.0109H114.185V15.2618H111.07V18.0109ZM111.07 32.1H114.185V19.7291H111.07V32.1ZM71.3697 32.1H61.1523V15.6055H64.2679V29.1906H71.3697V32.1ZM80.7743 31.6188C79.835 32.1686 78.7468 32.4436 77.5097 32.4436C76.265 32.4436 75.173 32.1648 74.2337 31.6074C73.2944 31.0499 72.5613 30.2825 72.0344 29.305C71.5151 28.3199 71.2555 27.1897 71.2555 25.9145C71.2555 24.6239 71.5228 23.4899 72.0573 22.5125C72.5919 21.5274 73.3288 20.7599 74.2681 20.2101C75.2073 19.6603 76.2878 19.3854 77.5097 19.3854C78.7545 19.3854 79.8464 19.6641 80.7857 20.2216C81.7326 20.779 82.4695 21.5503 82.9964 22.5354C83.5233 23.5129 83.7868 24.6392 83.7868 25.9145C83.7868 27.1974 83.5195 28.3314 82.985 29.3165C82.4581 30.2939 81.7211 31.0613 80.7743 31.6188ZM75.299 28.5605C75.803 29.2096 76.5398 29.5341 77.5097 29.5341C78.51 29.5341 79.2546 29.1981 79.7433 28.5261C80.2397 27.8465 80.4879 26.976 80.4879 25.9145C80.4879 24.8148 80.2359 23.9367 79.7319 23.2799C79.2355 22.6232 78.4948 22.2948 77.5097 22.2948C76.494 22.2948 75.7457 22.6309 75.2646 23.3028C74.7911 23.9672 74.5544 24.8378 74.5544 25.9145C74.5544 27.0218 74.8026 27.9038 75.299 28.5605ZM89.9482 32.4436C90.5287 32.4436 91.0632 32.3748 91.552 32.2374C92.0483 32.0999 92.4988 31.9052 92.9036 31.6532V32.9018C92.9189 33.3599 92.8004 33.7417 92.5484 34.0472C92.3041 34.3603 91.9758 34.5932 91.5634 34.7459C91.151 34.9063 90.7119 34.9865 90.2461 34.9865C89.8108 34.9865 89.4061 34.891 89.032 34.7001C88.6654 34.5092 88.3828 34.2305 88.1842 33.8639L85.2978 35.2614C85.7712 36.0632 86.447 36.7085 87.3252 37.1972C88.2034 37.6935 89.1694 37.9418 90.2232 37.9418C91.1319 37.9418 91.9758 37.8195 92.7546 37.5752C93.5336 37.3385 94.1903 36.9758 94.7248 36.487C95.267 35.9983 95.6374 35.3759 95.836 34.6199C95.9046 34.3526 95.9504 34.0816 95.9734 33.8066C96.0039 33.5394 96.0192 33.253 96.0192 32.9476V19.729H93.293V20.4163C92.873 20.0879 92.3957 19.8359 91.8612 19.6603C91.3343 19.477 90.7501 19.3854 90.1086 19.3854C88.925 19.3854 87.8941 19.668 87.016 20.233C86.1377 20.7981 85.4543 21.5732 84.9656 22.5583C84.4844 23.5357 84.244 24.6545 84.244 25.9145C84.244 27.1516 84.4807 28.2626 84.9541 29.2478C85.4352 30.2328 86.1034 31.0118 86.9586 31.5845C87.8139 32.1572 88.8105 32.4436 89.9482 32.4436ZM90.4522 29.6716C89.7803 29.6716 89.2305 29.5035 88.8028 29.1676C88.3752 28.8316 88.0583 28.3811 87.8521 27.8159C87.646 27.2432 87.5428 26.6094 87.5428 25.9145C87.5428 25.2272 87.6497 24.6011 87.8636 24.0359C88.0774 23.4632 88.4057 23.0089 88.8486 22.6728C89.2992 22.3292 89.8719 22.1574 90.5668 22.1574C91.5443 22.1574 92.243 22.5049 92.663 23.1998C93.083 23.887 93.293 24.7919 93.293 25.9145C93.293 27.037 93.0792 27.9457 92.6516 28.6406C92.2315 29.3279 91.4985 29.6716 90.4522 29.6716ZM106.684 31.6188C105.745 32.1686 104.656 32.4436 103.419 32.4436C102.175 32.4436 101.083 32.1648 100.143 31.6074C99.2041 31.0499 98.471 30.2825 97.9441 29.305C97.4248 28.3199 97.1652 27.1897 97.1652 25.9145C97.1652 24.6239 97.4325 23.4899 97.967 22.5125C98.5016 21.5274 99.2385 20.7599 100.178 20.2101C101.117 19.6603 102.198 19.3854 103.419 19.3854C104.664 19.3854 105.756 19.6641 106.695 20.2216C107.642 20.779 108.379 21.5503 108.906 22.5354C109.433 23.5129 109.696 24.6392 109.696 25.9145C109.696 27.1974 109.429 28.3314 108.894 29.3165C108.368 30.2939 107.631 31.0613 106.684 31.6188ZM101.209 28.5605C101.713 29.2096 102.45 29.5341 103.419 29.5341C104.42 29.5341 105.164 29.1981 105.653 28.5261C106.149 27.8465 106.398 26.976 106.398 25.9145C106.398 24.8148 106.146 23.9367 105.642 23.2799C105.145 22.6232 104.404 22.2948 103.419 22.2948C102.404 22.2948 101.655 22.6309 101.174 23.3028C100.701 23.9672 100.464 24.8378 100.464 25.9145C100.464 27.0218 100.712 27.9038 101.209 28.5605ZM119.36 37.5981H116.222V19.729H118.972V20.4163C119.391 20.0879 119.864 19.8359 120.392 19.6603C120.926 19.477 121.514 19.3854 122.156 19.3854C123.339 19.3854 124.37 19.668 125.248 20.233C126.127 20.7981 126.806 21.5732 127.288 22.5583C127.776 23.5357 128.02 24.6545 128.02 25.9145C128.02 27.1516 127.78 28.2626 127.298 29.2478C126.825 30.2328 126.161 31.0118 125.306 31.5845C124.451 32.1572 123.454 32.4436 122.316 32.4436C121.735 32.4436 121.197 32.3748 120.7 32.2374C120.212 32.0999 119.765 31.9052 119.36 31.6532V37.5981ZM119.612 28.6406C120.041 29.3279 120.773 29.6716 121.812 29.6716C122.484 29.6716 123.034 29.5035 123.462 29.1676C123.889 28.8316 124.206 28.3811 124.412 27.8159C124.618 27.2432 124.722 26.6094 124.722 25.9145C124.722 25.2272 124.615 24.6011 124.4 24.0359C124.187 23.4632 123.855 23.0089 123.404 22.6728C122.961 22.3292 122.392 22.1574 121.698 22.1574C120.727 22.1574 120.029 22.5049 119.602 23.1998C119.181 23.887 118.972 24.7919 118.972 25.9145C118.972 27.037 119.185 27.9457 119.612 28.6406ZM133.665 32.4436C135.283 32.4436 136.551 32.0809 137.467 31.3554C138.384 30.6299 138.842 29.6334 138.842 28.3658C138.842 27.4036 138.544 26.6438 137.949 26.0863C137.36 25.5289 136.36 25.0668 134.947 24.7003C133.985 24.4559 133.267 24.2573 132.794 24.1046C132.328 23.952 132.019 23.803 131.866 23.6579C131.721 23.5129 131.649 23.3334 131.649 23.1196C131.649 22.7606 131.82 22.4858 132.164 22.2948C132.516 22.1039 132.977 22.0276 133.55 22.0658C134.764 22.1574 135.429 22.6767 135.543 23.6236L138.727 23.0508C138.567 21.9283 138.017 21.0387 137.078 20.3819C136.139 19.7176 134.94 19.3854 133.481 19.3854C131.985 19.3854 130.789 19.7366 129.896 20.4392C129.003 21.1417 128.556 22.0886 128.556 23.2799C128.556 24.2268 128.865 24.9752 129.484 25.525C130.102 26.0672 131.167 26.533 132.679 26.9225C133.573 27.1592 134.229 27.3501 134.65 27.4952C135.077 27.6403 135.352 27.7892 135.474 27.9419C135.596 28.087 135.658 28.2818 135.658 28.5261C135.658 28.9156 135.505 29.221 135.199 29.4425C134.894 29.6563 134.459 29.7632 133.894 29.7632C133.206 29.7632 132.637 29.599 132.187 29.2706C131.744 28.9423 131.457 28.488 131.328 27.9076L128.143 28.3886C128.35 29.6792 128.93 30.6796 129.885 31.3898C130.847 32.0923 132.107 32.4436 133.665 32.4436ZM146.926 32.0198C146.261 32.3176 145.483 32.4665 144.589 32.4665C143.62 32.4665 142.829 32.3023 142.219 31.974C141.607 31.6455 141.13 31.2294 140.787 30.7254C140.45 30.2214 140.21 29.6983 140.065 29.1561C139.92 28.6063 139.832 28.1061 139.801 27.6556C139.771 27.205 139.755 26.8766 139.755 26.6705V19.729H142.917V25.5708C142.917 25.8534 142.932 26.2161 142.963 26.659C142.993 27.0943 143.089 27.5334 143.249 27.9763C143.409 28.4192 143.669 28.7896 144.028 29.0874C144.395 29.3852 144.91 29.5341 145.575 29.5341C145.842 29.5341 146.128 29.4921 146.433 29.4081C146.739 29.3241 147.025 29.1638 147.293 28.927C147.56 28.6827 147.778 28.3276 147.945 27.8618C148.121 27.3883 148.209 26.7698 148.209 26.0061V19.729H151.347V32.1H148.599V30.8285C148.148 31.3249 147.591 31.722 146.926 32.0198ZM153.152 32.1H156.29V24.6087C156.29 23.8986 156.484 23.3221 156.874 22.8791C157.271 22.4285 157.794 22.2033 158.444 22.2033C159.123 22.2033 159.654 22.4324 160.036 22.8906C160.425 23.3411 160.62 23.9749 160.62 24.792V32.1H163.736V24.6087C163.736 23.8986 163.93 23.3221 164.32 22.8791C164.717 22.4285 165.24 22.2033 165.889 22.2033C166.569 22.2033 167.099 22.4324 167.481 22.8906C167.87 23.3411 168.066 23.9749 168.066 24.792V32.1H171.181V23.9673C171.181 22.6157 170.818 21.5237 170.092 20.6913C169.375 19.8513 168.31 19.4313 166.897 19.4313C166.103 19.4313 165.374 19.6031 164.709 19.9467C164.044 20.2904 163.514 20.76 163.117 21.3557C162.796 20.7753 162.338 20.3095 161.742 19.9582C161.146 19.607 160.406 19.4313 159.52 19.4313C158.771 19.4313 158.085 19.5802 157.458 19.878C156.832 20.1682 156.313 20.5691 155.9 21.0807V19.7291H153.152V32.1Z" fill="#626981"/>
</svg>
