<svg width="188" height="48" viewBox="0 0 188 48" fill="none" xmlns="http://www.w3.org/2000/svg">
<path fill-rule="evenodd" clip-rule="evenodd" d="M54.198 14.3369C55.1178 15.4303 55.8755 16.6503 56.448 17.9594C57.282 19.8681 57.7109 21.929 57.708 24.0119C57.7051 28.05 56.1012 31.9221 53.2479 34.7796C50.3946 37.6371 46.5248 39.2468 42.4868 39.2557C40.5305 39.2545 38.5931 38.8725 36.783 38.1307C35.4919 37.6177 34.2799 36.9246 33.183 36.0719C31.4736 34.7692 30.0594 33.1191 29.0336 31.2304C28.0077 29.3417 27.3935 27.2572 27.2314 25.114C27.0692 22.9708 27.3628 20.8176 28.0927 18.7961C28.8227 16.7745 29.9725 14.9305 31.4665 13.3853C32.9604 11.8401 34.7647 10.6289 36.7605 9.83128C38.7564 9.03366 40.8985 8.66776 43.0459 8.75766C45.1933 8.84756 47.2974 9.39122 49.2195 10.3528C51.1417 11.3145 52.8384 12.6723 54.198 14.3369ZM47.5605 12.9757C45.9678 12.2344 44.2323 11.8505 42.4755 11.8507L42.4868 11.8282C40.4372 11.8266 38.4206 12.3436 36.6245 13.331C34.8284 14.3184 33.3113 15.7441 32.2144 17.4753C31.1174 19.2067 30.4763 21.1874 30.3506 23.2331C30.2249 25.2788 30.6187 27.3231 31.4955 29.1757C32.0037 28.6419 32.3168 27.9521 32.3843 27.2182C32.5835 25.8418 33.2225 24.5669 34.2058 23.5835C35.1892 22.6002 36.4642 21.9612 37.8405 21.7619C38.6142 21.6917 39.3399 21.3569 39.8953 20.8138C40.4507 20.2706 40.8018 19.5525 40.8893 18.7807C41.0885 17.4043 41.7275 16.1293 42.7109 15.146C43.6942 14.1626 44.9692 13.5236 46.3455 13.3244C46.7638 13.2607 47.1722 13.1435 47.5605 12.9757ZM33.3068 31.7657C33.2618 31.8057 33.2168 31.8457 33.1718 31.8869C34.0437 32.9075 35.0775 33.7778 36.2318 34.4632C36.5336 33.9997 36.7225 33.4717 36.783 32.9219C36.9892 31.5428 37.6349 30.267 38.6238 29.284C39.6129 28.3011 40.8926 27.6633 42.273 27.4657C43.0478 27.3893 43.7723 27.0474 44.3239 26.4978C44.8754 25.9484 45.2199 25.2251 45.2993 24.4507C45.495 23.0729 46.1329 21.796 47.1168 20.812C48.1008 19.828 49.3777 19.1902 50.7555 18.9944C51.5315 18.9211 52.2548 18.5694 52.7918 18.0044C52.8462 17.9575 52.8953 17.9046 52.938 17.8469C52.242 16.6577 51.3435 15.5992 50.283 14.7194C49.3516 15.5921 48.1724 16.1542 46.908 16.3282C46.1316 16.3812 45.4006 16.7127 44.8493 17.2619C44.268 17.8321 43.9192 18.5979 43.8705 19.4107C43.6713 20.787 43.0323 22.062 42.0489 23.0453C41.0655 24.0287 39.7906 24.6677 38.4143 24.8669C37.6403 24.9303 36.9161 25.2744 36.378 25.8344C35.8189 26.3789 35.4719 27.1048 35.3993 27.8819C35.2201 29.2644 34.5776 30.5454 33.5768 31.5157C33.4868 31.6057 33.3968 31.6857 33.3068 31.7657ZM39.1005 35.7569C40.1978 36.0716 41.334 36.2307 42.4755 36.2294V36.1732C44.3347 36.166 46.1674 35.733 47.8332 34.9074C49.4991 34.0819 50.9536 32.8857 52.0854 31.4108C53.2171 29.9358 53.9961 28.2211 54.3623 26.3984C54.7284 24.5757 54.6723 22.6933 54.198 20.8957C53.3439 21.4996 52.3553 21.8858 51.318 22.0207C50.5452 22.0995 49.8233 22.4425 49.2741 22.9918C48.7249 23.541 48.3819 24.2629 48.303 25.0357C48.1032 26.4136 47.4625 27.6899 46.477 28.6734C45.4914 29.6569 44.2139 30.2949 42.8355 30.4919C42.0627 30.5708 41.3408 30.9138 40.7916 31.463C40.2424 32.0122 39.8994 32.7342 39.8205 33.5069C39.7199 34.2945 39.4759 35.0572 39.1005 35.7569ZM69.2618 17.3407H65.8868V30.9869H69.2618V17.3407ZM75.8655 20.4457C72.6705 20.4457 70.6005 22.4594 70.6005 25.8344C70.6005 29.2657 72.6255 31.2344 75.8655 31.2344C79.1055 31.2344 81.1305 29.2094 81.1305 25.8344C81.1305 22.4594 79.0605 20.4457 75.8655 20.4457ZM75.8655 22.8869C77.013 22.8869 77.7443 23.9782 77.7443 25.8344V25.8457C77.7443 27.7244 77.0243 28.7594 75.8655 28.7594C74.7068 28.7594 73.998 27.6569 73.998 25.8344C73.998 24.0119 74.718 22.8869 75.8655 22.8869ZM85.6418 31.6507H82.4018V31.6619C82.593 33.5294 84.4493 34.8682 87.4305 34.8682C90.6368 34.8682 92.808 33.3382 92.808 30.8744V20.6369H89.433V22.5157C89.179 21.9085 88.7454 21.3935 88.1905 21.0396C87.6355 20.6858 86.9857 20.5099 86.328 20.5357C83.7405 20.5357 82.188 22.5719 82.188 25.8007C82.188 29.0294 83.8193 30.9082 86.283 30.9082C86.9207 30.9428 87.5542 30.7856 88.1016 30.4567C88.649 30.1278 89.0854 29.6425 89.3543 29.0632H89.4218V30.9532C89.4218 31.9657 88.7468 32.6632 87.4643 32.6632C87.092 32.7133 86.7135 32.6417 86.3851 32.4593C86.0567 32.2769 85.796 31.9933 85.6418 31.6507ZM87.4868 23.1457C88.6793 23.1457 89.433 24.1807 89.433 25.8232V25.8344C89.433 27.4994 88.6905 28.4107 87.4868 28.4107C86.283 28.4107 85.563 27.4769 85.563 25.8232C85.563 24.1694 86.2943 23.1457 87.4868 23.1457ZM99.3443 20.4344C96.1493 20.4344 94.0793 22.4482 94.0793 25.8232V25.8344C94.0793 29.2657 96.093 31.2232 99.3443 31.2232C102.596 31.2232 104.621 29.1982 104.621 25.8232C104.621 22.4482 102.539 20.4344 99.3443 20.4344ZM99.3443 22.8757C100.492 22.8757 101.223 23.9669 101.223 25.8232V25.8457C101.223 27.7244 100.537 28.7707 99.3893 28.7707C98.2418 28.7707 97.533 27.6794 97.533 25.8457C97.533 24.0119 98.1968 22.8757 99.3443 22.8757ZM106.169 17.2199C105.987 17.508 105.894 17.8437 105.903 18.1844V18.2069C105.901 18.4334 105.946 18.6578 106.035 18.8661C106.123 19.0744 106.254 19.2622 106.419 19.4174C106.584 19.5728 106.779 19.6923 106.992 19.7686C107.205 19.8448 107.432 19.8762 107.658 19.8607C107.999 19.8539 108.33 19.7461 108.609 19.5509C108.889 19.3557 109.104 19.0819 109.228 18.7643C109.351 18.4466 109.378 18.0994 109.304 17.7666C109.23 17.4338 109.059 17.1305 108.813 16.8951C108.566 16.6596 108.255 16.5027 107.919 16.4441C107.584 16.3856 107.238 16.428 106.926 16.5661C106.615 16.7042 106.351 16.9318 106.169 17.2199ZM109.278 20.6594H105.903V30.9869H109.278V20.6594ZM117.468 31.1219C120.033 31.1219 121.529 29.1982 121.529 25.8232L121.574 25.8457C121.574 22.4707 120.033 20.5357 117.446 20.4907C116.783 20.4611 116.127 20.6364 115.567 20.9927C115.008 21.349 114.572 21.8689 114.318 22.4819H114.251V20.6369H110.876V34.2944H114.251V29.2094H114.318C114.584 29.8124 115.029 30.3193 115.592 30.6614C116.155 31.0034 116.81 31.1641 117.468 31.1219ZM116.219 23.1344C117.401 23.1344 118.154 24.1807 118.154 25.8232V25.8457C118.154 27.4769 117.401 28.5007 116.219 28.5007C115.038 28.5007 114.262 27.4544 114.273 25.8232C114.284 24.1919 115.038 23.1344 116.219 23.1344ZM131.902 23.8769C131.823 21.7507 130.124 20.4232 127.323 20.4232V20.4457C124.533 20.4457 122.722 21.7619 122.699 23.7869C122.699 25.3619 123.757 26.4307 125.771 26.8469L127.717 27.2632C128.527 27.4319 128.842 27.5444 128.842 28.0844C128.842 28.6244 128.392 28.9507 127.402 28.9507C126.412 28.9507 125.804 28.5007 125.703 27.7357H122.452C122.598 29.8394 124.477 31.2119 127.346 31.2119C130.214 31.2119 132.161 29.8394 132.161 27.7019C132.161 26.1382 131.283 25.3057 129.224 24.8669L127.064 24.4282C126.311 24.2707 125.939 24.1019 125.939 23.5732C125.939 23.0444 126.356 22.6844 127.289 22.6844C128.223 22.6844 128.831 23.1457 128.831 23.8769H131.902ZM140.171 30.9644H143.422L143.467 20.6369H140.092V26.4644C140.124 26.7077 140.103 26.9549 140.032 27.1897C139.961 27.4244 139.84 27.6412 139.679 27.8256C139.517 28.0099 139.317 28.1575 139.094 28.2584C138.87 28.3593 138.627 28.4111 138.382 28.4107C137.336 28.4107 136.706 27.7582 136.706 26.5319V20.6369H133.331V27.3082C133.288 27.82 133.356 28.335 133.529 28.8184C133.702 29.3018 133.978 29.7425 134.336 30.1103C134.694 30.4783 135.127 30.765 135.606 30.9512C136.085 31.1374 136.598 31.2186 137.111 31.1894C137.78 31.2266 138.441 31.0336 138.986 30.6428C139.53 30.2519 139.924 29.6866 140.103 29.0407H140.171V30.9644ZM148.316 20.6369H145.053L144.997 30.9869H148.372V24.9007C148.346 24.6891 148.366 24.4745 148.429 24.2711C148.493 24.0676 148.599 23.88 148.741 23.7206C148.881 23.5612 149.056 23.4335 149.25 23.3459C149.444 23.2585 149.655 23.2133 149.868 23.2132C150.791 23.2132 151.297 23.7757 151.297 24.8107V30.9869H154.503V24.8782C154.476 24.6693 154.493 24.4569 154.555 24.2553C154.617 24.0538 154.721 23.8679 154.861 23.7101C155 23.5523 155.172 23.4263 155.365 23.3405C155.557 23.2548 155.766 23.2114 155.977 23.2132C156.922 23.2132 157.428 23.7307 157.428 24.8557V30.9869H160.803V23.9557C160.837 23.4977 160.773 23.0377 160.617 22.6058C160.461 22.1739 160.216 21.7796 159.897 21.4485C159.579 21.1175 159.195 20.8571 158.769 20.6844C158.344 20.5116 157.887 20.4303 157.428 20.4457C156.725 20.4154 156.031 20.6202 155.457 21.0275C154.882 21.4349 154.459 22.0217 154.256 22.6957H154.188C154.08 22.0288 153.725 21.4271 153.194 21.0102C152.661 20.5933 151.993 20.3918 151.319 20.4457C150.658 20.4334 150.01 20.6411 149.479 21.036C148.948 21.4309 148.562 21.9909 148.383 22.6282H148.316V20.6369Z" fill="#626981"/>
</svg>
