<svg width="188" height="48" viewBox="0 0 188 48" fill="none" xmlns="http://www.w3.org/2000/svg">
<path fill-rule="evenodd" clip-rule="evenodd" d="M54.8627 24C54.8627 33.6986 47.0004 41.561 37.3017 41.561C27.603 41.561 19.7407 33.6986 19.7407 24C19.7407 14.3013 27.603 6.43903 37.3017 6.43903C47.0004 6.43903 54.8627 14.3013 54.8627 24ZM41.2881 13.7104C42.1276 13.1123 43.0468 13.6724 42.7801 14.6197L40.1397 24H44.8195C45.8018 24 45.945 25.2923 45.0346 25.9409L33.3154 34.2896C32.4758 34.8877 31.5566 34.3276 31.8233 33.3803L33.9837 25.7052L38.8844 23.9761H32.8699V24H29.7839C28.8016 24 28.6584 22.7078 29.5688 22.0591L41.2881 13.7104ZM75.1702 31.0243H64.6758V15.957H68.4057V27.8633H75.1702V31.0243ZM79.1119 25.6507C79.1119 27.6105 79.8916 28.9171 81.3878 28.9171C82.884 28.9171 83.6847 27.6105 83.6847 25.6507C83.6847 23.6909 82.884 22.3633 81.3878 22.3633C79.8916 22.3633 79.1119 23.6909 79.1119 25.6507ZM87.1618 25.6507C87.1618 28.896 84.8859 31.3615 81.4088 31.3615C77.9528 31.3615 75.6348 28.896 75.6348 25.6507C75.6348 22.4054 77.9528 19.9399 81.4088 19.9399C84.8859 19.9399 87.1618 22.4054 87.1618 25.6507ZM93.1804 34.7543C94.782 34.7543 96.1939 34.396 97.1422 33.5531C98.0061 32.7734 98.5751 31.5933 98.5751 29.9707V20.2349H95.2877V21.3939H95.2456C94.6134 20.4877 93.644 19.9188 92.211 19.9188C89.5347 19.9188 87.6803 22.1525 87.6803 25.3135C87.6803 28.622 89.9351 30.4343 92.3585 30.4343C93.6651 30.4343 94.4869 29.9074 95.1191 29.191H95.2034V30.2657C95.2034 31.5722 94.5923 32.3309 93.1383 32.3309C92.0003 32.3309 91.4313 31.8462 91.2417 31.2772H87.9121C88.2493 33.532 90.2091 34.7543 93.1804 34.7543ZM93.1593 27.8844C91.8739 27.8844 91.0309 26.8308 91.0309 25.2081C91.0309 23.5644 91.8739 22.5108 93.1593 22.5108C94.5923 22.5108 95.3509 23.733 95.3509 25.1871C95.3509 26.7043 94.6555 27.8844 93.1593 27.8844ZM103.059 25.6507C103.059 27.6105 103.838 28.9171 105.335 28.9171C106.831 28.9171 107.632 27.6105 107.632 25.6507C107.632 23.6909 106.831 22.3633 105.335 22.3633C103.838 22.3633 103.059 23.6909 103.059 25.6507ZM111.109 25.6507C111.109 28.896 108.833 31.3615 105.356 31.3615C101.9 31.3615 99.5816 28.896 99.5816 25.6507C99.5816 22.4054 101.9 19.9399 105.356 19.9399C108.833 19.9399 111.109 22.4054 111.109 25.6507ZM112.111 31.0243H115.546V20.2348H112.111V31.0243ZM112.111 18.7386H115.546V15.957H112.111V18.7386ZM120.472 34.5857H117.037V20.2349H120.325V21.5414H120.388C121.125 20.572 122.179 19.9188 123.654 19.9188C126.52 19.9188 128.269 22.3843 128.269 25.6296C128.269 29.1277 126.394 31.3615 123.57 31.3615C122.179 31.3615 121.189 30.8136 120.514 29.9074H120.472V34.5857ZM120.367 25.756C120.367 27.5051 121.21 28.7063 122.685 28.7063C123.991 28.7063 124.792 27.5894 124.792 25.756C124.792 23.9016 124.097 22.6793 122.622 22.6793C121.125 22.6793 120.367 24.007 120.367 25.756ZM133.862 31.3615C136.685 31.3615 138.772 30.1392 138.772 27.7791C138.772 25.0185 136.538 24.5338 134.641 24.2177C134.473 24.1866 134.307 24.1577 134.145 24.1296L134.143 24.1293L134.143 24.1293L134.143 24.1293C132.988 23.9288 132.049 23.7658 132.049 23.1008C132.049 22.4265 132.703 22.1104 133.545 22.1104C134.494 22.1104 135.147 22.4054 135.273 23.3748H138.434C138.266 21.2464 136.622 19.9188 133.567 19.9188C131.017 19.9188 128.909 21.0989 128.909 23.3748C128.909 25.9035 130.911 26.4093 132.787 26.7254C132.937 26.7518 133.085 26.7767 133.231 26.801C134.479 27.0097 135.526 27.185 135.526 28.053C135.526 28.7484 134.873 29.1277 133.84 29.1277C132.703 29.1277 131.986 28.6009 131.86 27.5262H128.614C128.72 29.9074 130.701 31.3615 133.862 31.3615ZM146.662 29.6968C145.882 30.7504 144.934 31.3405 143.438 31.3405C140.951 31.3405 139.644 29.7179 139.644 27.3155V20.2349H143.058V26.599C143.058 27.7791 143.585 28.4324 144.681 28.4324C145.861 28.4324 146.577 27.5473 146.577 26.2619V20.2349H150.012V31.0244H146.725V29.6968H146.662ZM151.506 31.0243H154.941V24.9763C154.941 23.6909 155.573 22.7847 156.648 22.7847C157.68 22.7847 158.165 23.4591 158.165 24.6181V31.0243H161.6V24.9763C161.6 23.6909 162.211 22.7847 163.307 22.7847C164.339 22.7847 164.824 23.4591 164.824 24.6181V31.0243H168.259V24.007C168.259 21.5835 167.037 19.9188 164.592 19.9188C163.202 19.9188 162.042 20.5088 161.2 21.8153H161.157C160.61 20.6563 159.535 19.9188 158.123 19.9188C156.563 19.9188 155.531 20.6563 154.857 21.7732H154.793V20.2349H151.506V31.0243Z" fill="#626981"/>
</svg>
