<svg width="188" height="48" viewBox="0 0 188 48" fill="none" xmlns="http://www.w3.org/2000/svg">
<g clip-path="url(#clip0_403_3176)">
<path fill-rule="evenodd" clip-rule="evenodd" d="M104.374 0.0523104C104.259 -0.0507552 104.036 0.0048206 103.821 0.163414C102.583 1.07777 104.991 3.67446 106.395 5.1879L106.395 5.18796C106.754 5.57517 107.047 5.89147 107.197 6.09053C107.228 6.13764 107.294 6.12099 107.371 6.06633C107.443 6.01681 107.488 5.95282 107.495 5.89224C107.512 5.82136 107.51 5.75342 107.49 5.70608C106.939 3.67389 106.05 1.45407 104.374 0.0523104ZM112.669 1.28704C112.848 1.38814 112.948 1.48457 112.998 1.59232C113.071 1.73366 113.033 1.83145 112.909 1.88135C111.993 2.31844 110.827 3.94651 110.112 4.94592L110.112 4.94597L110.112 4.946C109.959 5.15886 109.827 5.3432 109.722 5.48143C109.578 5.66254 109.244 5.5573 109.194 5.25948C109.204 4.92274 110.515 2.44558 111.246 1.77088C111.267 1.7516 111.289 1.73096 111.312 1.70938C111.604 1.43615 112.057 1.0123 112.669 1.28704ZM127.288 6.0681C127.302 6.02612 127.302 5.95616 127.302 5.9002C127.203 5.89276 127.104 5.88138 127.008 5.87024C126.922 5.86042 126.839 5.85079 126.758 5.84423C126.687 5.84423 126.615 5.83024 126.558 5.78826C126.458 5.74628 126.415 5.69032 126.4 5.59237C126.4 5.49443 126.458 5.42447 126.558 5.3825C126.6 5.35135 126.658 5.34331 126.715 5.33552C126.735 5.33281 126.754 5.33013 126.772 5.32652L126.773 5.32649C126.901 5.31252 127.03 5.29854 127.159 5.29854C127.517 5.29854 127.874 5.29854 128.232 5.28455C128.332 5.28455 128.447 5.29854 128.533 5.34052C128.762 5.45246 128.762 5.69032 128.547 5.80225C128.475 5.84423 128.39 5.85822 128.289 5.87221C128.172 5.87221 128.044 5.88376 127.903 5.89636L127.86 5.9002V6.01213C127.874 6.55782 127.903 7.11749 128.046 7.64919C128.075 7.77511 128.075 7.90105 128.017 8.02697C127.903 8.27883 127.617 8.3208 127.431 8.11093C127.316 7.99911 127.288 7.85937 127.259 7.7196L127.259 7.71915C127.216 7.15947 127.216 6.61379 127.288 6.0681ZM131.252 6.57181C131.252 6.57181 131.237 6.55782 131.237 6.54383C131.223 6.55776 131.212 6.5717 131.202 6.58564C131.191 6.59969 131.18 6.61373 131.166 6.62777C131.101 6.72591 131.03 6.82405 130.958 6.92219C130.886 7.01994 130.815 7.11769 130.751 7.21543L130.679 7.28539C130.55 7.41133 130.422 7.42531 130.264 7.31339C130.107 7.17347 129.978 7.00556 129.849 6.83765C129.821 6.79568 129.792 6.75371 129.763 6.69773C129.733 6.80492 129.717 6.89176 129.701 6.98186C129.694 7.02114 129.686 7.06103 129.677 7.10351L129.676 7.10987C129.634 7.34561 129.591 7.58148 129.534 7.83109C129.52 7.90105 129.506 7.97101 129.463 8.05495C129.42 8.16689 129.32 8.20887 129.177 8.19487C129.062 8.18089 128.976 8.11092 128.948 7.99899C128.919 7.94301 128.905 7.87305 128.919 7.81709C128.919 7.56523 128.933 7.31339 128.962 7.06153C128.991 6.83682 129.023 6.61212 129.055 6.38741C129.087 6.16438 129.119 5.94134 129.148 5.7183C129.152 5.70103 129.155 5.68508 129.158 5.66965C129.165 5.63509 129.171 5.60308 129.191 5.56439C129.262 5.43846 129.377 5.35451 129.52 5.34052C129.677 5.34052 129.778 5.41048 129.863 5.5364C129.878 5.56439 129.892 5.59237 129.921 5.62036C130.032 5.82148 130.138 6.02762 130.246 6.23577C130.318 6.37517 130.39 6.51547 130.465 6.65576C130.465 6.65576 130.479 6.66975 130.493 6.69773C130.522 6.65576 130.536 6.61379 130.55 6.55782C130.631 6.40939 130.698 6.25396 130.766 6.09648L130.766 6.09625L130.766 6.0955C130.794 6.03063 130.822 5.96542 130.851 5.9002C130.908 5.77427 130.98 5.66233 131.066 5.5504C131.137 5.42447 131.266 5.34052 131.438 5.3685C131.609 5.38249 131.71 5.48044 131.752 5.62036C131.824 5.84423 131.896 6.08209 131.953 6.33395C131.997 6.54156 132.029 6.75283 132.062 6.96589L132.062 6.96618L132.062 6.96645L132.063 6.96672C132.094 7.16981 132.126 7.37452 132.167 7.57923C132.196 7.71915 132.182 7.84507 132.125 7.97101C131.996 8.22285 131.71 8.25084 131.524 8.01297C131.438 7.91503 131.423 7.80309 131.409 7.67717C131.372 7.36026 131.323 7.04335 131.274 6.71718L131.252 6.57181ZM98.1914 6.79179C98.1455 6.63256 98.1645 6.44098 98.264 6.17507C98.6693 5.34212 99.545 5.39972 100.11 5.43687C100.154 5.43981 100.197 5.44262 100.237 5.44485C101.643 5.52718 105.327 7.03719 105.648 7.38988C105.868 7.75407 105.606 8.16026 105.284 8.09276C105.045 8.03636 104.734 7.95437 104.375 7.85968L104.374 7.85956L104.374 7.85942L104.374 7.85941L104.374 7.8594C102.687 7.41426 99.9383 6.68909 98.5525 7.02413C98.3738 7.0792 98.2422 7.00831 98.1914 6.79179ZM68.321 24.4665C68.7228 24.1741 69.1596 23.9306 69.6218 23.7416C70.1054 23.6065 70.6209 23.6288 71.0903 23.8055C71.5596 23.9823 71.9575 24.3036 72.2234 24.7209C72.4614 25.1372 72.5544 25.6179 72.4887 26.0905C72.4231 26.5629 72.2022 27.0018 71.8592 27.341C71.5933 27.6159 71.2915 27.8553 70.9617 28.0532C70.1737 28.551 69.3819 29.0341 68.5884 29.5183L68.5883 29.5183L68.5882 29.5184C67.9016 29.9373 67.2138 30.357 66.5259 30.7877C66.2225 31.0201 65.9006 31.2285 65.5633 31.4109C65.0503 31.6611 64.464 31.7281 63.9058 31.6003C63.3476 31.4727 62.8526 31.1582 62.5064 30.7114C62.2476 30.3951 62.0292 30.0492 61.856 29.6812C61.4333 28.8126 61.0059 27.9451 60.5781 27.0767L60.578 27.0766C59.5838 25.0586 58.5872 23.0357 57.6414 20.9816C57.0329 19.7424 56.5357 18.3219 56.0533 16.9439L56.0153 16.8354C55.8015 16.4252 55.7597 15.9497 55.899 15.5098C56.0382 15.07 56.3474 14.7006 56.7609 14.4802C57.1743 14.2599 57.6594 14.206 58.1129 14.3299C58.5664 14.4538 58.9526 14.7459 59.1893 15.1438C59.9169 16.0892 60.561 17.0934 61.1145 18.1455C61.8817 19.5346 62.6295 20.9236 63.3706 22.3003L63.3708 22.3006L63.371 22.3009C63.9868 23.445 64.5981 24.5805 65.2121 25.7002C65.2908 25.8366 65.3777 25.9682 65.4722 26.0945C66.4905 25.6759 67.4482 25.1286 68.321 24.4665ZM71.5426 21.595C74.2483 26.3262 79.6336 27.2547 82.8466 23.5791C85.5263 20.6029 85.8515 15.4138 83.5621 11.3438C82.9345 10.1003 81.9211 9.08268 80.6665 8.43623C79.412 7.78978 77.9805 7.54764 76.5767 7.74441C75.4318 7.96327 74.3623 8.46209 73.4678 9.19434C69.2792 12.6919 69.6174 18.2372 71.5426 21.595ZM79.6076 12.5902C80.5197 13.1527 81.2044 14.0066 81.5458 15.0067L81.5068 15.0195C81.915 16.2014 81.9363 17.4783 81.5679 18.6727C81.1996 19.8671 80.4599 20.9196 79.4516 21.684C79.1066 21.9132 78.7148 22.0659 78.3032 22.1316C77.8916 22.1971 77.4704 22.174 77.0689 22.0637C76.6675 21.9535 76.2955 21.7588 75.979 21.4933C75.6625 21.2278 75.4093 20.8979 75.2368 20.5266C73.884 18.25 74.2743 14.4217 76.1344 12.8064C76.5998 12.3856 77.1992 12.1344 77.8318 12.095C78.4643 12.0556 79.0915 12.2305 79.6076 12.5902ZM95.9587 16.6094C95.6298 16.6785 95.2899 16.6827 94.9593 16.6215C94.6287 16.5603 94.3139 16.4351 94.0335 16.2533C93.7882 16.116 93.577 15.9274 93.4151 15.7008C93.2533 15.4743 93.1449 15.2155 93.0976 14.943C93.0503 14.6706 93.0655 14.3913 93.1417 14.1252C93.2181 13.8592 93.3539 13.613 93.5392 13.4043C93.8622 12.9849 94.3206 12.6847 94.84 12.5522C96.1964 12.1673 97.5926 11.9326 99.0026 11.8527C99.3124 11.8174 99.6263 11.8431 99.9258 11.928C100.225 12.0131 100.504 12.1557 100.747 12.3477C100.989 12.5396 101.19 12.777 101.337 13.0458C101.484 13.3146 101.575 13.6095 101.604 13.9131C102.011 15.4043 102.055 16.9679 101.734 18.4791C100.564 23.363 96.5311 25.0418 92.0042 23.4774C90.7335 23.0591 89.6194 22.2798 88.8043 21.239C87.7171 19.9855 86.9462 18.5 86.5538 16.9019C86.2359 15.4788 86.2707 14.0022 86.6555 12.595C87.0402 11.1879 87.7635 9.89105 88.7652 8.8129C89.7158 7.64108 90.9496 6.71886 92.3555 6.12928C93.2438 5.65053 94.2834 5.51441 95.2693 5.74772C95.493 5.80824 95.696 5.92617 95.8573 6.08927C96.0187 6.25239 96.1324 6.45472 96.1869 6.67531C96.2413 6.89589 96.2343 7.1267 96.1668 7.34379C96.0992 7.56087 95.9735 7.75632 95.8027 7.90988C95.4778 8.19739 95.1249 8.45299 94.749 8.67299C93.5925 9.39307 92.5861 10.3209 91.7831 11.4075C91.2567 12.1106 90.8942 12.9179 90.7212 13.7727C90.5481 14.6274 90.5687 15.5088 90.7815 16.3551C91.0765 17.5088 91.7312 18.5444 92.6546 19.3184C95.5164 21.8622 99.2367 19.4074 98.5863 15.9353C98.1005 16.0524 97.6453 16.1729 97.2033 16.2899C96.7814 16.4015 96.3716 16.51 95.9587 16.6094ZM103.347 18.4408C104.401 23.7825 109.214 26.3263 113.442 23.7825C116.941 21.7603 118.892 16.9145 118.034 12.374C117.831 11.0036 117.193 9.73014 116.211 8.73298C115.228 7.73581 113.95 7.06531 112.557 6.81598C111.398 6.67602 110.221 6.82476 109.136 7.24842C104.037 9.28339 102.58 14.6252 103.347 18.4408ZM113.832 12.3358C114.528 13.144 114.91 14.1664 114.912 15.2229C114.918 16.4762 114.525 17.7002 113.785 18.724C113.046 19.7478 111.998 20.5203 110.788 20.9336C110.387 21.0452 109.966 21.0699 109.555 21.0059C109.143 20.9419 108.751 20.7907 108.405 20.563C108.059 20.3353 107.769 20.0365 107.553 19.6875C107.338 19.3385 107.204 18.9477 107.159 18.5426C106.574 15.9606 108.187 12.4503 110.476 11.4837C111.05 11.224 111.698 11.167 112.31 11.3224C112.922 11.4778 113.46 11.836 113.832 12.3358ZM122.309 24.8511C122.245 25.3166 121.995 25.7382 121.613 26.0233C121.231 26.3082 120.749 26.4333 120.273 26.3709C119.797 26.3085 119.366 26.0637 119.074 25.6904C118.783 25.3172 118.655 24.8459 118.719 24.3804C118.783 23.915 119.033 23.4933 119.415 23.2083C119.796 22.9232 120.278 22.7982 120.755 22.8606C121.231 22.923 121.662 23.1677 121.953 23.541C122.245 23.9143 122.373 24.3856 122.309 24.8511ZM121.177 7.69365C121.425 7.32422 121.788 7.04288 122.212 6.8916C122.636 6.74033 123.099 6.72722 123.532 6.85423C123.971 6.96181 124.36 7.21382 124.632 7.56807C124.905 7.92233 125.044 8.35731 125.028 8.80017C124.97 9.51054 124.862 10.2161 124.703 10.9114C124.605 11.4443 124.509 11.9772 124.412 12.5097L124.412 12.5113L124.411 12.5141L124.411 12.5181L124.41 12.5234L124.409 12.53L124.408 12.5315C124.08 14.3433 123.752 16.1516 123.402 17.9448C123.194 18.8733 122.92 19.7636 122.621 20.7047C122.517 20.999 122.343 21.2648 122.114 21.4806C121.971 21.6429 121.789 21.7674 121.584 21.8426C121.379 21.9178 121.159 21.9413 120.942 21.9109C120.725 21.8804 120.52 21.7971 120.345 21.6686C120.17 21.5399 120.032 21.3703 119.942 21.1754C119.787 20.8256 119.703 20.4498 119.694 20.0688C119.694 18.4917 119.694 16.9019 119.798 15.312C119.975 13.0432 120.323 10.7901 120.839 8.57123C120.9 8.27396 121.014 7.98968 121.177 7.73181V7.69365ZM62.7045 36.1401C62.6295 35.7804 62.6716 35.4067 62.8252 35.0715C62.9808 34.7317 63.2429 34.4493 63.5735 34.2647C63.9229 34.0663 64.3331 33.9958 64.7309 34.0657C65.1204 34.1343 65.473 34.333 65.7287 34.6277C66.1225 34.9578 66.4547 35.3525 66.7103 35.794L66.7168 35.8059C67.5899 37.5005 68.4236 39.1944 69.2437 40.9002L69.246 40.905C69.7446 41.9952 70.1769 43.1099 70.5564 44.223C70.7956 44.8933 70.8451 45.6143 70.7 46.3097C70.6741 46.6666 70.5412 47.0083 70.3175 47.2918C70.0894 47.581 69.7776 47.7964 69.4227 47.9099C69.0677 48.0234 68.6861 48.0298 68.3273 47.9284C67.9753 47.8289 67.6615 47.6299 67.4249 47.3568C66.8676 46.86 66.4472 46.2332 66.2029 45.5355C66.1348 45.3392 66.0682 45.1434 66.0018 44.9482L66.0011 44.946C65.8371 44.4637 65.6742 43.9846 65.4908 43.5095C64.8419 41.8344 64.3554 40.677 63.9676 39.7713C63.8953 39.6023 63.8262 39.4417 63.7601 39.2879C63.4726 38.6194 63.2394 38.077 63.031 37.5285C62.8641 37.0806 62.7545 36.6142 62.7045 36.1401ZM75.3516 30.8712C74.0657 30.5455 72.7226 30.4981 71.4162 30.7322C70.4042 30.8296 69.409 31.0578 68.7179 31.5099C68.3664 31.74 68.0822 32.0354 67.9242 32.4109C67.7652 32.7884 67.7449 33.2202 67.8752 33.7013C68.1127 34.5814 68.421 35.437 68.7283 36.29L68.7296 36.2934L68.7794 36.4317L68.7806 36.4348C69.7073 38.916 70.6427 41.3887 71.5867 43.853C71.6967 44.2413 71.8524 44.616 72.0505 44.9693L72.0542 44.9758C72.3159 45.4148 72.6516 45.8074 73.0471 46.1372C73.2449 46.3185 73.4894 46.444 73.7546 46.5001C74.0225 46.5566 74.301 46.5402 74.5598 46.4525C74.8188 46.3649 75.0481 46.2094 75.2229 46.003C75.3948 45.8 75.5074 45.5554 75.5487 45.2952C75.7194 44.588 75.6647 43.8468 75.392 43.1708C75.3073 42.9444 75.2407 42.7129 75.1707 42.4694L75.1698 42.4662L75.1638 42.4455C75.1423 42.3705 75.1204 42.2944 75.0974 42.217C77.2582 41.3912 79.5573 40.2808 80.3658 37.6975C80.6824 36.8048 80.7087 35.8382 80.4413 34.9301C80.1735 34.021 79.6243 33.2153 78.8691 32.6238C77.8414 31.7958 76.6409 31.1976 75.3516 30.8712ZM71.7871 34.0397C71.8296 34.0277 71.8725 34.0166 71.9155 34.0062C73.3222 33.79 74.7614 34.0781 75.9682 34.8173C76.5 35.1789 76.7179 35.5807 76.7553 35.9673C76.7939 36.3654 76.6459 36.7968 76.3485 37.2114C75.7866 37.9947 74.7611 38.6216 73.8348 38.7385C73.1595 37.218 72.4738 35.6359 71.7871 34.0397ZM88.8377 27.7632C87.3533 27.277 85.4563 27.3965 83.9249 28.088C82.3853 28.7833 81.1708 30.0823 81.1684 31.9677C81.1377 32.7414 81.3637 33.504 81.8129 34.1418C82.2603 34.777 82.9053 35.2542 83.6518 35.5027C83.9944 35.6547 84.3504 35.7681 84.7155 35.8843L84.7156 35.8843L84.7158 35.8844L84.7167 35.8847L84.7329 35.8899C84.8613 35.9308 84.991 35.9722 85.1217 36.0157C85.3193 36.0817 85.5209 36.1416 85.7169 36.1998L85.7466 36.2086L85.7475 36.2089L85.7496 36.2095C85.812 36.228 85.8737 36.2463 85.9345 36.2647C86.1995 36.3447 86.4542 36.427 86.6999 36.529C87.6397 36.9389 88.0674 37.4291 88.2097 37.8667C88.3511 38.3011 88.2319 38.7486 87.9352 39.1253C87.6365 39.5043 87.1721 39.7901 86.6783 39.8819C86.1915 39.9725 85.6839 39.8747 85.2643 39.4995L85.2599 39.4958C85.0227 39.2923 84.7585 39.1211 84.4744 38.9869C84.19 38.8335 83.8659 38.7647 83.542 38.789C83.217 38.8135 82.9066 38.9306 82.649 39.1259C82.4052 39.2982 82.2162 39.5346 82.1045 39.8077C81.9922 40.0825 81.9624 40.383 82.0189 40.6737C82.0803 40.9958 82.2189 41.2994 82.4248 41.5579L82.4418 41.5758C83.0943 42.2617 83.9189 42.7687 84.8338 43.0465C85.7463 43.3235 86.717 43.3629 87.6497 43.1607C90.213 42.7323 91.9176 40.9162 92.2687 38.9206C92.6237 36.9026 91.5868 34.7571 88.8022 33.7212L88.7999 33.7203C88.197 33.5016 87.5735 33.3438 86.9735 33.1919L86.9714 33.1914L86.9529 33.1867C86.742 33.1333 86.5341 33.0807 86.3311 33.0262C85.5715 32.8191 85.1962 32.5286 85.0431 32.2698C84.9002 32.028 84.9215 31.7623 85.0931 31.499C85.4529 30.9469 86.4378 30.4976 87.4821 30.7688L87.4906 30.7706C87.6253 30.8014 87.7555 30.8486 87.8782 30.9114L87.8953 30.9202L87.9135 30.9266C88.1532 31.0114 88.4101 31.0385 88.6627 31.0055C88.9153 30.9727 89.1561 30.8807 89.3646 30.7377C89.5732 30.5946 89.7435 30.4045 89.8611 30.1835C89.9766 29.9664 90.0381 29.7258 90.0402 29.4812C90.0738 29.1044 89.9733 28.7275 89.7553 28.4147C89.5359 28.1 89.2116 27.8697 88.8377 27.7632ZM103.34 27.8871C103.043 27.7453 102.715 27.678 102.385 27.6912C102.055 27.7045 101.733 27.7979 101.449 27.9632C101.167 28.1272 100.93 28.357 100.761 28.632C100.606 28.8636 100.498 29.1226 100.445 29.3945C100.391 29.6663 100.393 29.9456 100.449 30.2167C100.504 30.5651 100.565 30.9039 100.626 31.2381C100.726 31.7911 100.824 32.3316 100.888 32.8827L100.89 32.8967C101.037 33.761 101.114 34.6352 101.12 35.5112L101.121 35.5236C101.171 36.4696 100.841 37.3972 100.203 38.1096L100.193 38.1223C99.9848 38.3827 99.7069 38.5814 99.39 38.6963C99.0732 38.8112 98.73 38.8376 98.3987 38.7725C98.0674 38.7075 97.7612 38.5537 97.5142 38.3282C97.2672 38.1027 97.0891 37.8136 97.0001 37.495C96.8103 36.8233 96.7005 36.1324 96.6726 35.4362L96.9968 30.3893C97.0016 30.3235 97.007 30.2558 97.0126 30.1875L97.0131 30.1806C97.0253 30.0296 97.0376 29.876 97.0428 29.7325C97.0504 29.5183 97.0439 29.2979 96.9928 29.0893C96.9406 28.8761 96.8412 28.6733 96.6649 28.5007C96.4904 28.3297 96.2547 28.2036 95.9582 28.1177C95.422 27.966 94.9687 27.9708 94.5909 28.1276C94.2129 28.2843 93.9539 28.5754 93.7706 28.9116C93.5888 29.245 93.4719 29.6397 93.3836 30.035C93.318 30.3284 93.2653 30.6363 93.2152 30.9295C93.1979 31.0305 93.181 31.1296 93.1639 31.226L93.1634 31.2288C92.8955 32.8364 92.8157 34.4686 92.9257 36.0938C92.9462 36.9721 93.1335 37.8391 93.4783 38.6504C93.8672 39.6972 94.5716 40.6042 95.4985 41.2516C96.4274 41.9004 97.5359 42.2579 98.6772 42.2768C99.8185 42.2956 100.939 41.975 101.89 41.3575C102.839 40.7408 103.575 39.8569 103.999 38.8228C104.594 37.5056 104.873 36.073 104.815 34.6343C104.78 33.5851 104.722 32.5279 104.664 31.476V31.476L104.664 31.4725C104.635 30.956 104.607 30.4405 104.581 29.9282C104.568 29.4145 104.395 28.9169 104.084 28.5023C103.892 28.2401 103.637 28.0287 103.34 27.8871ZM113.82 35.838C113.83 35.8254 113.84 35.813 113.85 35.8007C114.128 35.4561 114.408 35.1065 114.688 34.7559L114.735 34.697C115.223 34.0877 115.713 33.4745 116.206 32.8731L116.21 32.8695C116.662 32.337 117.149 31.8342 117.669 31.3644C117.959 31.0448 118.347 30.8243 118.775 30.7348C119.205 30.6447 119.654 30.6924 120.055 30.8706C120.441 31.0243 120.767 31.293 120.987 31.6386C121.207 31.983 121.31 32.386 121.282 32.7905C121.286 34.0706 121.225 35.3499 121.099 36.624L121.098 36.6276C120.967 37.7896 120.812 38.9743 120.656 40.1594L120.655 40.1652C120.52 41.195 120.385 42.2251 120.266 43.2414C120.186 43.9611 119.897 44.6432 119.433 45.2067C119.233 45.5051 118.947 45.7392 118.612 45.8791C118.271 46.0213 117.894 46.0599 117.531 45.9902C117.167 45.9204 116.834 45.7454 116.573 45.4878C116.315 45.2323 116.14 44.9075 116.072 44.5546C115.914 43.9275 115.913 43.2723 116.071 42.645C116.312 41.2298 116.539 39.8149 116.768 38.3881L116.934 37.3501L114.117 39.6701L113.754 39.9357C113.571 40.0719 113.359 40.168 113.134 40.2162C112.909 40.2645 112.676 40.2643 112.451 40.2156C112.226 40.1668 112.014 40.0708 111.831 39.934C111.65 39.7988 111.5 39.6271 111.393 39.4307C110.827 38.5032 110.414 37.4943 110.169 36.441C110.153 36.3884 110.136 36.336 110.12 36.2822C109.887 36.7184 109.682 37.119 109.47 37.5663C108.925 38.7227 108.376 39.884 107.803 41.0315C107.608 41.4165 107.37 41.78 107.093 42.1133C106.876 42.3839 106.573 42.5763 106.232 42.6604C105.89 42.7446 105.529 42.7153 105.207 42.5769C104.902 42.4481 104.647 42.2293 104.476 41.9511C104.309 41.6785 104.231 41.3623 104.253 41.0454C104.235 40.6914 104.289 40.3373 104.412 40.0039C104.481 39.7937 104.55 39.5829 104.618 39.3721C104.96 38.3156 105.303 37.2559 105.719 36.2502L105.721 36.2452C106.397 34.6965 107.094 33.1599 107.785 31.6335L107.788 31.6265L107.793 31.6159C108.071 31.0036 108.348 30.3929 108.622 29.7837C108.743 29.501 108.904 29.2363 109.101 28.9977C109.338 28.6868 109.663 28.451 110.036 28.3197C110.41 28.1882 110.816 28.1677 111.201 28.2607C111.588 28.3463 111.939 28.5433 112.21 28.8264C112.481 29.1102 112.659 29.4675 112.719 29.8514L112.723 29.8727V29.8941C112.723 30.08 112.728 30.1672 112.784 30.2561L112.814 30.3033L112.823 30.358C112.904 30.848 112.985 31.3395 113.066 31.8289C113.29 33.1928 113.514 34.5547 113.755 35.9171C113.777 35.8901 113.799 35.8637 113.82 35.838Z" fill="#626981"/>
</g>
<defs>
<clipPath id="clip0_403_3176">
<rect width="187" height="48" fill="white" transform="translate(0.5)"/>
</clipPath>
</defs>
</svg>
