<svg width="188" height="48" viewBox="0 0 188 48" fill="none" xmlns="http://www.w3.org/2000/svg">
<path fill-rule="evenodd" clip-rule="evenodd" d="M20.7589 24.3047C20.5621 24.8554 20.246 25.3558 19.8332 25.7704H19.8353C19.3604 26.2465 18.7727 26.5952 18.1268 26.7842C17.4809 26.9731 16.7977 26.9963 16.1405 26.8515C15.4833 26.7066 14.8733 26.3985 14.3671 25.9556C13.8609 25.5128 13.4748 24.9495 13.2447 24.318C13.0145 23.6866 12.9478 23.0073 13.0506 22.3432C13.1534 21.6791 13.4224 21.0516 13.8327 20.5191C14.2431 19.9864 14.7814 19.5658 15.3979 19.2962C16.0144 19.0266 16.6891 18.9166 17.3595 18.9766L17.3399 18.9571C18.0259 19.0149 18.7164 18.9225 19.363 18.6864C20.0096 18.4503 20.5968 18.0762 21.0837 17.5901C21.5705 17.104 21.9452 16.5178 22.1817 15.8722C22.4182 15.2266 22.5108 14.5372 22.4528 13.8522L22.4724 13.8718C22.3955 13.0527 22.5736 12.2298 22.9824 11.5154C23.3911 10.801 24.0106 10.2299 24.7564 9.87987C25.5021 9.52989 26.3378 9.41807 27.1496 9.55969C27.9613 9.70131 28.7096 10.0895 29.2922 10.6712C29.8749 11.253 30.2637 12 30.4056 12.8105C30.5474 13.6209 30.4354 14.4553 30.0849 15.1999C29.7342 15.9445 29.1623 16.563 28.4467 16.9711C27.7312 17.3792 26.907 17.557 26.0866 17.4802L26.1073 17.4998C25.421 17.4416 24.7303 17.5337 24.0834 17.7697C23.4365 18.0056 22.8491 18.3797 22.362 18.8658C21.8749 19.3519 21.4999 19.9383 21.2633 20.5841C21.0267 21.2299 20.9342 21.9195 20.9921 22.6046L20.9714 22.585C21.0282 23.1669 20.9556 23.7541 20.7589 24.3047ZM27.1334 27.953L27.1127 27.9334C27.6958 27.9921 28.2847 27.9206 28.8368 27.7242C29.3888 27.5278 29.8903 27.2114 30.3049 26.7979C30.7194 26.3843 31.0368 25.8838 31.2338 25.3327C31.431 24.7817 31.503 24.1939 31.4447 23.6116L31.4654 23.6312C31.4074 22.9462 31.5 22.2569 31.7364 21.6112C31.9729 20.9657 32.3477 20.3794 32.8345 19.8933C33.3214 19.4073 33.9086 19.0331 34.5552 18.7971C35.2019 18.5609 35.8922 18.4686 36.5783 18.5264L36.5576 18.5068C37.3784 18.5838 38.2029 18.4061 38.9187 17.9979C39.6347 17.5898 40.207 16.9712 40.5577 16.2264C40.9084 15.4816 41.0205 14.6469 40.8787 13.8361C40.7369 13.0254 40.348 12.278 39.7651 11.696C39.1822 11.1141 38.4337 10.7258 37.6216 10.5842C36.8096 10.4425 35.9736 10.5545 35.2276 10.9047C34.4815 11.2549 33.862 11.8263 33.4532 12.541C33.0444 13.2558 32.8664 14.079 32.9435 14.8984L32.9239 14.8777C32.982 15.5628 32.8896 16.2522 32.6532 16.8979C32.4169 17.5436 32.042 18.1299 31.5553 18.6161C31.0684 19.1021 30.481 19.4763 29.8343 19.7123C29.1875 19.9483 28.4971 20.0405 27.811 19.9826L27.8306 20.0032C27.2475 19.9446 26.6585 20.0161 26.1065 20.2125C25.5545 20.4088 25.053 20.7252 24.6384 21.1388C24.2238 21.5524 23.9065 22.0529 23.7094 22.6039C23.5123 23.155 23.4403 23.7428 23.4986 24.325L23.479 24.3055C23.5367 24.9904 23.444 25.6797 23.2076 26.3252C22.971 26.9707 22.5963 27.5569 22.1095 28.043C21.6226 28.529 21.0355 28.9031 20.389 29.1393C19.7424 29.3754 19.0521 29.4679 18.366 29.4103L18.3857 29.4299C17.5649 29.3529 16.7404 29.5306 16.0245 29.9387C15.3087 30.3469 14.7363 30.9655 14.3856 31.7103C14.0348 32.4552 13.9227 33.2898 14.0646 34.1006C14.2064 34.9113 14.5953 35.6587 15.1782 36.2406C15.7611 36.8226 16.5096 37.2109 17.3217 37.3525C18.1337 37.4941 18.9698 37.3822 19.7157 37.032C20.4617 36.6818 21.0814 36.1104 21.4901 35.3957C21.8989 34.6809 22.0769 33.8577 21.9998 33.0383L22.0205 33.0579C21.9625 32.3728 22.0551 31.6836 22.2916 31.0379C22.528 30.3923 22.9028 29.8061 23.3896 29.3199C23.8765 28.8339 24.4637 28.4597 25.1103 28.2237C25.7569 27.9876 26.4473 27.8952 27.1334 27.953ZM35.1688 22.2272C34.756 22.6419 34.4399 23.1424 34.243 23.6929C34.046 24.2435 33.9732 24.8306 34.0295 25.4126L34.0099 25.393C34.0678 26.078 33.9752 26.7673 33.7388 27.413C33.5023 28.0585 33.1276 28.6448 32.6408 29.1309C32.1539 29.6169 31.5667 29.9911 30.92 30.2271C30.2734 30.4632 29.5829 30.5557 28.8969 30.4978L28.9165 30.5174C28.0959 30.4412 27.2717 30.6194 26.5561 31.028C25.8407 31.4366 25.2689 32.0555 24.9187 32.8004C24.5685 33.5454 24.4568 34.38 24.5991 35.1906C24.7414 36.0011 25.1306 36.7481 25.7137 37.3298C26.2968 37.9114 27.0453 38.2993 27.8572 38.4405C28.6693 38.5819 29.5051 38.4697 30.2509 38.1194C30.9967 37.769 31.616 37.1976 32.0246 36.4829C32.4332 35.7682 32.6111 34.9451 32.5339 34.1258L32.5546 34.1454C32.4967 33.4605 32.5892 32.7711 32.8256 32.1254C33.0621 31.4799 33.4369 30.8936 33.9237 30.4075C34.4106 29.9214 34.9978 29.5472 35.6444 29.3112C36.2911 29.0751 36.9815 28.9827 37.6676 29.0405L37.6469 29.021C38.3172 29.0811 38.992 28.9714 39.6086 28.7019C40.2252 28.4324 40.7637 28.0119 41.1741 27.4793C41.5845 26.9467 41.8538 26.3192 41.9566 25.6552C42.0596 24.991 41.9929 24.3118 41.7629 23.6801C41.5328 23.0486 41.1468 22.4853 40.6406 22.0423C40.1344 21.5994 39.5244 21.2912 38.8672 21.1463C38.2099 21.0015 37.5266 21.0245 36.8807 21.2134C36.2348 21.4024 35.6471 21.7511 35.1721 22.2272H35.1688ZM56.9175 14.486H60.4815V31.8296H56.9175V14.486ZM63.5488 22.3858C62.86 23.4246 62.4949 24.6445 62.4999 25.8908C62.4937 26.7182 62.6526 27.5385 62.9673 28.3038C63.2818 29.069 63.7457 29.7639 64.332 30.3478C64.9182 30.9316 65.6149 31.3928 66.3815 31.7043C67.1481 32.0158 67.969 32.1715 68.7963 32.162C70.0427 32.162 71.2609 31.792 72.297 31.099C73.333 30.4062 74.14 29.4212 74.6158 28.2693C75.0916 27.1173 75.2148 25.85 74.9698 24.6279C74.7247 23.4058 74.1226 22.284 73.2395 21.4045C72.3564 20.5249 71.2321 19.9273 70.0091 19.6872C68.7861 19.447 67.5193 19.5753 66.3693 20.0558C65.2192 20.5362 64.2376 21.3471 63.5488 22.3858ZM71.0316 24.3931C71.3409 24.8326 71.5138 25.3536 71.5287 25.8908C71.5487 26.2585 71.4923 26.6263 71.3631 26.971C71.2339 27.3158 71.0346 27.6301 70.7779 27.8941C70.5213 28.158 70.2126 28.3658 69.8716 28.5045C69.5304 28.6432 69.1643 28.7098 68.7963 28.7C68.2589 28.7 67.7333 28.5416 67.2853 28.2446C66.8375 27.9476 66.4871 27.5252 66.2779 27.0301C66.0688 26.535 66.0103 25.9892 66.1097 25.4611C66.2089 24.9328 66.4619 24.4456 66.8365 24.0604C67.2113 23.6751 67.6913 23.409 68.2165 23.295C68.7418 23.181 69.2889 23.2244 69.7896 23.4198C70.2903 23.615 70.7223 23.9536 71.0316 24.3931ZM89.2971 19.9508V31.2308C89.2971 35.222 86.1843 36.9092 83.0247 36.9092C81.9123 36.9925 80.7983 36.7678 79.8051 36.2598C78.8119 35.7517 77.9778 34.98 77.3943 34.0292L80.4351 32.2712C80.6803 32.7668 81.0712 33.1757 81.5551 33.4432C82.0392 33.7105 82.5934 33.8238 83.1435 33.7676C83.4951 33.8164 83.8531 33.7854 84.1912 33.677C84.5291 33.5687 84.8385 33.3857 85.0962 33.1417C85.354 32.8976 85.5535 32.5988 85.6803 32.2672C85.8069 31.9356 85.8573 31.5798 85.8279 31.226V30.14C85.4105 30.6506 84.8794 31.0564 84.2769 31.3246C83.6743 31.5928 83.0175 31.716 82.3587 31.6844C80.7912 31.635 79.3045 30.9776 78.2133 29.8513C77.122 28.7251 76.5118 27.2184 76.5118 25.6502C76.5118 24.0821 77.122 22.5754 78.2133 21.4492C79.3045 20.3228 80.7912 19.6655 82.3587 19.616C83.0175 19.5845 83.6743 19.7077 84.2769 19.9759C84.8794 20.2441 85.4105 20.6498 85.8279 21.1604V19.9484L89.2971 19.9508ZM85.8291 25.652C85.8531 25.0777 85.7045 24.5093 85.4027 24.02C85.1009 23.5307 84.6595 23.143 84.1355 22.9067C83.6115 22.6703 83.0287 22.5962 82.4622 22.6939C81.8957 22.7916 81.3714 23.0566 80.9567 23.4548C80.5421 23.853 80.2561 24.3661 80.1355 24.9282C80.0151 25.4903 80.0655 26.0756 80.2805 26.6088C80.4954 27.142 80.865 27.5987 81.3417 27.92C81.8183 28.2414 82.3803 28.4128 82.9551 28.412C83.3296 28.4382 83.7053 28.3856 84.0582 28.2577C84.4111 28.1298 84.7333 27.9293 85.0041 27.6694C85.2748 27.4093 85.4881 27.0955 85.6302 26.748C85.7723 26.4006 85.8401 26.0273 85.8291 25.652ZM92.3644 22.3858C91.6755 23.4246 91.3106 24.6445 91.3155 25.8908C91.3094 26.7182 91.4682 27.5385 91.7829 28.3038C92.0974 29.069 92.5613 29.7639 93.1476 30.3478C93.7338 30.9316 94.4305 31.3928 95.1971 31.7043C95.9636 32.0158 96.7846 32.1715 97.6119 32.162C98.8583 32.162 100.077 31.792 101.113 31.099C102.149 30.4062 102.956 29.4212 103.431 28.2693C103.907 27.1173 104.03 25.85 103.785 24.6279C103.54 23.4058 102.938 22.284 102.055 21.4045C101.172 20.5249 100.048 19.9273 98.8247 19.6872C97.6017 19.447 96.335 19.5753 95.1849 20.0558C94.0348 20.5362 93.0532 21.3471 92.3644 22.3858ZM99.8472 24.3931C100.156 24.8326 100.329 25.3536 100.344 25.8908C100.364 26.2585 100.308 26.6263 100.179 26.971C100.05 27.3158 99.8502 27.6301 99.5936 27.8941C99.3369 28.158 99.0282 28.3658 98.6871 28.5045C98.346 28.6432 97.9799 28.7098 97.6119 28.7C97.0744 28.7 96.5489 28.5416 96.101 28.2446C95.6531 27.9476 95.3027 27.5252 95.0936 27.0301C94.8844 26.535 94.8258 25.9892 94.9252 25.4611C95.0246 24.9328 95.2775 24.4456 95.6522 24.0604C96.0269 23.6751 96.5069 23.409 97.0322 23.295C97.5573 23.181 98.1045 23.2244 98.6052 23.4198C99.1059 23.615 99.5379 23.9536 99.8472 24.3931ZM105.57 16.7672C105.57 16.3442 105.696 15.9308 105.931 15.5792C106.166 15.2275 106.5 14.9534 106.89 14.7916C107.281 14.6297 107.711 14.5874 108.126 14.6699C108.541 14.7524 108.922 14.9561 109.221 15.2551C109.52 15.5542 109.723 15.9352 109.806 16.35C109.888 16.7648 109.846 17.1948 109.684 17.5855C109.522 17.9763 109.248 18.3102 108.897 18.5452C108.545 18.7802 108.132 18.9056 107.709 18.9056C107.143 18.8999 106.603 18.6729 106.203 18.273C105.803 17.8732 105.576 17.3326 105.57 16.7672ZM105.93 19.9508H109.495V31.8308H105.925L105.93 19.9508ZM124.548 28.2023C124.811 27.4615 124.925 26.676 124.884 25.8908C124.926 25.1056 124.812 24.3198 124.548 23.5789C124.285 22.8379 123.878 22.1563 123.35 21.5734C122.822 20.9904 122.184 20.5176 121.473 20.1821C120.762 19.8466 119.991 19.655 119.206 19.6184C118.545 19.5824 117.885 19.6937 117.273 19.9442C116.661 20.1947 116.113 20.5782 115.667 21.0668V19.9508H112.103V36.5816H115.667V30.7124C116.112 31.2014 116.661 31.5852 117.273 31.836C117.885 32.0867 118.545 32.198 119.206 32.162C119.991 32.1253 120.762 31.9337 121.473 31.5983C122.184 31.2628 122.821 30.79 123.349 30.2072C123.877 29.6244 124.284 28.943 124.548 28.2023ZM120.81 24.3397C121.129 24.7954 121.306 25.3349 121.32 25.8908C121.347 26.2721 121.293 26.6548 121.161 27.0136C121.029 27.3724 120.823 27.6992 120.556 27.973C120.29 28.2466 119.968 28.4608 119.613 28.6013C119.257 28.7419 118.876 28.8059 118.494 28.7888C117.938 28.789 117.394 28.6249 116.931 28.3175C116.467 28.0099 116.105 27.5726 115.889 27.0601C115.673 26.5476 115.613 25.9829 115.716 25.4364C115.819 24.8898 116.082 24.386 116.47 23.9878C116.858 23.5896 117.355 23.3148 117.899 23.1978C118.443 23.0807 119.009 23.1266 119.527 23.3298C120.044 23.5328 120.491 23.8842 120.81 24.3397ZM135.882 28.2656C135.882 30.998 133.507 32.162 130.942 32.162C129.905 32.2559 128.864 32.0368 127.954 31.5326C127.043 31.0286 126.304 30.263 125.833 29.3348L128.921 27.5768C129.046 28.0058 129.314 28.3792 129.681 28.6342C130.048 28.8893 130.492 29.0108 130.937 28.9784C131.791 28.9784 132.22 28.7168 132.22 28.2428C132.22 27.7711 131.46 27.5592 130.487 27.2884C128.764 26.8082 126.375 26.1425 126.375 23.5148C126.375 20.924 128.561 19.6184 131.032 19.6184C131.961 19.589 132.88 19.8094 133.695 20.2564C134.509 20.7035 135.19 21.3608 135.664 22.16L132.623 23.7992C132.49 23.4881 132.268 23.223 131.985 23.0371C131.701 22.8512 131.37 22.7528 131.032 22.754C130.414 22.754 130.033 22.994 130.033 23.4188C130.035 23.9023 130.781 24.0982 131.739 24.3499C133.465 24.8036 135.882 25.4387 135.882 28.2656ZM148.901 31.8308V19.9508L145.341 19.9544V26.4344C145.341 28.1216 144.438 28.8812 143.132 28.8812C142.847 28.8985 142.563 28.8536 142.299 28.7498C142.033 28.646 141.795 28.4858 141.598 28.2802C141.401 28.0747 141.251 27.8287 141.16 27.5594C141.067 27.2902 141.035 27.0042 141.065 26.7212V19.9508H137.501V27.2432C137.501 30.4532 139.541 32.1632 141.941 32.1632C142.582 32.2074 143.223 32.099 143.813 31.847C144.404 31.595 144.925 31.2066 145.337 30.7136V31.8308H148.901ZM169.337 24.536V31.8296H165.773V24.8444C165.773 23.6564 165.203 22.8968 164.063 22.8968C162.875 22.8968 162.209 23.7284 162.209 25.13V31.8296H158.646V24.8444C158.646 23.6564 158.076 22.8968 156.935 22.8968C155.747 22.8968 155.082 23.7284 155.082 25.13V31.8296H151.518V19.9496H155.082V21.0416C155.452 20.5571 155.937 20.1729 156.492 19.9241C157.049 19.6752 157.659 19.5698 158.266 19.6172C158.875 19.5873 159.483 19.716 160.029 19.9907C160.573 20.2653 161.038 20.6766 161.377 21.1844C161.772 20.6531 162.295 20.2307 162.898 19.9566C163.5 19.6826 164.163 19.5658 164.823 19.6172C167.55 19.6184 169.337 21.566 169.337 24.536ZM174.996 17.2328C174.996 18.6935 173.812 19.8776 172.351 19.8776C170.891 19.8776 169.707 18.6935 169.707 17.2328C169.707 15.7721 170.891 14.588 172.351 14.588C173.812 14.588 174.996 15.7721 174.996 17.2328Z" fill="#626981"/>
</svg>
