<svg width="188" height="48" viewBox="0 0 188 48" fill="none" xmlns="http://www.w3.org/2000/svg">
<path fill-rule="evenodd" clip-rule="evenodd" d="M33.1754 21.2316C26.763 21.2316 21.4821 16.3868 20.7936 10.158H29.7027C30.2528 11.5368 31.6003 12.5111 33.1754 12.5111C34.7504 12.5111 36.0979 11.5368 36.6479 10.158H45.557C44.8685 16.3868 39.5876 21.2316 33.1754 21.2316ZM68.0329 33.8534C69.0046 34.8928 70.4056 35.4125 72.2358 35.4125C74.0661 35.4125 75.467 34.8928 76.4387 33.8534C77.4103 32.8139 77.8961 31.3452 77.8961 29.4471V16.9741C77.8961 15.076 77.4103 13.6073 76.4387 12.5679C75.467 11.5284 74.0661 11.0087 72.2358 11.0087C70.4056 11.0087 69.0046 11.5284 68.0329 12.5679C67.0613 13.6073 66.5755 15.076 66.5755 16.9741V29.4471C66.5755 31.3452 67.0613 32.8139 68.0329 33.8534ZM74.1678 29.6844C74.1678 31.2435 73.5238 32.0231 72.2358 32.0231C70.9478 32.0231 70.3038 31.2435 70.3038 29.6844V16.7368C70.3038 15.1777 70.9478 14.3981 72.2358 14.3981C73.5238 14.3981 74.1678 15.1777 74.1678 16.7368V29.6844ZM59.0563 11.3477H55.3279V35.0737H65.1911V31.6842H59.0563V11.3477ZM85.705 35.4125C83.8974 35.4125 82.519 34.9041 81.5699 33.8872C80.6209 32.8479 80.1464 31.3678 80.1464 29.4471V16.9741C80.1464 15.0534 80.6209 13.5847 81.5699 12.5679C82.519 11.5284 83.8974 11.0087 85.705 11.0087C87.5127 11.0087 88.8911 11.5284 89.8401 12.5679C90.7892 13.5847 91.2637 15.0534 91.2637 16.9741V19.0077H87.7387V16.7368C87.7387 15.1777 87.0947 14.3981 85.8067 14.3981C84.5188 14.3981 83.8748 15.1777 83.8748 16.7368V29.7183C83.8748 31.2549 84.5188 32.0231 85.8067 32.0231C87.0947 32.0231 87.7387 31.2549 87.7387 29.7183V25.0748H85.8745V21.6854H91.2637V29.4471C91.2637 31.3678 90.7892 32.8479 89.8401 33.8872C88.8911 34.9041 87.5127 35.4125 85.705 35.4125ZM94.8438 33.8534C95.8154 34.8928 97.2163 35.4125 99.0466 35.4125C100.877 35.4125 102.278 34.8928 103.249 33.8534C104.221 32.8139 104.707 31.3452 104.707 29.4471V16.9741C104.707 15.076 104.221 13.6073 103.249 12.5679C102.278 11.5284 100.877 11.0087 99.0466 11.0087C97.2163 11.0087 95.8154 11.5284 94.8438 12.5679C93.8721 13.6073 93.3863 15.076 93.3863 16.9741V29.4471C93.3863 31.3452 93.8721 32.8139 94.8438 33.8534ZM100.979 29.6844C100.979 31.2435 100.335 32.0231 99.0466 32.0231C97.7587 32.0231 97.1147 31.2435 97.1147 29.6844V16.7368C97.1147 15.1777 97.7587 14.3981 99.0466 14.3981C100.335 14.3981 100.979 15.1777 100.979 16.7368V29.6844ZM107.235 11.3477H110.964V35.0737H107.235V11.3477ZM119.247 11.3477H113.756V35.0737H117.485V25.4138H119.247C121.099 25.4138 122.489 24.9167 123.416 23.9225C124.343 22.9282 124.806 21.4708 124.806 19.5501V17.2114C124.806 15.2907 124.343 13.8333 123.416 12.8391C122.489 11.8448 121.099 11.3477 119.247 11.3477ZM120.603 21.516C120.309 21.8549 119.857 22.0244 119.247 22.0244H117.485V14.7371H119.247C119.857 14.7371 120.309 14.9066 120.603 15.2455C120.919 15.5845 121.077 16.1607 121.077 16.9741V19.7873C121.077 20.6008 120.919 21.177 120.603 21.516ZM131.809 35.4125C130.002 35.4125 128.635 34.9041 127.708 33.8872C126.782 32.8479 126.319 31.3678 126.319 29.4471V28.0913H129.844V29.7183C129.844 31.2549 130.488 32.0231 131.776 32.0231C132.409 32.0231 132.883 31.8423 133.199 31.4808C133.538 31.0967 133.708 30.4866 133.708 29.6505C133.708 28.6563 133.482 27.7863 133.03 27.0407C132.578 26.2724 131.742 25.3572 130.521 24.2952C128.985 22.9394 127.912 21.7193 127.301 20.6347C126.692 19.5274 126.387 18.2847 126.387 16.9063C126.387 15.0308 126.861 13.5847 127.81 12.5679C128.759 11.5284 130.138 11.0087 131.946 11.0087C133.73 11.0087 135.075 11.5284 135.979 12.5679C136.905 13.5847 137.368 15.0534 137.368 16.9741V17.957H133.843V16.7368C133.843 15.9234 133.685 15.3359 133.369 14.9743C133.053 14.5902 132.59 14.3981 131.979 14.3981C130.736 14.3981 130.115 15.1551 130.115 16.6691C130.115 17.5277 130.341 18.3299 130.793 19.0755C131.267 19.8212 132.115 20.725 133.335 21.787C134.894 23.1428 135.967 24.3743 136.555 25.4816C137.142 26.5888 137.436 27.888 137.436 29.3793C137.436 31.3226 136.95 32.8139 135.979 33.8534C135.029 34.8928 133.64 35.4125 131.809 35.4125ZM140.862 33.8873C141.811 34.9042 143.19 35.4125 144.997 35.4125C146.804 35.4125 148.183 34.9042 149.132 33.8873C150.081 32.8479 150.555 31.3679 150.555 29.4472V11.3477H146.963V29.7184C146.963 30.5318 146.793 31.1193 146.454 31.4809C146.138 31.8424 145.675 32.0232 145.065 32.0232C144.455 32.0232 143.98 31.8424 143.641 31.4809C143.325 31.1193 143.167 30.5318 143.167 29.7184V11.3477H139.438V29.4472C139.438 31.3679 139.913 32.8479 140.862 33.8873ZM153.211 11.3477H158.533L160.905 28.3286H160.972L163.346 11.3477H168.667V35.0737H165.141V17.1097H165.074L162.362 35.0737H159.244L156.532 17.1097H156.465V35.0737H153.211V11.3477ZM27.6386 26.7684C27.6386 31.3552 23.9202 35.0736 19.3334 35.0736V29.26C20.7094 29.26 21.8249 28.1444 21.8249 26.7684C21.8249 25.3923 20.7094 24.2768 19.3334 24.2768V18.4632C23.9202 18.4632 27.6386 22.1816 27.6386 26.7684ZM47.0173 21.2316C45.5981 20.7821 44.0868 20.5395 42.5187 20.5395C34.3006 20.5395 27.6386 27.2016 27.6386 35.4196C27.6386 36.2445 27.7057 37.0537 27.8347 37.842H37.0802C36.7502 37.102 36.5667 36.2823 36.5667 35.4196C36.5667 32.1324 39.2315 29.4676 42.5187 29.4676C44.3153 29.4676 45.926 30.2636 47.0173 31.5222V21.2316Z" fill="#626981"/>
</svg>
