<svg width="188" height="48" viewBox="0 0 188 48" fill="none" xmlns="http://www.w3.org/2000/svg">
<path fill-rule="evenodd" clip-rule="evenodd" d="M82.1518 24C82.1518 12.9543 73.1975 4 62.1518 4C51.1062 4 42.1519 12.9543 42.1519 24C42.1519 35.0457 51.1062 44 62.1518 44C73.1975 44 82.1518 35.0457 82.1518 24ZM55.2882 10.7174C56.9747 7.65108 59.1474 5.81769 61.4289 5.49659V12.6819C58.7852 12.7344 56.2661 13.0742 53.9729 13.6504C54.3576 12.5895 54.799 11.6068 55.2882 10.7174ZM54.0214 10.0206C53.3461 11.2484 52.7609 12.6296 52.2826 14.1308C50.7814 14.6091 49.4003 15.1943 48.1725 15.8696C46.6524 16.7056 45.3398 17.6978 44.3316 18.8157C46.0971 12.7368 50.8886 7.94523 56.9675 6.17977C55.8496 7.18795 54.8574 8.50059 54.0214 10.0206ZM50.8337 23.2771C50.8863 20.6334 51.226 18.1143 51.8022 15.8211C50.7413 16.2058 49.7587 16.6472 48.8693 17.1364C45.8029 18.8228 43.9695 20.9954 43.6484 23.2771H50.8337ZM53.442 15.2902C52.7548 17.6834 52.3395 20.392 52.2798 23.2771H55.4019C58.1574 22.2012 60.3526 20.0062 61.4289 17.2508V14.1279C58.5439 14.1876 55.8352 14.603 53.442 15.2902ZM43.6484 24.7229H50.8337C50.8863 27.3666 51.226 29.8857 51.8022 32.1789C50.7413 31.7942 49.7587 31.3528 48.8693 30.8636C45.8029 29.1771 43.9695 27.0046 43.6484 24.7229ZM52.2798 24.7229C52.3395 27.608 52.7548 30.3166 53.442 32.7098C55.8352 33.397 58.5439 33.8124 61.4289 33.8721V30.7492C60.3527 27.9938 58.1574 25.7988 55.4019 24.7229H52.2798ZM48.1725 32.1304C49.4003 32.8057 50.7814 33.3909 52.2826 33.8692C52.7609 35.3704 53.3461 36.7516 54.0214 37.9793C54.8574 39.4994 55.8496 40.812 56.9675 41.8202C50.8886 40.0548 46.0971 35.2632 44.3316 29.1843C45.3398 30.3022 46.6524 31.2944 48.1725 32.1304ZM55.2882 37.2826C56.9747 40.3489 59.1474 42.1823 61.4289 42.5034V35.3181C58.7852 35.2656 56.2661 34.9258 53.9729 34.3496C54.3576 35.4105 54.799 36.3932 55.2882 37.2826ZM70.2823 37.9793C69.4462 39.4994 68.4541 40.812 67.3361 41.8202C73.415 40.0548 78.2066 35.2632 79.972 29.1843C78.964 30.3022 77.6512 31.2944 76.1312 32.1304C74.9035 32.8057 73.5222 33.3909 72.021 33.8692C71.5427 35.3704 70.9575 36.7516 70.2823 37.9793ZM69.0154 37.2826C69.5047 36.3932 69.946 35.4105 70.3307 34.3496C68.0375 34.9258 65.5184 35.2656 62.8747 35.3181V42.5034C65.1564 42.1823 67.3291 40.3489 69.0154 37.2826ZM75.4344 30.8636C74.545 31.3528 73.5623 31.7942 72.5014 32.1789C73.0777 29.8857 73.4174 27.3666 73.4699 24.7229H80.6553C80.3342 27.0046 78.5007 29.1771 75.4344 30.8636ZM70.8616 32.7098C71.5488 30.3166 71.9642 27.608 72.0239 24.7229H68.9026C66.1463 25.7991 63.9506 27.9951 62.8747 30.7515V33.8721C65.7598 33.8124 68.4684 33.397 70.8616 32.7098ZM80.6553 23.2771H73.4699C73.4174 20.6334 73.0777 18.1143 72.5014 15.8211C73.5623 16.2058 74.545 16.6472 75.4344 17.1364C78.5007 18.8228 80.3342 20.9954 80.6553 23.2771ZM72.0239 23.2771C71.9642 20.392 71.5488 17.6834 70.8616 15.2902C68.4684 14.603 65.7598 14.1876 62.8747 14.1279V17.2485C63.9506 20.0049 66.1463 22.2009 68.9026 23.2771H72.0239ZM76.1312 15.8696C74.9035 15.1943 73.5222 14.6091 72.021 14.1308C71.5427 12.6296 70.9575 11.2484 70.2823 10.0206C69.4462 8.50059 68.4541 7.18795 67.3361 6.17977C73.415 7.94523 78.2066 12.7368 79.972 18.8157C78.964 17.6978 77.6512 16.7056 76.1312 15.8696ZM69.0154 10.7174C67.3291 7.65108 65.1564 5.81769 62.8747 5.49659V12.6819C65.5184 12.7344 68.0375 13.0742 70.3307 13.6504C69.946 12.5895 69.5047 11.6068 69.0154 10.7174ZM92.5409 21.572H89.8065V7.19629H92.5409V21.572ZM92.5006 39.2381H89.7663V28.9238H92.5006V39.2381ZM92.5006 27.3153H89.7663V24.8624H92.5006V27.3153ZM96.9969 42.6159H94.2625V28.9238H96.8964V30.2105H96.9567C97.6202 29.3058 98.5853 28.6423 99.9927 28.6423C102.727 28.6423 104.476 30.874 104.476 34.091C104.476 37.4286 102.667 39.5397 100.013 39.5397C98.5652 39.5397 97.6202 38.9566 97.0372 38.072H96.9969V42.6159ZM96.9366 34.1714C96.9366 36.0413 97.8012 37.2677 99.4298 37.2677C100.817 37.2677 101.702 36.1217 101.702 34.1714C101.702 32.2211 101.018 30.8539 99.3292 30.8539C97.6202 30.8539 96.9366 32.3217 96.9366 34.1714ZM109.931 39.5397C112.504 39.5397 114.274 38.2931 114.274 36.2222C114.274 33.8095 112.364 33.327 110.635 32.9651C110.398 32.9165 110.164 32.8736 109.938 32.8322C108.762 32.6167 107.8 32.4404 107.8 31.6984C107.8 30.9545 108.503 30.5523 109.569 30.5523C110.735 30.5523 111.439 30.9545 111.559 32.0603H114.033C113.831 29.9894 112.324 28.6423 109.609 28.6423C107.257 28.6423 105.407 29.7079 105.407 31.9396C105.407 34.1915 107.217 34.6942 109.066 35.0561C109.243 35.0915 109.419 35.1241 109.59 35.1559C110.782 35.3768 111.781 35.5621 111.781 36.4233C111.781 37.1471 111.097 37.6095 109.891 37.6095C108.664 37.6095 107.82 37.0868 107.639 35.9005H105.105C105.266 38.0921 106.935 39.5397 109.931 39.5397ZM124.655 28.9238V39.2381H122.022V38.0317H121.961C121.258 38.9767 120.453 39.5196 119.006 39.5196C116.714 39.5196 115.427 38.0518 115.427 35.8V28.9238H118.141V35.3375C118.141 36.5439 118.684 37.2074 119.85 37.2074C121.137 37.2074 121.921 36.2423 121.921 34.8751V28.9238H124.655ZM126.424 39.2381H129.159V33.2465C129.159 31.8793 129.903 30.9947 131.008 30.9947C132.014 30.9947 132.597 31.5978 132.597 32.764V39.2381H135.331V33.2465C135.331 31.8793 136.035 30.9947 137.181 30.9947C138.186 30.9947 138.769 31.5978 138.769 32.764V39.2381H141.504V32.3016C141.504 30.0497 140.277 28.6423 138.106 28.6423C136.799 28.6423 135.713 29.3259 135.009 30.4518H134.969C134.467 29.3661 133.421 28.6423 132.114 28.6423C130.687 28.6423 129.681 29.3661 129.118 30.3111H129.058V28.9238H126.424V39.2381ZM99.2268 21.8736C102.424 21.8736 104.615 19.5011 104.615 16.4249C104.615 13.3487 102.424 10.9762 99.2268 10.9762C96.03 10.9762 93.8384 13.3487 93.8384 16.4249C93.8384 19.5011 96.03 21.8736 99.2268 21.8736ZM99.2268 19.7826C97.5379 19.7826 96.6131 18.4355 96.6131 16.4249C96.6131 14.4143 97.5379 13.0471 99.2268 13.0471C100.896 13.0471 101.841 14.4143 101.841 16.4249C101.841 18.4355 100.896 19.7826 99.2268 19.7826ZM114.15 23.9244C113.285 24.7287 111.958 25.0906 110.43 25.0906C107.615 25.0906 105.886 23.8842 105.605 21.8736H108.319C108.54 22.517 109.123 23.0196 110.39 23.0196C111.938 23.0196 112.682 22.2757 112.682 20.8683V19.7424H112.622C112.019 20.426 111.235 20.9487 109.928 20.9487C107.636 20.9487 105.384 19.1392 105.384 16.0228C105.384 12.9466 107.233 10.9762 109.847 10.9762C111.134 10.9762 112.079 11.4788 112.702 12.3434H112.742V11.2577H115.376V20.7879C115.376 22.2355 114.914 23.2207 114.15 23.9244ZM108.058 15.9826C108.058 17.7318 108.983 18.7572 110.39 18.7572C112.119 18.7572 112.823 17.4905 112.823 15.9625C112.823 14.4545 112.019 13.1677 110.37 13.1677C108.983 13.1677 108.058 14.2535 108.058 15.9826ZM122.023 21.8736C125.22 21.8736 127.411 19.5011 127.411 16.4249C127.411 13.3487 125.22 10.9762 122.023 10.9762C118.826 10.9762 116.634 13.3487 116.634 16.4249C116.634 19.5011 118.826 21.8736 122.023 21.8736ZM122.023 19.7826C120.334 19.7826 119.409 18.4355 119.409 16.4249C119.409 14.4143 120.334 13.0471 122.023 13.0471C123.692 13.0471 124.637 14.4143 124.637 16.4249C124.637 18.4355 123.692 19.7826 122.023 19.7826ZM141.63 17.6313H129.808V15.2789H141.63V17.6313ZM142.497 27.1717C142.497 26.709 142.872 26.3339 143.335 26.3339H145.01C145.473 26.3339 145.848 26.709 145.848 27.1717C145.848 27.6343 145.473 28.0094 145.01 28.0094H143.335C142.872 28.0094 142.497 27.6343 142.497 27.1717Z" fill="#626981"/>
</svg>
