<svg width="115" height="32" viewBox="0 0 115 32" fill="none" xmlns="http://www.w3.org/2000/svg">
<path d="M87.5666 15.3293C88.2568 15.4796 88.8569 15.66 89.367 15.8103C90.0571 16.0508 90.6272 16.3214 91.0773 16.6521C92.2475 17.4638 92.8476 18.6062 92.8176 20.0192C92.8176 21.4623 92.2475 22.6047 91.1373 23.4164C90.0271 24.2282 88.6168 24.6491 86.9665 24.6491C83.906 24.6491 81.8656 23.4766 80.8455 21.1316L83.636 19.5081C84.146 20.9512 85.2562 21.6727 86.9665 21.6727C88.6768 21.6727 89.517 21.1015 89.517 19.9892C89.517 19.1774 88.5568 18.516 86.6665 18.0651C85.9464 17.8847 85.3463 17.7043 84.8962 17.554C84.2061 17.3135 83.636 17.0429 83.1859 16.7122C82.0157 15.9005 81.4156 14.8182 81.4456 13.4352C81.4456 12.0523 81.9557 10.9399 83.0058 10.0981C84.056 9.25634 85.3763 8.83545 86.9365 8.83545C89.517 8.83545 91.3773 9.88769 92.4875 11.9621L89.757 13.4954C89.2469 12.3529 88.3168 11.7817 86.9365 11.7817C85.4663 11.7817 84.7461 12.3229 84.7461 13.3751C84.7461 14.1267 85.6763 14.7881 87.5666 15.3293Z" fill="#1C1F25"/>
<path d="M65.6664 22.3642C64.1361 20.8309 63.356 18.9369 63.356 16.7423C63.356 14.5476 64.1361 12.6536 65.6664 11.1203C67.1966 9.58705 69.057 8.83545 71.2774 8.83545C73.4977 8.83545 75.3581 9.58705 76.8883 11.1203C78.4186 12.6536 79.1988 14.5476 79.1988 16.7423C79.1988 18.9369 78.4186 20.8309 76.8883 22.3642C75.3581 23.8975 73.4977 24.6491 71.2774 24.6491C69.057 24.6491 67.1966 23.8975 65.6664 22.3642ZM71.2774 21.4924C72.5976 21.4924 73.7078 21.0414 74.6079 20.1395C75.5081 19.2376 75.9582 18.0951 75.9582 16.7423C75.9582 15.3894 75.5081 14.247 74.6079 13.345C73.7078 12.4431 72.5976 11.9922 71.2774 11.9922C69.9571 11.9922 68.8469 12.4431 67.9468 13.345C67.0466 14.247 66.5965 15.3894 66.5965 16.7423C66.5965 18.0951 67.0466 19.2376 67.9468 20.1395C68.8469 21.0414 69.9571 21.4924 71.2774 21.4924Z" fill="#1C1F25"/>
<path d="M57.8839 9.22663V11.752C58.694 9.88804 60.2543 8.95605 62.5047 8.95605V12.4735C61.2745 12.3833 60.1943 12.684 59.2641 13.3754C58.334 14.0369 57.8839 15.1492 57.8839 16.6825V24.2586H54.6433V9.22663H57.8839Z" fill="#1C1F25"/>
<path d="M47.6133 17.2837V9.22656H50.8538V24.2585H47.6133V22.3344C46.6231 23.8677 45.0628 24.6493 42.9624 24.6493C41.2221 24.6493 39.8419 24.1082 38.7917 22.9958C37.7415 21.8835 37.2014 20.3502 37.2014 18.4562V9.22656H40.442V18.1255C40.442 19.2378 40.742 20.1097 41.3421 20.711C41.9423 21.3122 42.7524 21.6129 43.8026 21.6129C44.9728 21.6129 45.903 21.2521 46.5631 20.5306C47.2532 19.779 47.6133 18.6967 47.6133 17.2837Z" fill="#1C1F25"/>
<path d="M34.5302 18.1252H22.5881C22.8281 19.2376 23.3682 20.1094 24.2384 20.7408C25.0785 21.3721 26.1287 21.6727 27.389 21.6727C29.0993 21.6727 30.3895 21.0414 31.2596 19.8088L33.9301 21.3721C32.4598 23.5668 30.2695 24.6491 27.3589 24.6491C24.9285 24.6491 22.9782 23.8975 21.4479 22.4243C19.9476 20.9211 19.1975 19.0271 19.1975 16.7423C19.1975 14.5175 19.9476 12.6536 21.4179 11.1203C22.8882 9.58705 24.7785 8.83545 27.1189 8.83545C29.3093 8.83545 31.1096 9.61711 32.5199 11.1504C33.9301 12.6836 34.6502 14.5777 34.6502 16.7723C34.6502 17.1631 34.6202 17.6141 34.5302 18.1252ZM22.5581 15.4796H31.3797C31.1696 14.3071 30.6595 13.3751 29.8794 12.7137C29.1293 12.0823 28.1991 11.7817 27.0889 11.7817C25.8887 11.7817 24.8985 12.1124 24.0884 12.7738C23.2782 13.4352 22.7681 14.3371 22.5581 15.4796Z" fill="#1C1F25"/>
<path d="M12.6022 17.4937V3.21338H16.0528V24.2581H13.3524L3.45061 9.97776V24.2581H0V3.21338H2.70048L12.6022 17.4937Z" fill="#1C1F25"/>
<path d="M106.564 8.25781C107.399 12.3953 110.435 15.6274 114.322 16.5159C110.435 17.4044 107.399 20.6364 106.564 24.7739C105.73 20.6364 102.693 17.4044 98.8066 16.5159C102.693 15.6274 105.73 12.3953 106.564 8.25781Z" fill="#387FF5"/>
<path d="M112.29 8C112.504 9.00206 113.286 9.78482 114.286 10C113.286 10.2152 112.504 10.9979 112.29 12C112.075 10.9979 111.294 10.2152 110.293 10C111.294 9.78482 112.075 9.00206 112.29 8Z" fill="#387FF5"/>
<path d="M100.812 21C100.973 21.7515 101.559 22.3386 102.309 22.5C101.559 22.6614 100.973 23.2485 100.812 24C100.651 23.2485 100.065 22.6614 99.3149 22.5C100.065 22.3386 100.651 21.7515 100.812 21Z" fill="#387FF5"/>
</svg>
